<svg width="167" height="59" viewBox="0 0 167 59" fill="none" xmlns="http://www.w3.org/2000/svg">
<path d="M152.225 20.218C152.168 20.3081 152.089 20.3821 151.996 20.433C151.835 20.5292 151.648 20.5729 151.462 20.558C151.36 20.5625 151.259 20.5407 151.169 20.4946C151.079 20.4485 151.002 20.3797 150.946 20.295C150.538 19.6811 150.204 19.0216 149.951 18.33C149.611 17.519 149.67 17.654 149.171 16.43C148.923 15.7951 148.618 15.184 148.26 14.604C147.903 14.1576 147.464 13.7842 146.967 13.504C146.594 13.3595 146.201 13.2751 145.802 13.254C145.158 13.2173 144.511 13.2698 143.882 13.41C143.52 13.4873 143.187 13.6652 142.922 13.923C142.844 14.0265 142.745 14.1118 142.631 14.173C142.319 14.2896 142.026 14.4506 141.761 14.651C141.621 14.7335 141.501 14.8466 141.411 14.9818C141.321 15.117 141.262 15.2709 141.24 15.4319C141.218 15.5929 141.232 15.7569 141.282 15.9115C141.332 16.0662 141.416 16.2075 141.529 16.325C141.535 16.3294 141.542 16.3319 141.55 16.332C141.536 16.121 141.56 15.932 141.595 15.944C141.882 16.1033 142.213 16.164 142.538 16.117C142.938 16.065 143.193 16.671 143.193 16.671L143.259 16.494C143.311 16.6621 143.39 16.8204 143.495 16.962C143.519 16.9352 143.539 16.9048 143.554 16.872C143.675 17.021 143.869 17.118 143.887 17.372C143.875 17.5082 143.835 17.6405 143.769 17.76C143.703 17.8795 143.611 17.9835 143.502 18.065C143.395 18.165 142.761 18.685 142.085 19.375C141.735 19.732 141.562 19.95 141.205 20.335C141.076 20.5082 140.887 20.6259 140.675 20.664H140.595C140.511 20.6634 140.428 20.6453 140.352 20.6109C140.276 20.5764 140.208 20.5264 140.152 20.464C140.083 20.374 136.652 15.841 135.012 13.671C137.989 10.771 142.924 10.288 144.154 10.371C144.441 10.392 144.771 10.621 144.407 11.095C145.459 10.6699 146.636 10.6699 147.689 11.095C147.325 10.624 147.654 10.395 147.942 10.371C151.326 10.2533 154.622 11.4605 157.13 13.736C155.53 15.854 153.387 18.536 152.236 20.203M166.709 29.061C166.809 18.089 164.401 11.944 162.309 8.92499C163.023 7.98599 163.463 7.40701 163.494 7.37601C163.843 7.01091 164.312 6.78224 164.815 6.73099C164.99 5.6591 165.239 4.60059 165.56 3.56299C164.678 4.1895 163.741 4.73346 162.76 5.18799C162.86 5.68432 162.763 6.20039 162.489 6.62601C162.461 6.66401 162.125 7.115 161.571 7.849C160.574 6.66419 159.373 5.66773 158.025 4.90698C157.651 4.69565 157.249 4.49134 156.819 4.29401C156.836 4.01232 156.795 3.73004 156.698 3.46509C156.601 3.20014 156.45 2.95833 156.254 2.755C156.233 2.56237 156.163 2.37847 156.049 2.22162C155.935 2.06477 155.782 1.94043 155.606 1.86099C155.401 1.82549 155.191 1.83569 154.991 1.89084C154.791 1.94599 154.606 2.04474 154.449 2.17999C153.844 2.27142 153.291 2.57185 152.886 3.02899C151.435 2.72715 149.965 2.53361 148.486 2.44998C148.398 2.07957 148.23 1.73312 147.992 1.43542C147.755 1.13773 147.455 0.896151 147.114 0.727997C147.004 0.530976 146.85 0.362419 146.663 0.235962C146.477 0.109505 146.263 0.0286925 146.04 0C145.816 0.0288458 145.603 0.109734 145.416 0.236176C145.23 0.362617 145.075 0.531077 144.966 0.727997C144.624 0.896209 144.324 1.1378 144.087 1.43549C143.85 1.73318 143.681 2.0796 143.594 2.44998C142.115 2.5336 140.644 2.72715 139.194 3.02899C138.789 2.57063 138.235 2.26994 137.631 2.17999C137.473 2.04491 137.288 1.94608 137.087 1.89044C136.887 1.83481 136.678 1.82373 136.473 1.858C136.296 1.93918 136.144 2.06476 136.03 2.2225C135.916 2.38025 135.846 2.56475 135.825 2.758C135.629 2.9616 135.478 3.20345 135.381 3.46832C135.284 3.7332 135.243 4.01536 135.26 4.297C134.827 4.491 134.425 4.697 134.05 4.91C132.71 5.63667 131.529 6.62245 130.574 7.81C130.074 7.141 129.767 6.73898 129.742 6.70398C129.468 6.27786 129.372 5.7622 129.472 5.26599C128.492 4.80905 127.555 4.26521 126.672 3.64099C126.993 4.67848 127.242 5.73702 127.417 6.80899C127.919 6.86185 128.387 7.09023 128.738 7.45398C128.766 7.48198 129.15 7.988 129.785 8.823C127.685 11.817 125.238 18.014 125.342 29.059C125.356 30.081 124.916 39.65 128.035 46.097C128.807 47.5811 129.818 48.9287 131.026 50.086C132.423 51.4138 134.134 52.3664 135.999 52.855C136.055 52.869 136.172 52.897 136.228 52.914C137.922 53.4598 139.755 53.389 141.402 52.714L141.284 53.005C141.253 53.081 141.204 53.199 141.184 53.265C140.747 54.454 141.042 55.681 142.643 55.865C143.142 55.8855 143.634 55.9959 144.095 56.191C144.584 56.432 145.024 56.7608 145.395 57.161C145.716 57.5097 145.991 57.8975 146.216 58.315C146.439 57.8976 146.714 57.5099 147.034 57.161C147.404 56.7607 147.845 56.4319 148.334 56.191C148.793 55.9963 149.284 55.8859 149.783 55.865C151.383 55.681 151.683 54.454 151.245 53.265C151.217 53.196 151.172 53.074 151.138 52.998C151.104 52.922 151.02 52.707 151.02 52.707C152.133 53.352 155.55 53.851 158.828 51.771C161.067 50.4331 162.872 48.4776 164.028 46.139C167.144 39.689 166.728 29.933 166.714 29.056" fill="white"/>
<path d="M166.04 26.065C164.598 27.2592 163.043 28.3086 161.396 29.1981L160.651 29.6031L160.658 29.066C160.661 24.3454 159.523 19.6939 157.341 15.5081C157.119 15.8021 156.377 16.749 155.615 17.716C155.856 17.6861 156.102 17.7132 156.331 17.795C156.56 17.8767 156.767 18.011 156.936 18.187C158.054 19.423 158.939 20.8523 159.546 22.4051C159.976 23.6765 160.177 25.0143 160.139 26.356C160.139 26.356 159.713 33.7381 158.87 40.8081C158.104 47.2331 157.681 48.076 157.681 48.076C157.288 47.5488 157.011 46.9441 156.87 46.302L156.801 46.364C156.446 45.7767 156.203 45.1293 156.083 44.4541C155.812 42.7142 155.702 40.9531 155.754 39.193V39.2C155.737 38.8531 155.64 38.5148 155.47 38.2121C155.33 37.924 155.22 37.6224 155.141 37.312C155.141 37.3093 155.141 37.3065 155.139 37.304C155.138 37.3015 155.136 37.2994 155.134 37.2981C154.857 36.0806 154.206 34.9802 153.273 34.151C152.74 33.5012 152.3 32.7803 151.966 32.009C151.948 32.0218 151.932 32.0359 151.917 32.0511C151.648 32.2617 151.445 32.5439 151.331 32.8651C151.487 33.7103 151.503 34.5755 151.379 35.4261C151.294 35.3661 151.214 35.3013 151.137 35.2321C151.217 35.9941 150.853 36.878 151.085 37.578L150.634 37.5191C150.645 37.5578 150.661 37.595 150.682 37.63C150.743 37.7104 150.821 37.7766 150.911 37.8241L151.06 37.893C151.098 37.91 151.212 37.9521 151.524 38.0561C151.628 37.8216 151.664 37.5626 151.629 37.3085C151.593 37.0544 151.488 36.8153 151.324 36.618C151.109 36.358 151.365 35.9771 151.813 36.1711C152.501 36.4715 153.13 36.8917 153.671 37.412C154.617 38.306 154.891 39.1731 154.69 39.3421C154.534 39.4741 154.416 39.442 154.233 39.38C154.232 39.414 154.226 39.4478 154.216 39.4801C154.185 39.5688 154.131 39.6478 154.06 39.7092C153.989 39.7706 153.903 39.8123 153.811 39.83L153.79 39.865C153.69 40.007 153.527 40.056 153.243 40.052C153.05 40.0342 152.862 39.9777 152.692 39.886C152.622 39.8517 152.559 39.8061 152.505 39.7511C152.449 39.7931 152.394 39.838 152.335 39.886C153.503 41.3057 154.572 42.8043 155.535 44.3711C155.966 45.131 156.323 45.9307 156.602 46.7591C156.307 46.8352 155.998 46.8386 155.702 46.7691C155.872 47.1916 155.955 47.6445 155.945 48.1001C155.439 48.1259 154.937 48.008 154.496 47.76C154.513 47.843 154.527 47.93 154.541 48.013C154.998 48.342 155.511 48.7201 155.741 48.8791C153.967 49.5193 152.062 49.712 150.196 49.44L149.78 49.3811C149.759 49.4401 149.731 49.513 149.7 49.581C149.918 50.101 150.428 51.31 150.542 51.55C152.009 52.3224 153.693 52.5822 155.325 52.2881C155.74 52.2182 156.147 52.1091 156.542 51.9621C157.965 51.3767 159.268 50.5343 160.386 49.477C161.536 48.4057 162.509 47.1589 163.269 45.7831C165.747 40.9451 166.156 33.764 166.156 30.863V29.3651C166.142 28.3911 166.087 26.797 166.056 26.065" fill="#E91D2D"/>
<path d="M141.895 51.5001C141.995 51.2331 142.442 50.162 142.671 49.618C142.64 49.524 142.609 49.431 142.584 49.337C142.276 49.389 141.964 49.4371 141.652 49.4651C139.791 49.7505 137.887 49.5585 136.121 48.907C136.395 48.717 136.904 48.297 137.597 47.85C137.607 47.805 137.614 47.7601 137.621 47.7151C137.179 47.9605 136.677 48.077 136.172 48.0511C136.16 47.5954 136.242 47.1421 136.415 46.72C136.118 46.7896 135.809 46.7862 135.515 46.7101C135.793 45.8809 136.151 45.0802 136.582 44.319C137.305 43.1029 138.125 41.9463 139.032 40.86C139.108 40.569 139.257 40.302 139.465 40.084C139.486 40.063 139.583 39.956 139.6 39.938C139.506 39.858 139.42 39.785 139.333 39.72C139.273 39.7917 139.199 39.8497 139.115 39.8901C138.944 39.9814 138.757 40.0368 138.564 40.053C138.276 40.067 138.113 40.0081 138.016 39.8661L137.995 39.8311C137.902 39.8134 137.816 39.7718 137.745 39.7103C137.674 39.6489 137.621 39.5698 137.59 39.4811C137.58 39.4486 137.574 39.415 137.573 39.381C137.507 39.4134 137.433 39.4254 137.36 39.4156C137.287 39.4059 137.219 39.3747 137.164 39.326C136.964 39.156 137.24 38.2901 138.183 37.3961C138.721 36.8743 139.349 36.4539 140.037 36.1551C140.484 35.9611 140.744 36.3421 140.526 36.5991C140.361 36.7971 140.254 37.0375 140.219 37.293C140.184 37.5484 140.221 37.8086 140.326 38.0441C140.596 37.9541 140.704 37.909 140.742 37.892C140.891 37.8485 141.021 37.7572 141.113 37.6321C141.132 37.6008 141.147 37.5672 141.158 37.532L140.758 37.5771C140.958 37.0771 140.647 35.8721 140.852 35.0851C140.768 35.1468 140.677 35.1991 140.582 35.2411C140.46 34.4469 140.438 33.6407 140.516 32.8411C140.414 32.5775 140.245 32.3446 140.027 32.1651C139.716 32.9084 139.293 33.5992 138.772 34.2131C137.835 35.0398 137.184 36.1412 136.911 37.36C136.911 37.367 136.911 37.3671 136.904 37.3741C136.826 37.6849 136.716 37.9866 136.575 38.274C136.406 38.5786 136.309 38.9175 136.291 39.2651V39.2551C136.343 41.0151 136.233 42.7762 135.962 44.5161C135.842 45.1901 135.599 45.8363 135.245 46.4221L135.176 46.36C135.036 47.0032 134.76 47.6087 134.365 48.1351C134.365 48.1351 133.942 47.2931 133.176 40.8671C132.334 33.7971 131.907 26.4111 131.907 26.4111C131.866 25.0695 132.065 23.7314 132.496 22.4601C133.099 20.9066 133.982 19.4769 135.102 18.2421C135.285 18.0489 135.515 17.9058 135.769 17.8264C136.023 17.7469 136.293 17.7337 136.554 17.7881C136.419 17.6041 136.263 17.4001 136.263 17.4001C135.778 16.7551 135.216 16.0481 134.738 15.4141C132.581 19.5571 131.427 24.1486 131.369 28.8191V29.5951L130.769 29.2731C129.075 28.3613 127.473 27.2876 125.986 26.067C125.951 26.802 125.875 29.304 125.875 29.304V30.8251C125.875 33.7251 126.395 40.8511 128.762 45.7451C129.489 47.1381 130.439 48.4025 131.576 49.488C132.773 50.6123 134.209 51.4522 135.776 51.9451C135.866 51.9731 136.046 52.035 136.14 52.063C137.078 52.3581 138.066 52.4646 139.046 52.3766C140.026 52.2885 140.98 52.0077 141.851 51.55L141.872 51.498L141.895 51.5001Z" fill="#E91D2D"/>
<path d="M143.36 53.3399C143.426 52.2498 143.547 51.1637 143.724 50.0859C143.568 50.2493 143.386 50.3864 143.187 50.4919C143.145 50.4919 143.097 50.4429 143.041 50.3739C142.5 51.6939 141.741 53.5559 141.734 53.5739C141.954 53.3831 142.224 53.2601 142.512 53.2194C142.801 53.1788 143.095 53.2224 143.359 53.3449" fill="#E91D2D"/>
<path d="M148.614 54.1961C148.535 52.6213 148.351 51.0534 148.063 49.5031C148.039 49.4681 148.015 49.4301 147.99 49.3921C147.945 49.3331 147.904 49.2711 147.858 49.2051C147.774 49.497 147.671 49.783 147.55 50.0611C147.448 50.3188 147.296 50.5534 147.103 50.7511C146.619 50.4055 146.239 49.9346 146.003 49.3891C145.766 49.9279 145.386 50.3909 144.903 50.7271C144.711 50.5285 144.56 50.2941 144.459 50.0371C144.39 49.8841 144.331 49.7291 144.275 49.5761C144.015 51.1043 143.852 52.6474 143.786 54.1961C142.441 53.3091 141.63 54.1961 141.904 54.8131C141.93 54.8639 141.96 54.9127 141.994 54.9591C142.07 55.0645 142.17 55.1508 142.285 55.2115C142.401 55.2722 142.528 55.3055 142.659 55.3091C143.228 55.3238 143.789 55.4524 144.309 55.6871C144.394 56.1232 144.629 56.5161 144.972 56.7985C145.315 57.0808 145.746 57.2352 146.191 57.2352C146.635 57.2352 147.066 57.0808 147.409 56.7985C147.752 56.5161 147.987 56.1232 148.073 55.6871C148.594 55.454 149.155 55.3256 149.726 55.3091C149.855 55.3 149.981 55.2642 150.095 55.204C150.21 55.1437 150.311 55.0603 150.392 54.9591C150.426 54.9135 150.456 54.8646 150.482 54.8131C150.759 54.1931 149.945 53.3131 148.604 54.1961" fill="#E91D2D"/>
<path d="M149.089 50.4909C148.923 50.4084 148.772 50.2997 148.642 50.1689C148.841 51.2165 148.975 52.2756 149.042 53.34C149.306 53.2161 149.6 53.1719 149.888 53.2125C150.177 53.2532 150.447 53.377 150.667 53.5689C150.66 53.5519 149.849 51.469 149.353 50.2C149.285 50.313 149.194 50.4118 149.089 50.4909Z" fill="#E91D2D"/>
<path d="M166.147 29.364C166.133 28.39 166.078 26.796 166.04 26.064C164.598 27.2582 163.043 28.3075 161.396 29.197L160.651 29.597V29.06C160.658 24.3393 159.522 19.6871 157.338 15.502C157.116 15.802 156.374 16.743 155.612 17.71C155.853 17.6799 156.098 17.7069 156.328 17.7887C156.557 17.8705 156.764 18.0048 156.932 18.181C158.053 19.4152 158.937 20.845 159.541 22.399C159.971 23.6703 160.171 25.0084 160.13 26.35C160.13 26.35 159.704 33.732 158.858 40.802C158.092 47.227 157.669 48.07 157.669 48.07C157.276 47.5425 157 46.9379 156.858 46.296L156.785 46.358C156.432 45.7714 156.189 45.1256 156.068 44.452C155.797 42.7121 155.687 40.951 155.739 39.191V39.198C155.72 38.8514 155.623 38.5136 155.455 38.21C155.315 37.9218 155.205 37.6203 155.126 37.31C155.126 37.3072 155.126 37.3044 155.124 37.3019C155.123 37.2994 155.121 37.2974 155.119 37.296C154.842 36.0785 154.191 34.9781 153.258 34.149C152.727 33.4978 152.287 32.7772 151.951 32.007L151.902 32.045C151.633 32.2556 151.43 32.5378 151.316 32.859C151.473 33.7042 151.489 34.5694 151.365 35.42C151.292 35.382 151.185 35.268 151.122 35.226C151.202 35.989 150.838 36.872 151.07 37.572L150.619 37.513C150.63 37.5518 150.646 37.589 150.667 37.624C150.725 37.7088 150.804 37.7776 150.896 37.824L151.042 37.893C151.08 37.91 151.194 37.952 151.506 38.056C151.61 37.8215 151.646 37.5626 151.611 37.3085C151.575 37.0544 151.47 36.8152 151.306 36.618C151.091 36.358 151.351 35.977 151.795 36.171C152.483 36.4713 153.112 36.8915 153.653 37.412C154.599 38.306 154.873 39.173 154.672 39.342C154.516 39.474 154.398 39.442 154.215 39.38C154.215 39.4138 154.21 39.4475 154.201 39.48C154.17 39.5688 154.116 39.6479 154.045 39.7094C153.973 39.7708 153.887 39.8124 153.795 39.83L153.774 39.865C153.674 40.004 153.511 40.056 153.223 40.052C153.03 40.0346 152.843 39.9792 152.672 39.889C152.603 39.8539 152.54 39.8083 152.485 39.754C152.429 39.7953 152.374 39.8403 152.319 39.889C153.488 41.3081 154.557 42.8067 155.519 44.374C155.949 45.1349 156.306 45.9344 156.587 46.762C156.292 46.8381 155.983 46.8415 155.687 46.772C155.857 47.1946 155.939 47.6475 155.929 48.103C155.424 48.1287 154.921 48.0108 154.481 47.763C154.498 47.846 154.512 47.933 154.526 48.016C154.984 48.345 155.496 48.723 155.726 48.882C153.952 49.5223 152.047 49.715 150.181 49.443L149.765 49.384C149.744 49.443 149.716 49.516 149.685 49.584C149.904 50.104 150.413 51.313 150.527 51.553C151.994 52.3254 153.678 52.5851 155.31 52.291C155.725 52.2234 156.132 52.1142 156.526 51.965C157.948 51.3796 159.251 50.5372 160.369 49.48C161.519 48.4088 162.493 47.162 163.253 45.786C165.731 40.948 166.14 33.767 166.14 30.866V29.358M150.672 53.558C150.665 53.537 149.854 51.458 149.359 50.189C149.291 50.3022 149.201 50.401 149.096 50.48C148.93 50.3975 148.779 50.2888 148.649 50.158C148.846 51.2059 148.98 52.2648 149.049 53.329C149.313 53.2065 149.607 53.163 149.895 53.2037C150.183 53.2443 150.454 53.3673 150.674 53.558M148.619 54.185C148.54 52.6101 148.356 51.0423 148.068 49.492C148.044 49.457 148.02 49.419 147.995 49.381C147.95 49.322 147.908 49.26 147.863 49.194C147.779 49.486 147.676 49.772 147.554 50.05C147.452 50.3077 147.301 50.5423 147.107 50.74C146.623 50.3944 146.243 49.9236 146.007 49.378C145.77 49.9166 145.389 50.3796 144.907 50.716C144.715 50.5175 144.564 50.283 144.463 50.026C144.394 49.87 144.335 49.718 144.279 49.565C144.019 51.0932 143.856 52.6363 143.79 54.185C142.445 53.298 141.634 54.185 141.908 54.802C141.934 54.8528 141.964 54.9016 141.998 54.948C142.074 55.0534 142.174 55.1398 142.29 55.2005C142.405 55.2612 142.533 55.2945 142.664 55.298C143.233 55.3128 143.794 55.4413 144.314 55.676C144.399 56.1121 144.634 56.505 144.977 56.7874C145.32 57.0697 145.751 57.2241 146.196 57.2241C146.64 57.2241 147.071 57.0697 147.414 56.7874C147.757 56.505 147.992 56.1121 148.078 55.676C148.599 55.4429 149.16 55.3145 149.731 55.298C149.86 55.2888 149.985 55.2529 150.1 55.1927C150.214 55.1324 150.315 55.0491 150.396 54.948C150.43 54.9024 150.46 54.8535 150.486 54.802C150.763 54.185 149.949 53.302 148.607 54.185M141.738 53.558C141.958 53.3673 142.228 53.2443 142.516 53.2037C142.805 53.163 143.099 53.2065 143.363 53.329C143.428 52.2426 143.548 51.1602 143.724 50.086C143.568 50.2491 143.386 50.3858 143.187 50.491C143.145 50.491 143.097 50.442 143.042 50.373C142.501 51.693 141.742 53.551 141.735 53.573M141.867 51.552L141.888 51.5C141.988 51.233 142.436 50.162 142.664 49.618C142.633 49.524 142.602 49.431 142.577 49.337C142.269 49.389 141.957 49.437 141.645 49.465C139.783 49.7504 137.88 49.5583 136.114 48.907C136.388 48.716 136.897 48.297 137.59 47.85C137.597 47.805 137.607 47.76 137.614 47.715C137.172 47.9605 136.67 48.0769 136.165 48.051C136.153 47.5953 136.235 47.1421 136.408 46.72C136.111 46.7896 135.802 46.7861 135.508 46.71C135.788 45.8815 136.145 45.081 136.575 44.319C137.298 43.102 138.118 41.9444 139.025 40.857C139.101 40.5659 139.25 40.2989 139.458 40.081C139.479 40.06 139.576 39.953 139.593 39.935C139.499 39.855 139.413 39.783 139.326 39.717C139.266 39.7887 139.191 39.8467 139.107 39.887C138.936 39.9783 138.749 40.0337 138.556 40.05C138.268 40.064 138.105 40.005 138.008 39.863L137.987 39.828C137.894 39.8104 137.808 39.7687 137.737 39.7073C137.666 39.6458 137.612 39.5668 137.582 39.478C137.572 39.4456 137.566 39.4119 137.565 39.378C137.498 39.4105 137.424 39.4223 137.351 39.4117C137.278 39.4012 137.21 39.3689 137.156 39.319C136.956 39.149 137.232 38.286 138.175 37.392C138.713 36.8703 139.341 36.4499 140.029 36.151C140.476 35.957 140.729 36.338 140.518 36.595C140.352 36.7931 140.246 37.0335 140.211 37.2889C140.176 37.5443 140.213 37.8045 140.318 38.04C140.588 37.95 140.696 37.905 140.734 37.888C140.883 37.8449 141.013 37.7534 141.105 37.628C141.124 37.5967 141.139 37.5631 141.15 37.528L140.759 37.573C140.959 37.073 140.648 35.868 140.853 35.085C140.768 35.1468 140.677 35.1991 140.582 35.241C140.46 34.4469 140.438 33.6406 140.516 32.841C140.413 32.5774 140.245 32.3445 140.027 32.165C139.717 32.9077 139.294 33.5976 138.772 34.21C137.837 35.0381 137.186 36.1389 136.911 37.357C136.911 37.357 136.911 37.364 136.904 37.371C136.826 37.6818 136.716 37.9835 136.575 38.271C136.406 38.5756 136.309 38.9144 136.291 39.262V39.252C136.343 41.012 136.233 42.7731 135.962 44.513C135.842 45.1871 135.599 45.8333 135.245 46.419L135.176 46.357C135.035 46.9993 134.758 47.604 134.365 48.131C134.365 48.131 133.942 47.289 133.176 40.863C132.334 33.789 131.908 26.408 131.908 26.408C131.867 25.0664 132.066 23.7283 132.497 22.457C133.1 20.9026 133.985 19.4726 135.107 18.239C135.29 18.0457 135.519 17.9025 135.774 17.823C136.028 17.7435 136.298 17.7305 136.559 17.785C136.424 17.601 136.268 17.397 136.268 17.397C135.783 16.752 135.221 16.045 134.743 15.411C132.586 19.554 131.432 24.1455 131.374 28.816V29.592L130.774 29.27C129.08 28.3581 127.478 27.2845 125.991 26.064C125.956 26.799 125.88 29.301 125.88 29.301V30.822C125.88 33.722 126.4 40.848 128.767 45.742C129.494 47.1356 130.445 48.4009 131.581 49.488C132.778 50.6122 134.214 51.4521 135.781 51.945C135.871 51.973 136.051 52.035 136.145 52.063C137.084 52.3581 138.072 52.4648 139.052 52.3767C140.032 52.2887 140.985 52.0077 141.857 51.55M126.057 25.256C127.534 26.4889 129.123 27.5828 130.802 28.524C130.858 23.7655 132.086 19.0943 134.379 14.924C133.979 14.397 133.807 14.169 133.433 13.666C133.105 13.9903 132.695 14.2201 132.248 14.331C132.285 13.4224 132.082 12.5201 131.662 11.714C130.772 11.7467 129.882 11.6627 129.014 11.464C127.264 15.207 126.38 19.529 126.058 25.254M129.032 11.433C129.435 11.2006 129.789 10.8922 130.075 10.525C130.226 10.3081 130.359 10.0797 130.475 9.84198L130.114 9.38098C129.714 10.046 129.359 10.729 129.026 11.436M130.801 9.18698C130.849 9.09987 130.903 9.01632 130.964 8.93698C130.104 7.81098 129.522 7.05499 129.464 6.98199C129.17 6.55588 129.032 6.04191 129.072 5.526C128.445 5.23837 127.843 4.89991 127.272 4.51401C127.272 4.51401 128.939 6.725 130.789 9.186M130.907 8.28598C130.997 8.40698 131.091 8.532 131.191 8.664C132.642 6.84615 134.576 5.47348 136.771 4.703C136.606 4.46932 136.539 4.1812 136.582 3.89886C136.625 3.61653 136.776 3.36181 137.003 3.18799C137.302 3.18656 137.593 3.28694 137.828 3.47263C138.063 3.65832 138.228 3.91831 138.296 4.20999C140.332 3.68886 142.422 3.40037 144.524 3.35001C144.505 2.9306 144.613 2.51525 144.832 2.15717C145.051 1.79909 145.372 1.51457 145.754 1.34C145.76 1.25483 145.788 1.17265 145.834 1.10114C145.881 1.02962 145.945 0.971101 146.021 0.931H146.028C146.103 0.971101 146.167 1.02962 146.214 1.10114C146.26 1.17265 146.288 1.25483 146.295 1.34C146.676 1.51522 146.996 1.79988 147.215 2.15781C147.434 2.51573 147.542 2.93075 147.525 3.35001C149.626 3.4006 151.716 3.68909 153.753 4.20999C153.82 3.91774 153.985 3.65703 154.219 3.47061C154.454 3.28419 154.746 3.18314 155.046 3.18399C155.272 3.35781 155.423 3.6125 155.466 3.89484C155.509 4.17718 155.442 4.46532 155.278 4.69901C157.493 5.48945 159.446 6.87855 160.92 8.71201C161.02 8.57701 161.12 8.44901 161.211 8.32401C159.83 6.66212 158.061 5.36591 156.061 4.54999C156.156 4.27977 156.171 3.98764 156.104 3.70898C156.037 3.43033 155.891 3.17709 155.683 2.97998C155.684 2.86561 155.655 2.75292 155.6 2.65274C155.545 2.55256 155.465 2.46826 155.368 2.40799C155.244 2.40097 155.12 2.42085 155.004 2.46625C154.889 2.51165 154.785 2.58149 154.699 2.67099C154.396 2.70554 154.107 2.81368 153.857 2.98593C153.606 3.15818 153.401 3.38929 153.261 3.659C151.54 3.26325 149.785 3.02889 148.021 2.95898C148.004 2.54864 147.873 2.15116 147.641 1.8121C147.41 1.47304 147.087 1.20613 146.711 1.04199C146.681 0.88153 146.595 0.736645 146.47 0.632385C146.344 0.528126 146.186 0.471039 146.023 0.471039C145.859 0.471039 145.701 0.528126 145.576 0.632385C145.45 0.736645 145.365 0.88153 145.335 1.04199C144.959 1.20662 144.636 1.47364 144.405 1.81259C144.173 2.15155 144.041 2.54878 144.025 2.95898C142.26 3.02889 140.506 3.26325 138.785 3.659C138.645 3.38874 138.44 3.15717 138.189 2.98483C137.939 2.81249 137.649 2.70469 137.347 2.67099C137.262 2.58136 137.158 2.5114 137.043 2.46597C136.928 2.42054 136.805 2.40075 136.682 2.40799C136.584 2.46903 136.504 2.5539 136.449 2.65454C136.394 2.75518 136.366 2.86825 136.367 2.983C136.158 3.17968 136.011 3.43288 135.944 3.7117C135.877 3.99052 135.892 4.28286 135.989 4.55298C134.007 5.34991 132.259 6.63512 130.908 8.289M161.136 9.00998C161.16 9.04798 161.264 9.23198 161.289 9.27698C163.189 6.75398 164.924 4.44901 164.924 4.44901C164.355 4.83519 163.756 5.17367 163.132 5.461C163.174 5.97695 163.035 6.49152 162.741 6.91699C162.686 6.98999 162.058 7.804 161.141 9.017M161.907 9.46399L161.571 9.91098C161.868 10.5538 162.368 11.0809 162.995 11.411C162.667 10.7437 162.304 10.0948 161.907 9.46698M156.525 15.632C156.667 15.438 157.36 14.513 158.292 13.272C158.225 13.1942 158.163 13.112 158.108 13.026C157.467 13.882 156.808 14.759 156.188 15.608C155.752 16.1686 155.351 16.7554 154.988 17.365C154.978 17.549 156.177 16.11 156.527 15.636M144.646 48.775C144.747 49.0893 144.876 49.3942 145.031 49.686C145.477 49.2485 145.759 48.6709 145.831 48.05C145.681 48.1744 145.524 48.2912 145.363 48.4C145.082 48.563 144.829 48.691 144.652 48.774M136.886 48.774C138.479 49.1271 140.12 49.2116 141.741 49.024C143.113 48.8904 144.429 48.4085 145.564 47.624C145.301 47.395 144.971 47.101 144.635 46.778C144.238 47.1294 143.797 47.4288 143.325 47.669C141.905 48.1767 140.427 48.4984 138.925 48.626C140.426 48.3022 141.897 47.8489 143.32 47.271C143.679 47.0409 144.018 46.7813 144.335 46.495C143.916 46.09 143.5 45.684 143.191 45.376C143.001 45.5466 142.8 45.7052 142.591 45.851C142.112 46.1446 141.604 46.3886 141.076 46.579C139.594 47.1393 138.184 47.8745 136.876 48.769M140.622 29.628C140.795 29.091 140.989 25.656 139.631 24.176C140.148 25.9542 140.48 27.7813 140.622 29.628ZM138.044 21.109C137.97 21.587 137.985 22.0745 138.089 22.547C138.175 22.8304 138.284 23.1063 138.415 23.372C138.444 22.6004 138.317 21.8309 138.044 21.109ZM138.737 22.209C138.768 23.1888 138.946 24.1584 139.267 25.085C139.354 24.096 139.171 23.1019 138.737 22.209ZM133.788 13.163C134.788 14.497 135.545 15.502 135.694 15.707C136.044 16.185 137.243 17.624 137.233 17.44C136.87 16.8283 136.469 16.2401 136.033 15.679C135.361 14.768 134.653 13.821 133.964 12.903C133.898 13.003 133.839 13.087 133.791 13.163M132.907 8.457C132.807 8.343 132.543 8.11698 131.907 8.57098C130.77 9.55498 131.138 10.446 129.97 11.233C130.31 11.2979 130.656 11.3313 131.003 11.333C131.17 11.3337 131.337 11.3243 131.503 11.305C131.718 11.281 131.891 11.246 132.047 11.222C132.465 11.943 132.69 12.7596 132.702 13.593C134.068 12.869 133.51 10.536 134.778 10.56C134.064 9.76 133.024 8.59099 132.91 8.45999M158.979 7.91901C158.01 7.01683 156.891 6.29088 155.673 5.77399C152.013 4.17399 147.373 4.16199 146.042 4.16199C144.715 4.16199 140.071 4.16899 136.411 5.77399C135.192 6.29088 134.073 7.01683 133.105 7.91901C133.105 7.91901 134.762 9.77699 135.191 10.279C135.305 10.3917 135.383 10.5369 135.412 10.6949C135.442 10.853 135.423 11.0163 135.357 11.163C137.901 9.45799 140.791 8.60501 145.945 8.57401H146.177C151.24 8.61901 154.218 9.47399 156.737 11.163C156.671 11.0162 156.652 10.8528 156.681 10.6948C156.711 10.5367 156.789 10.3916 156.904 10.279C157.334 9.77899 158.99 7.91901 158.99 7.91901M158.262 11.819C158.369 12.4346 158.662 13.0028 159.101 13.448C159.172 13.5022 159.247 13.551 159.326 13.594L159.336 13.601C159.35 12.7664 159.576 11.9493 159.995 11.227V11.22C160.677 11.3659 161.383 11.3706 162.068 11.234C161.014 10.524 161.24 9.726 160.46 8.85699C160.369 8.75715 160.273 8.66234 160.172 8.573C159.99 8.42299 159.768 8.32916 159.534 8.30298C159.466 8.29904 159.398 8.3111 159.335 8.3382C159.273 8.36529 159.217 8.40666 159.174 8.45898C159.074 8.57298 157.974 9.75199 157.254 10.559C157.899 10.545 158.072 11.138 158.263 11.821M157.363 13.439C157.474 13.29 157.585 13.144 157.696 12.999C155.935 11.4452 153.819 10.3489 151.534 9.80701C150.288 9.53586 149.016 9.409 147.742 9.42899C147.063 9.43899 146.626 9.703 146.626 10.129C146.203 10.049 146.089 9.51901 146.037 9.41901C145.996 9.64101 145.791 10.074 145.448 10.129C145.448 9.706 145.011 9.44299 144.332 9.42899C143.056 9.40918 141.783 9.53603 140.537 9.80701C138.264 10.3022 136.155 11.3712 134.413 12.912C134.524 13.054 134.631 13.203 134.746 13.349C136.187 12.0303 137.914 11.0634 139.792 10.524C141.233 10.1251 142.722 9.92688 144.218 9.935C145.012 9.973 145.126 10.424 145.032 10.673C145.152 10.5227 145.305 10.4013 145.479 10.3179C145.652 10.2345 145.842 10.1912 146.035 10.1912C146.228 10.1912 146.418 10.2345 146.592 10.3179C146.765 10.4013 146.918 10.5227 147.039 10.673C146.945 10.423 147.06 9.973 147.857 9.935C149.352 9.92534 150.842 10.1236 152.283 10.524C154.169 11.1101 155.902 12.1055 157.36 13.439M151.46 20.568C151.647 20.5825 151.835 20.5389 151.997 20.443C152.091 20.3929 152.17 20.3187 152.226 20.228C153.38 18.557 155.518 15.875 157.12 13.761C154.614 11.485 151.319 10.2775 147.936 10.396C147.645 10.42 147.319 10.646 147.683 11.12C146.63 10.6948 145.453 10.6948 144.401 11.12C144.765 10.649 144.439 10.42 144.151 10.396C142.921 10.309 137.985 10.788 135.009 13.696C136.652 15.869 140.079 20.396 140.149 20.489C140.205 20.5515 140.273 20.6016 140.349 20.636C140.426 20.6705 140.509 20.6885 140.593 20.689H140.673C140.886 20.6532 141.076 20.535 141.203 20.36C141.557 19.972 141.73 19.76 142.083 19.4C142.759 18.71 143.393 18.187 143.501 18.09C143.61 18.0084 143.701 17.9044 143.767 17.7849C143.834 17.6654 143.874 17.5332 143.885 17.397C143.868 17.151 143.674 17.05 143.552 16.897C143.536 16.9293 143.516 16.9595 143.493 16.987C143.388 16.8454 143.308 16.6871 143.257 16.519L143.191 16.696C143.191 16.696 142.938 16.089 142.539 16.141C142.214 16.189 141.882 16.1282 141.596 15.968C141.561 15.958 141.54 16.145 141.551 16.356C141.547 16.3565 141.543 16.3562 141.539 16.3549C141.536 16.3537 141.532 16.3517 141.53 16.349C141.418 16.2311 141.335 16.0897 141.285 15.9352C141.236 15.7807 141.222 15.617 141.244 15.4563C141.266 15.2956 141.324 15.142 141.414 15.0067C141.503 14.8715 141.622 14.7581 141.762 14.675C142.027 14.4745 142.32 14.3135 142.632 14.197C142.745 14.1347 142.844 14.0496 142.923 13.947C143.19 13.692 143.522 13.5158 143.883 13.438C144.514 13.298 145.161 13.2455 145.807 13.282C146.205 13.3031 146.598 13.3875 146.971 13.532C147.467 13.8083 147.905 14.1793 148.26 14.624C148.618 15.2054 148.923 15.8178 149.172 16.454C149.672 17.674 149.612 17.546 149.952 18.354C150.206 19.0444 150.54 19.7028 150.947 20.316C151.003 20.3998 151.081 20.4679 151.171 20.5139C151.261 20.5599 151.361 20.5822 151.463 20.579M141.426 29.455C141.44 29.7375 141.52 30.0129 141.659 30.2594C141.798 30.5059 141.992 30.717 142.226 30.876C142.04 30.3611 141.77 29.8808 141.426 29.455ZM147.654 34.855C147.51 35.0912 147.33 35.3029 147.12 35.482C147.167 35.3428 147.197 35.1984 147.21 35.052C147.07 35.2992 146.897 35.5265 146.697 35.728C146.47 35.9406 146.305 36.2114 146.222 36.511C146.393 36.3388 146.59 36.195 146.807 36.085C147.237 35.8 147.541 35.3591 147.653 34.855M147.979 39.884C147.73 39.5401 147.453 39.2179 147.151 38.921C147.286 39.2362 147.403 39.5591 147.501 39.888L147.553 39.857C147.606 39.8315 147.664 39.8195 147.723 39.822C147.785 39.8259 147.847 39.8387 147.907 39.86C147.907 39.86 147.956 39.877 147.98 39.888M147.717 44.012C148.008 44.296 148.327 44.618 148.584 44.875C148.733 44.712 148.861 44.575 148.958 44.466L148.084 43.658L147.717 44.015M146.14 42.415C146.528 42.82 147.048 43.365 147.391 43.697L147.751 43.347L146.417 42.12C146.361 42.179 146.268 42.279 146.14 42.415ZM145.998 41.677C145.998 41.877 146.005 42.048 146.005 42.128C146.022 42.107 146.223 41.896 146.223 41.896C146.223 41.896 146.053 41.747 145.998 41.681M145.998 41.421C146.016 41.404 146.223 41.154 146.331 41.04C146.338 41.0353 146.345 41.0296 146.352 41.023C146.316 40.5738 146.203 40.1341 146.019 39.723C145.988 39.948 145.995 40.783 146.002 41.418M146.553 39.162C146.615 39.533 146.664 40.399 146.678 40.677C146.778 40.577 146.878 40.469 146.986 40.365C146.926 39.9388 146.777 39.53 146.549 39.165M145.956 38.794C146.053 38.7498 146.147 38.6987 146.237 38.641C146.406 38.5533 146.548 38.42 146.646 38.256C146.714 38.1237 146.736 37.9722 146.708 37.826C146.654 37.9716 146.562 38.0998 146.441 38.197C146.331 38.295 146.227 38.4002 146.132 38.512C146.062 38.5993 146.002 38.6935 145.952 38.793M145.64 36.329C145.64 35.709 144.964 35.636 144.805 35.022C144.729 35.885 145.328 35.899 145.64 36.329ZM146.011 37.74C146.072 37.6289 146.159 37.534 146.264 37.463C146.64 37.2384 146.995 36.9796 147.325 36.69C147.423 36.5421 147.495 36.3779 147.536 36.205C147.418 36.3713 147.264 36.5082 147.085 36.605C146.723 36.797 146.39 37.0398 146.097 37.326C146.052 37.3985 146.023 37.4802 146.014 37.565C146.006 37.5027 145.988 37.4419 145.962 37.385C145.775 36.985 145.21 36.827 144.862 36.439C144.64 36.186 144.633 36.082 144.633 36.082C144.611 36.2932 144.664 36.5054 144.782 36.682C145.003 36.9232 145.257 37.1319 145.537 37.302C145.725 37.4038 145.884 37.553 145.998 37.735M145.721 38.529C145.702 38.3981 145.654 38.2732 145.58 38.1634C145.506 38.0537 145.409 37.9619 145.295 37.895C145.351 38.1529 145.503 38.3797 145.721 38.529ZM145.537 41.029C145.527 40.651 145.509 40.242 145.482 40.065C145.362 40.2646 145.278 40.4841 145.236 40.713C145.267 40.744 145.51 40.997 145.536 41.028M143.484 40.009C143.592 39.971 143.851 39.85 143.997 39.815L144.105 39.794C144.186 39.4809 144.286 39.173 144.405 38.872C144.061 39.22 143.753 39.6009 143.484 40.009ZM144.592 40.071C144.592 40.071 144.792 40.271 144.834 40.31C144.915 39.8746 144.957 39.4329 144.959 38.99C144.768 39.3251 144.643 39.6933 144.591 40.075M144.615 34.775C144.607 34.6449 144.573 34.5177 144.515 34.401C144.416 34.2729 144.307 34.1534 144.189 34.044C144.15 34.0052 144.121 33.9575 144.106 33.905C144.098 34.0584 144.117 34.2119 144.162 34.359C144.199 34.4893 144.285 34.6006 144.401 34.671C144.467 34.7158 144.54 34.7517 144.616 34.778M144.346 41.283C144.304 41.321 141.546 43.917 141.546 43.917C141.723 44.097 141.906 44.291 142.035 44.417C142.09 44.472 142.122 44.469 142.167 44.427C142.34 44.271 145.123 41.72 145.359 41.512C145.383 41.488 145.387 41.463 145.366 41.443C145.238 41.308 144.954 40.982 144.739 40.753C144.486 40.486 144.164 40.147 143.959 40.209C143.786 40.2636 143.61 40.3077 143.432 40.341C143.004 40.4107 142.565 40.3823 142.15 40.258C142.13 40.2539 142.11 40.2482 142.091 40.241C142.084 40.31 142.077 40.376 142.067 40.435C142.057 40.494 142.046 40.553 142.032 40.622C142.416 40.6772 142.805 40.6957 143.193 40.677C143.412 40.677 143.547 40.75 143.36 40.965C143.36 40.965 141.537 42.784 141.433 42.892C141.048 43.252 141.027 43.339 141.138 43.46C141.166 43.495 141.155 43.47 141.259 43.581L142.004 42.919L143.193 41.862C143.193 41.862 144.056 41.062 144.093 41.013C144.108 40.9948 144.129 40.9831 144.152 40.9805C144.176 40.9779 144.199 40.9845 144.218 40.999C144.239 41.023 144.357 41.145 144.377 41.169C144.397 41.193 144.391 41.245 144.349 41.29M148.64 40.69C149.013 40.7027 149.387 40.6876 149.759 40.645C149.742 40.565 149.724 40.496 149.714 40.43C149.707 40.381 149.7 40.33 149.697 40.271C149.693 40.2706 149.69 40.2711 149.687 40.2723C149.684 40.2735 149.682 40.2755 149.68 40.278C149.265 40.401 148.828 40.4284 148.401 40.358C148.224 40.3252 148.049 40.2811 147.878 40.226C147.678 40.167 147.348 40.503 147.095 40.77C146.88 40.999 146.595 41.325 146.468 41.46C146.463 41.4643 146.459 41.4696 146.456 41.4756C146.453 41.4815 146.452 41.488 146.452 41.4945C146.452 41.501 146.453 41.5075 146.456 41.5134C146.459 41.5194 146.463 41.5247 146.468 41.529C146.7 41.737 149.487 44.288 149.66 44.444C149.702 44.486 149.736 44.489 149.792 44.434C149.92 44.306 150.1 44.112 150.281 43.928L147.481 41.294C147.439 41.252 147.433 41.194 147.453 41.176C147.473 41.158 147.592 41.03 147.612 41.006C147.631 40.9921 147.654 40.9861 147.678 40.9893C147.701 40.9925 147.722 41.0045 147.737 41.023C147.775 41.068 148.637 41.872 148.637 41.872L149.826 42.929L150.571 43.594C150.671 43.483 150.661 43.507 150.692 43.473C150.803 43.348 150.775 43.273 150.397 42.901C150.29 42.801 148.467 40.978 148.467 40.978C148.276 40.763 148.415 40.694 148.633 40.69M148.068 33.19C148.448 32.675 148.656 32.0525 148.661 31.412C148.79 31.5174 148.888 31.6555 148.945 31.812C149.378 30.9319 149.676 29.9913 149.829 29.022C150.009 29.102 149.85 29.06 150.058 29.164C150.397 28.2828 150.6 27.3546 150.658 26.412C150.727 26.433 150.845 26.433 150.894 26.492C150.988 25.83 151.085 24.773 151.116 24.031C151.171 23.1202 151.081 22.2064 150.849 21.324C150.652 20.6761 150.372 20.0562 150.017 19.48C149.926 19.5236 149.845 19.5864 149.781 19.664C149.66 19.3 149.327 18.42 149.164 18.098C148.748 17.291 148.551 16.771 148.121 16.498C148.291 16.5261 148.464 16.5402 148.637 16.54C148.416 16.2972 148.183 16.0669 147.937 15.85C148.037 15.777 148.225 15.784 148.523 15.836C148.097 15.448 147.955 14.855 146.859 14.443C147.061 14.4384 147.263 14.4464 147.465 14.467C147.22 14.1128 146.86 13.8545 146.446 13.736C145.323 13.514 143.777 13.48 143.053 14.336C142.922 14.4104 142.781 14.4653 142.634 14.499C142.559 14.5201 142.489 14.554 142.426 14.599C142.301 14.693 142.277 14.817 142.516 15.16C142.201 15.115 142.116 14.813 142.062 14.845C141.926 14.9318 141.813 15.0481 141.729 15.185C141.614 15.3756 141.555 15.5938 141.556 15.816C141.587 15.8418 141.624 15.8584 141.665 15.8639C141.705 15.8694 141.745 15.8635 141.782 15.847C141.819 15.8304 141.851 15.8038 141.873 15.7702C141.896 15.7366 141.908 15.6974 141.91 15.657C141.927 15.55 142.419 15.504 142.589 15.504C142.835 15.504 143.06 15.563 143.369 15.549C143.258 15.587 142.912 15.688 142.787 15.726C142.662 15.764 142.638 15.913 142.766 15.926C142.894 15.939 142.966 15.877 143.109 15.846C143.175 15.884 143.109 16.037 143.161 16.127C144.061 15.919 144.131 16.889 145.095 16.699C144.641 16.346 144.256 15.753 143.895 15.573C144.844 15.722 145.361 16.573 146.387 16.62C146.361 16.5533 146.32 16.462 146.262 16.346C146.612 16.346 146.862 16.616 146.962 16.606C146.727 16.7919 146.439 16.8996 146.14 16.914C146.209 17.042 146.594 17.07 146.722 17.094C146.599 17.202 146.451 17.2761 146.291 17.3089C146.131 17.3417 145.966 17.3321 145.811 17.281C145.519 17.6252 145.172 17.9191 144.785 18.151C144.792 18.0423 144.804 17.936 144.82 17.832C144.376 18.088 144.089 18.556 143.759 18.681C143.859 18.518 143.939 18.23 144.009 18.081C142.995 18.8966 142.094 19.8429 141.33 20.895C140.842 21.8724 140.65 22.9711 140.779 24.056C140.821 24.829 141.153 27.012 141.212 27.445C141.302 27.407 141.371 27.369 141.451 27.345C141.759 28.9364 142.277 30.4796 142.993 31.934C143.039 31.7961 143.128 31.6763 143.246 31.591C143.32 32.0612 143.55 32.493 143.898 32.818C143.9 32.622 143.95 32.4295 144.043 32.257C144.143 32.569 144.085 33.532 144.643 34.066C144.643 33.7783 144.69 33.4927 144.782 33.22C144.844 33.5621 144.932 33.899 145.045 34.228C145.164 34.5514 145.367 34.8372 145.634 35.056C145.616 34.7073 145.657 34.3581 145.755 34.023C146 34.4165 146.15 34.8615 146.195 35.323C146.756 34.89 146.975 33.472 146.975 33.476C147.111 33.628 147.208 33.8115 147.256 34.01C147.656 33.5203 147.925 32.9371 148.039 32.315C148.091 32.6068 148.099 32.905 148.06 33.199M138.96 27.065C139.658 28.2154 140.07 29.517 140.16 30.86C140.66 29.567 139.855 26.996 139.075 25.56C139.089 25.8158 139.016 26.0689 138.867 26.277C138.718 24.634 137.689 23.435 137.508 22.284C137.482 22.4533 137.444 22.6205 137.394 22.784C136.971 22.0512 136.657 21.261 136.462 20.438C136.334 20.641 136.269 20.8772 136.275 21.117C135.762 19.696 136.258 19.117 136.403 19.034C136.795 18.809 137.259 19.169 137.62 19.571C138.164 20.171 138.732 21.38 140.552 21.408C140.847 21.415 140.961 21.342 140.808 21.314C139.297 21.037 139.027 20.427 137.769 19.058C136.986 18.205 136.206 17.713 135.277 18.805C133.919 20.3295 132.988 22.1848 132.577 24.184C132.346 25.3289 132.318 26.5054 132.494 27.66C132.705 27.584 132.719 27.525 132.719 27.525C132.794 28.559 133.014 29.5775 133.371 30.551C133.558 30.0847 133.658 29.5876 133.665 29.085C133.534 29.2409 133.459 29.4357 133.451 29.6389C133.443 29.8421 133.502 30.0422 133.62 30.2079C133.738 30.3736 133.908 30.4955 134.102 30.5545C134.297 30.6136 134.506 30.6064 134.696 30.5341C134.886 30.4618 135.047 30.3286 135.153 30.1552C135.259 29.9817 135.305 29.778 135.283 29.5758C135.261 29.3737 135.172 29.1845 135.031 29.0379C134.89 28.8914 134.705 28.7958 134.504 28.766C134.666 29.2847 134.952 29.7558 135.339 30.138C135.623 29.1643 135.687 28.1395 135.526 27.138C135.647 27.7273 135.732 28.3234 135.782 28.923C135.897 29.0248 136.027 29.1087 136.167 29.172C136.233 28.972 136.43 28.68 136.098 26.178C136.933 28.885 136.469 29.619 136.389 29.817C136.163 29.6877 135.963 29.5159 135.803 29.311C135.839 29.8034 135.745 30.2966 135.533 30.742C135.238 30.5696 134.992 30.3249 134.819 30.031C134.846 30.4919 134.783 30.9537 134.632 31.39C134.304 31.0353 134.039 30.6275 133.849 30.184C133.83 30.697 133.693 31.1988 133.449 31.65C132.756 30.738 132.52 28.15 132.52 28.15C132.52 28.15 132.475 28.181 132.42 28.226C132.458 28.857 132.538 29.838 132.631 30.943V30.953C132.742 32.242 132.87 33.708 132.984 35.004C133.254 38.1093 133.599 41.2093 134.017 44.304C134.044 44.5695 134.092 44.8325 134.159 45.091C134.264 44.3528 134.285 43.605 134.222 42.862C134.366 42.4152 134.439 41.9485 134.44 41.479C134.44 41.101 134.003 36.332 133.861 34.461C133.844 34.229 133.816 33.726 133.816 33.723C133.83 33.7817 133.844 33.8483 133.858 33.923C134.004 34.63 134.115 35.344 134.222 36.054C134.284 36.477 134.35 36.931 134.413 37.392C134.621 38.7723 134.752 40.1631 134.805 41.558C134.794 42.0139 134.712 42.4653 134.562 42.896C134.711 43.8323 134.643 44.7905 134.362 45.696C134.281 45.6617 134.214 45.602 134.171 45.526C134.32 46.375 134.517 47.051 134.517 47.051C134.953 45.9852 135.112 44.8259 134.978 43.682C135.152 43.1819 135.26 42.6611 135.3 42.133C135.314 41.842 135.262 40.933 135.182 39.794C135.036 37.767 134.863 35.739 134.704 33.715C134.697 33.615 134.676 33.375 134.676 33.361C134.697 33.448 134.718 33.545 134.742 33.642C135.267 36.2623 135.579 38.9211 135.674 41.592C135.666 42.3618 135.542 43.1261 135.307 43.859C135.357 44.2183 135.371 44.5818 135.349 44.944C135.357 45.1836 135.336 45.4234 135.287 45.658C135.487 45.197 136.146 43.641 135.925 38.789C135.918 38.671 135.915 38.553 135.908 38.432C135.731 35.056 135.461 32.849 135.461 32.849C135.885 34.5996 136.143 36.3867 136.23 38.186C136.251 38.155 136.272 38.11 136.296 38.065C136.607 37.1822 136.722 36.2418 136.632 35.31C136.518 33.532 136.306 32.08 136.31 32.083C136.314 32.086 136.348 32.215 136.355 32.229C136.52 32.7661 136.653 33.3123 136.755 33.865C136.882 34.4942 136.97 35.1308 137.018 35.771C137.025 35.861 137.028 35.951 137.032 36.038C137.708 35.033 137.417 33.016 137.088 30.93C137.597 32.1876 137.831 33.5395 137.774 34.895C138.786 33.945 138.235 32.057 137.854 29.895C138.452 31.106 138.746 32.4447 138.71 33.795C139.531 32.728 139.227 31.314 138.488 28.544C139.087 29.6445 139.461 30.8534 139.588 32.1C140.125 30.845 139.505 28.759 138.971 27.071M140.028 36.834C140.187 36.574 139.952 36.505 139.484 36.796C138.825 37.1924 138.236 37.6948 137.741 38.283C137.623 38.446 137.661 38.536 137.869 38.325C138.361 37.825 139.103 37.15 139.089 37.472C139.078 37.7649 139.126 38.0571 139.231 38.331C139.311 38.314 139.383 38.296 139.453 38.276L140.094 38.106C139.99 37.9111 139.931 37.6958 139.92 37.4754C139.91 37.255 139.948 37.035 140.032 36.831M139.724 40.193C139.438 40.4535 139.266 40.8159 139.246 41.202C139.256 41.496 139.43 41.656 139.669 41.646C140.043 41.604 139.853 41.209 140.069 41.455C140.156 41.555 140.436 41.23 140.513 41.155C140.354 41.179 140.113 41.207 140.159 40.971C140.207 40.7982 140.299 40.6406 140.426 40.513C140.526 40.392 140.832 39.813 141.026 39.882C141.12 39.951 141.064 40.495 140.905 40.828C140.569 41.542 140.517 42.01 140.749 42.148L140.766 42.162V42.183C140.726 42.3131 140.731 42.453 140.78 42.58C140.829 42.707 140.919 42.8137 141.037 42.883L141.065 42.855C141.016 42.6855 141.022 42.505 141.082 42.339C141.082 42.311 141.103 42.232 140.898 42.176L140.881 42.169L140.895 42.162C141.005 42.173 141.117 42.1753 141.228 42.169C141.367 42.148 141.523 42.124 141.554 41.854C141.564 41.764 141.575 41.674 141.582 41.584C141.627 41.178 141.7 40.811 141.759 40.527C141.828 40.205 141.911 39.418 141.911 39.418C141.961 39.4033 142.014 39.3963 142.067 39.397C142.135 39.4013 142.201 39.4266 142.254 39.4693C142.308 39.512 142.347 39.5702 142.367 39.636C142.395 39.7222 142.399 39.8148 142.377 39.903C142.433 39.879 142.482 39.8403 142.519 39.7909C142.556 39.7415 142.578 39.6831 142.585 39.622V39.605L142.599 39.598C142.649 39.569 142.692 39.5289 142.724 39.481C142.756 39.433 142.777 39.3783 142.786 39.321C142.828 39.037 142.502 38.753 142.474 38.728C142.28 38.572 142.342 38.281 142.429 38.035L142.54 37.735C142.647 37.8674 142.777 37.979 142.925 38.064C143.188 38.2531 143.51 38.3395 143.833 38.307C143.763 38.1221 143.717 37.9288 143.698 37.732C143.67 37.4753 143.66 37.2171 143.667 36.959L144.014 37.33C144.155 36.6822 144.18 36.0145 144.087 35.358C144.03 34.5721 143.848 33.8002 143.55 33.071C143.471 32.8399 143.373 32.616 143.256 32.402C143.21 32.5584 143.114 32.695 142.982 32.79C142.589 32.3287 142.277 31.8052 142.057 31.241C141.981 31.374 141.884 31.4933 141.769 31.594L141.714 31.646L141.704 31.573C141.628 31.2431 141.469 30.9379 141.243 30.686C141.102 30.5212 140.987 30.3352 140.904 30.135C140.803 30.5274 140.747 30.93 140.737 31.335C140.738 31.6551 140.689 31.9733 140.591 32.278C140.664 32.236 140.723 32.202 140.771 32.171C140.858 32.116 140.899 32.091 140.937 32.091L140.965 32.098L140.975 32.108C140.983 32.1276 140.988 32.1486 140.989 32.17C140.878 32.6476 140.797 33.1315 140.746 33.619C140.712 34.0154 140.725 34.4145 140.784 34.808C140.819 34.773 141.172 34.586 141.172 34.586C141.016 35.2371 140.979 35.9107 141.061 36.575C141.075 36.8016 141.067 37.029 141.037 37.254C141.231 37.22 141.416 37.1469 141.581 37.039C141.527 37.2981 141.442 37.5496 141.328 37.788C140.93 38.1534 140.426 38.3828 139.89 38.443C139.294 38.5655 138.713 38.7512 138.157 38.997C137.973 39.087 137.8 39.274 137.842 39.409C137.884 39.544 138.095 39.586 138.171 39.586L138.216 39.676C138.351 39.876 138.777 39.756 138.885 39.704C138.974 39.6661 139.055 39.6095 139.121 39.538C139.1 39.573 138.958 39.521 138.868 39.483C138.852 39.477 138.838 39.4672 138.827 39.4544C138.816 39.4417 138.809 39.4264 138.806 39.41C138.778 39.16 139.835 39.126 139.984 39.129C140.133 39.132 140.203 39.164 140.265 39.271C140.303 39.337 140.355 39.489 139.731 40.179M140.237 43.846C139.943 44.7449 139.518 45.5952 138.975 46.369C138.735 46.698 138.471 47.0085 138.185 47.298C138.185 47.298 138.161 47.381 138.133 47.513L138.033 47.568L138.56 47.277C138.643 47.235 138.733 47.19 138.82 47.145C139.167 46.958 139.551 46.781 139.936 46.618C140.314 45.939 140.764 45.131 140.906 44.918C140.782 45.4428 140.602 45.9527 140.369 46.439L140.657 46.325C141.257 46.089 141.776 45.902 142.026 45.781C142.301 45.6579 142.559 45.5006 142.795 45.313C142.83 45.289 142.885 45.233 142.965 45.16L142.539 44.73L142.393 44.851C142.33 44.9154 142.246 44.954 142.157 44.9592C142.068 44.9644 141.98 44.9357 141.911 44.879C141.717 44.702 140.833 43.722 140.757 43.631C140.681 43.54 140.57 43.357 140.774 43.045C140.779 43.0397 140.783 43.034 140.788 43.028C140.686 42.9301 140.605 42.8121 140.552 42.6814C140.498 42.5507 140.472 42.4102 140.476 42.269C140.41 42.1854 140.363 42.0884 140.338 41.9847C140.314 41.8811 140.312 41.7733 140.334 41.669C140.255 41.7211 140.161 41.7454 140.067 41.738C139.97 41.8396 139.839 41.9013 139.7 41.911H139.644C139.499 41.9188 139.357 41.8733 139.244 41.783C139.143 41.7174 139.067 41.6198 139.029 41.506C139.022 41.496 139.019 41.482 139.012 41.471C138.384 42.1815 137.828 42.9519 137.352 43.771C136.843 44.4987 136.432 45.2897 136.129 46.124C136.684 46.093 136.996 46.006 137.72 45.247C138.056 44.893 138.937 43.59 139.491 42.894C139.13 43.8136 138.66 44.6865 138.091 45.494C137.8 45.8933 137.466 46.2595 137.096 46.586C137.096 46.586 136.885 46.718 136.753 47.4C137.699 47.1035 138.504 46.4729 139.02 45.626C139.308 45.238 139.495 44.933 140.22 43.838M146.261 48.201C146.316 48.7578 146.56 49.2789 146.954 49.677C147.129 49.3989 147.234 49.0826 147.262 48.755C146.911 48.6043 146.575 48.4187 146.261 48.201ZM150.088 48.991C151.709 49.1787 153.35 49.0942 154.943 48.741C153.638 47.8441 152.23 47.1087 150.749 46.551C150.221 46.3591 149.714 46.1152 149.235 45.823C148.992 45.6538 148.761 45.4673 148.545 45.265C147.779 44.565 145.772 42.465 145.415 42.08L144.081 43.31C145.477 44.7072 146.955 46.0208 148.507 47.244C149.929 47.8235 151.4 48.2769 152.902 48.599C151.401 48.4733 149.924 48.1516 148.507 47.642C147.363 47.181 143.749 43.615 143.749 43.615L142.876 44.422C143.793 45.4566 144.793 46.4141 145.867 47.285C147.08 48.2515 148.548 48.8439 150.092 48.99M152.598 42.949C153.152 43.649 154.033 44.949 154.369 45.302C155.097 46.061 155.405 46.144 155.96 46.179C155.662 45.3397 155.254 44.5437 154.747 43.812C154.162 42.8599 153.508 41.9527 152.789 41.098C152.79 41.2292 152.773 41.3598 152.737 41.486L152.695 41.569C152.644 41.6561 152.576 41.7317 152.495 41.791C152.369 41.8736 152.219 41.9126 152.069 41.902C151.928 41.8918 151.796 41.8302 151.698 41.729C151.603 41.7364 151.509 41.7121 151.431 41.66C151.452 41.7643 151.45 41.872 151.425 41.9755C151.401 42.0791 151.354 42.1761 151.289 42.26C151.291 42.3967 151.267 42.5326 151.217 42.66C151.167 42.7873 151.093 42.9035 150.998 43.002C151.022 43.037 151.04 43.057 151.04 43.057C151.224 43.383 151.14 43.542 151.057 43.646C150.974 43.75 150.1 44.713 149.903 44.89C149.833 44.9465 149.744 44.975 149.655 44.9698C149.565 44.9646 149.48 44.9262 149.418 44.862L149.272 44.741L148.866 45.147C148.883 45.161 148.897 45.175 148.915 45.189C149.207 45.4465 149.541 45.6527 149.903 45.799C150.222 45.934 151.158 46.281 151.785 46.541C151.636 46.077 151.459 45.546 151.279 45.026C151.438 45.248 151.893 46.048 152.279 46.755C152.251 46.745 152.327 46.779 152.303 46.765C152.878 47.0244 153.437 47.3159 153.98 47.638C153.942 47.461 153.904 47.343 153.904 47.343C153.623 47.0492 153.362 46.7379 153.121 46.411C152.581 45.6356 152.157 44.7857 151.863 43.888C152.587 44.988 152.774 45.288 153.063 45.68C153.581 46.5251 154.387 47.1549 155.333 47.454C155.201 46.768 154.959 46.619 154.959 46.619C154.61 46.3079 154.295 45.9606 154.02 45.583C154.134 45.739 154.245 45.883 153.996 45.548C153.809 45.292 153.882 45.392 153.982 45.527C153.42 44.724 152.954 43.8573 152.596 42.945M151.73 38.11L152.312 38.263C152.399 38.287 152.492 38.312 152.593 38.332C152.692 38.0603 152.738 37.7721 152.728 37.483C152.714 37.161 153.456 37.843 153.948 38.336C154.156 38.544 154.194 38.454 154.076 38.294C153.581 37.7048 152.992 37.2022 152.333 36.807C151.862 36.516 151.626 36.585 151.789 36.845C151.873 37.047 151.912 37.2654 151.902 37.4842C151.892 37.703 151.833 37.9167 151.73 38.11ZM150.83 32.187C150.828 32.1753 150.829 32.1635 150.832 32.1521C150.835 32.1408 150.84 32.1302 150.848 32.121C150.848 32.121 150.858 32.111 150.865 32.111L150.889 32.104C150.95 32.1188 151.008 32.146 151.059 32.184C151.107 32.215 151.166 32.25 151.236 32.291C151.138 31.9863 151.088 31.668 151.09 31.348C151.085 30.9517 151.034 30.5574 150.938 30.173C150.926 30.1571 150.916 30.1396 150.91 30.121C150.826 30.3215 150.711 30.5075 150.57 30.672C150.344 30.9236 150.186 31.229 150.112 31.559L150.102 31.632L150.05 31.58C149.96 31.4574 149.864 31.3396 149.763 31.227C149.415 31.9678 148.964 32.6551 148.422 33.268C148.087 33.8698 147.9 34.542 147.875 35.23C147.788 35.9226 147.788 36.6233 147.875 37.316L148.218 36.945C148.224 37.203 148.215 37.4611 148.19 37.718C148.168 37.9144 148.123 38.1075 148.055 38.293C148.282 38.3131 148.512 38.2757 148.721 38.1843C148.931 38.093 149.114 37.9505 149.255 37.77L149.349 38.02C149.436 38.266 149.501 38.557 149.304 38.713C149.276 38.737 148.947 39.021 148.989 39.306C148.999 39.363 149.022 39.4171 149.055 39.4649C149.087 39.5126 149.13 39.5528 149.18 39.583L149.19 39.59V39.607C149.197 39.6682 149.221 39.7263 149.258 39.7756C149.295 39.8249 149.344 39.8637 149.401 39.888C149.376 39.8003 149.379 39.7073 149.408 39.621C149.427 39.5552 149.466 39.4971 149.52 39.4543C149.574 39.4116 149.639 39.3863 149.708 39.382C149.76 39.3813 149.813 39.3883 149.864 39.403C149.864 39.403 149.947 40.186 150.013 40.512C150.09 40.8609 150.149 41.2138 150.19 41.569C150.197 41.659 150.207 41.749 150.218 41.839C150.218 41.8813 150.226 41.9232 150.243 41.9621C150.259 42.0011 150.283 42.0363 150.314 42.0657C150.344 42.0951 150.38 42.1181 150.42 42.1332C150.459 42.1484 150.501 42.1555 150.544 42.154C150.655 42.1603 150.766 42.158 150.877 42.147L150.891 42.154L150.87 42.161C150.67 42.216 150.683 42.296 150.686 42.324C150.745 42.4898 150.753 42.6699 150.707 42.84L150.735 42.868C150.852 42.7984 150.942 42.6918 150.992 42.565C151.041 42.4383 151.047 42.2985 151.009 42.168V42.147L151.023 42.133C151.259 41.998 151.2 41.533 150.867 40.813C150.711 40.477 150.645 39.919 150.746 39.867C150.753 39.867 150.76 39.86 150.767 39.86C150.819 39.85 150.885 39.86 151.044 40.089C151.155 40.248 151.262 40.384 151.401 40.56C151.524 40.6814 151.603 40.8417 151.623 41.014C151.624 41.0338 151.62 41.0535 151.613 41.072C151.606 41.0904 151.595 41.1072 151.581 41.121C151.551 41.1404 151.516 41.1512 151.481 41.152C151.408 41.1561 151.334 41.1514 151.263 41.138C151.339 41.214 151.62 41.538 151.707 41.438C151.918 41.192 151.728 41.587 152.098 41.629C152.156 41.6332 152.215 41.6244 152.27 41.6033C152.325 41.5822 152.374 41.5493 152.415 41.507C152.455 41.4646 152.486 41.4137 152.505 41.3581C152.524 41.3025 152.53 41.2434 152.524 41.185C152.522 41.0977 152.512 41.0107 152.496 40.925C152.432 40.6777 152.306 40.451 152.129 40.267L152.049 40.18C151.425 39.49 151.477 39.338 151.515 39.272C151.578 39.165 151.633 39.133 151.796 39.13C151.972 39.1271 152.148 39.1375 152.323 39.161C152.576 39.209 152.992 39.275 152.978 39.407C152.974 39.4238 152.966 39.4394 152.954 39.4522C152.943 39.465 152.928 39.4745 152.912 39.48C152.825 39.518 152.68 39.57 152.659 39.535C152.725 39.6063 152.805 39.6628 152.895 39.701C152.995 39.75 153.429 39.871 153.564 39.673L153.609 39.583C153.685 39.583 153.897 39.548 153.938 39.406C153.979 39.264 153.803 39.084 153.623 38.994C153.32 38.8591 153.01 38.7422 152.694 38.644C152.555 38.602 152.378 38.571 152.243 38.53L151.491 38.33C151.473 38.33 151.079 38.198 150.933 38.13C150.86 38.095 150.802 38.071 150.77 38.054C150.643 37.9895 150.534 37.8956 150.451 37.78C150.336 37.5396 150.251 37.2861 150.198 37.025C150.379 37.146 150.583 37.2287 150.798 37.268C150.767 37.043 150.759 36.8156 150.774 36.589C150.892 35.348 150.916 34.631 150.916 34.631C150.916 34.631 151.131 34.853 151.166 34.887C151.172 34.4672 151.145 34.0476 151.086 33.632V33.618C151.033 33.1343 150.952 32.6541 150.843 32.18M153.952 22.469C154.055 21.9966 154.071 21.5094 154.001 21.031C153.849 20.2085 153.399 19.471 152.737 18.9605C152.074 18.4499 151.246 18.2023 150.412 18.2653C149.579 18.3283 148.797 18.6974 148.219 19.3016C147.641 19.9058 147.306 20.7025 147.28 21.5385C147.254 22.3744 147.538 23.1904 148.077 23.8297C148.616 24.469 149.373 24.8863 150.201 25.0014C151.03 25.1165 151.871 24.9213 152.564 24.4532C153.257 23.9852 153.753 23.2774 153.956 22.466M152.774 25.01C153.094 24.0833 153.273 23.1139 153.305 22.134C152.872 23.0275 152.689 24.021 152.774 25.01ZM151.674 23.939C152.107 22.646 151.743 21.995 151.494 21.86C151.484 22.46 151.643 22.733 151.674 23.939ZM151.418 29.55C151.557 27.7031 151.89 25.8759 152.409 24.098C151.05 25.578 151.245 29.016 151.418 29.55ZM157.518 28.701C157.423 29.3081 157.451 29.928 157.601 30.524C157.946 30.0746 158.202 29.5625 158.353 29.016C158.357 29.5189 158.457 30.0163 158.647 30.482C159.003 29.5098 159.223 28.4927 159.299 27.46C159.299 27.46 159.313 27.519 159.524 27.592C159.697 26.4372 159.669 25.2611 159.441 24.116C159.028 22.1184 158.097 20.2647 156.741 18.741C155.816 17.649 155.032 18.141 154.253 18.994C152.991 20.366 152.721 20.973 151.214 21.25H151.207C151.058 21.278 151.169 21.35 151.463 21.344C153.283 21.316 153.851 20.11 154.395 19.507C154.755 19.107 155.223 18.745 155.611 18.97C155.757 19.057 156.252 19.635 155.739 21.053C155.743 20.8134 155.678 20.5777 155.552 20.374C155.355 21.1963 155.04 21.9856 154.616 22.717C154.566 22.5531 154.528 22.3861 154.502 22.217C154.322 23.368 153.293 24.563 153.143 26.206C152.993 25.9981 152.919 25.7448 152.935 25.489C152.159 26.924 151.351 29.495 151.85 30.789C151.938 29.4441 152.349 28.1405 153.05 26.989C152.516 28.673 151.896 30.763 152.433 32.018C152.559 30.7703 152.933 29.5603 153.533 28.459C152.798 31.228 152.49 32.642 153.311 33.71C153.274 32.3597 153.568 31.0209 154.167 29.81C153.786 31.973 153.238 33.861 154.247 34.81C154.191 33.4546 154.425 32.103 154.933 30.845C154.6 32.931 154.313 34.945 154.989 35.953C155.008 35.2212 155.101 34.4933 155.266 33.78C155.443 32.865 155.713 31.992 155.713 31.992C155.713 31.992 155.501 33.451 155.387 35.229C155.366 35.527 155.359 35.825 155.366 36.123C155.368 36.4882 155.405 36.8524 155.474 37.211C155.525 37.5254 155.631 37.8281 155.789 38.105C155.875 36.3054 156.134 34.5182 156.562 32.768C156.562 32.768 156.292 34.976 156.115 38.351C156.108 38.472 156.101 38.594 156.094 38.708C155.872 43.56 156.531 45.116 156.735 45.577C156.682 45.3429 156.661 45.1027 156.673 44.863C156.648 44.501 156.661 44.1374 156.711 43.778C156.472 43.0459 156.348 42.2811 156.344 41.511C156.382 40.79 156.431 40.073 156.493 39.373C156.545 38.735 156.607 38.112 156.673 37.515C156.749 36.971 156.798 36.451 156.873 35.896C156.98 35.113 157.133 34.333 157.273 33.557C157.384 32.94 157.321 33.481 157.314 33.63C157.255 34.33 157.13 35.858 157.006 37.43C156.923 38.605 156.659 40.93 156.715 42.05C156.756 42.5778 156.864 43.0983 157.037 43.599C156.903 44.7432 157.063 45.9025 157.501 46.968C157.501 46.968 157.695 46.296 157.848 45.443C157.806 45.5203 157.738 45.5805 157.657 45.613C157.375 44.7076 157.307 43.7493 157.457 42.813C157.309 42.3807 157.227 41.9286 157.214 41.472C157.276 40.0774 157.41 38.687 157.614 37.306C157.673 36.845 157.739 36.394 157.801 35.968C157.843 35.694 157.881 35.42 157.929 35.147C157.991 34.71 158.071 34.27 158.165 33.837C158.179 33.764 158.193 33.698 158.207 33.637C158.207 33.637 158.193 33.956 158.162 34.379C158.01 36.247 157.587 41.016 157.58 41.397C157.58 41.8669 157.655 42.3337 157.802 42.78C157.738 43.5227 157.759 44.2701 157.865 45.008C157.931 44.7495 157.978 44.4864 158.007 44.221C158.007 44.221 158.274 42.287 158.579 39.532C158.624 39.106 158.669 38.683 158.718 38.26C158.759 37.86 158.801 37.451 158.843 37.033C158.888 36.544 158.943 36.052 158.982 35.56C159.003 35.349 159.02 35.137 159.037 34.922C159.151 33.622 159.283 32.163 159.391 30.874C159.391 30.874 159.564 28.774 159.602 28.143C159.543 28.098 159.502 28.067 159.502 28.067C159.502 28.067 159.266 30.656 158.573 31.567C158.328 31.1159 158.191 30.614 158.173 30.101C157.982 30.5445 157.717 30.9523 157.39 31.307C157.239 30.8697 157.175 30.4069 157.203 29.945C157.03 30.2398 156.784 30.4848 156.489 30.656C156.277 30.2112 156.184 29.7193 156.219 29.228C156.057 29.4307 155.858 29.6004 155.633 29.728C155.55 29.528 155.085 28.796 155.924 26.089C155.591 28.589 155.789 28.879 155.855 29.083C155.994 29.0186 156.124 28.9344 156.24 28.833C156.29 28.2335 156.376 27.6376 156.496 27.048C156.332 28.0494 156.396 29.0747 156.683 30.048C157.071 29.6664 157.359 29.1952 157.522 28.676M163.022 11.444C162.154 11.6428 161.263 11.7269 160.374 11.694C159.954 12.5005 159.754 13.4028 159.792 14.311C159.372 14.2168 158.99 14.0011 158.692 13.691C158.314 14.191 158.103 14.471 157.708 14.991C159.988 19.1321 161.201 23.7765 161.236 28.504C162.913 27.5611 164.502 26.4673 165.981 25.236C165.658 19.511 164.775 15.189 163.025 11.446M164.006 46.131C162.85 48.4695 161.045 50.425 158.806 51.763C155.527 53.842 152.106 53.343 150.998 52.699C150.998 52.699 151.088 52.917 151.119 52.99C151.15 53.063 151.199 53.19 151.227 53.257C151.667 54.442 151.369 55.669 149.764 55.857C149.265 55.8758 148.773 55.9863 148.315 56.183C147.826 56.4252 147.386 56.7538 147.015 57.153C146.696 57.5043 146.421 57.8932 146.197 58.311C145.972 57.8928 145.696 57.5038 145.376 57.153C145.005 56.7528 144.565 56.4241 144.076 56.183C143.615 55.988 143.123 55.8775 142.624 55.857C141.024 55.673 140.724 54.443 141.165 53.257C141.193 53.191 141.238 53.07 141.265 52.997L141.383 52.706C139.736 53.3811 137.903 53.4519 136.209 52.906C136.153 52.889 136.036 52.861 135.98 52.847C134.115 52.3584 132.404 51.4059 131.007 50.078C129.798 48.9214 128.787 47.5737 128.016 46.089C124.9 39.639 125.337 30.074 125.323 29.052C125.223 18.007 127.666 11.81 129.766 8.81598C129.132 7.98398 128.747 7.47799 128.719 7.44699C128.37 7.081 127.902 6.85127 127.399 6.79898C127.224 5.72841 126.975 4.67122 126.654 3.63498C127.536 4.26057 128.473 4.80449 129.454 5.25998C129.353 5.75619 129.45 6.27192 129.724 6.698C129.748 6.736 130.053 7.13801 130.556 7.80701C131.51 6.61866 132.692 5.63271 134.032 4.90698C134.406 4.69565 134.808 4.49134 135.238 4.29401C135.22 4.0123 135.261 3.7299 135.358 3.4649C135.455 3.19991 135.607 2.95815 135.803 2.755C135.824 2.5629 135.894 2.37949 136.007 2.22278C136.12 2.06607 136.272 1.94141 136.448 1.86099C136.652 1.82633 136.862 1.83694 137.062 1.89206C137.261 1.94718 137.447 2.04546 137.605 2.17999C138.209 2.27134 138.762 2.57178 139.168 3.02899C140.618 2.72726 142.089 2.53372 143.568 2.44998C143.655 2.0797 143.823 1.73339 144.06 1.4361C144.297 1.1388 144.598 0.897968 144.94 0.730988C145.049 0.53371 145.203 0.36483 145.39 0.237885C145.576 0.110939 145.79 0.0294735 146.014 0H146.021C146.245 0.0288597 146.458 0.110082 146.645 0.237091C146.832 0.3641 146.986 0.533305 147.095 0.730988C147.436 0.897852 147.737 1.13866 147.974 1.43597C148.212 1.73329 148.38 2.07965 148.467 2.44998C149.946 2.53377 151.416 2.72732 152.867 3.02899C153.272 2.57104 153.825 2.27044 154.43 2.17999C154.587 2.04505 154.773 1.94629 154.972 1.89066C155.172 1.83502 155.382 1.82388 155.587 1.858C155.764 1.93877 155.916 2.06425 156.03 2.22208C156.144 2.3799 156.214 2.56461 156.235 2.758C156.429 2.96215 156.58 3.20411 156.677 3.46884C156.774 3.73358 156.816 4.01545 156.8 4.297C157.229 4.491 157.632 4.697 158.006 4.91C159.353 5.67263 160.553 6.6688 161.552 7.85199C162.11 7.11699 162.443 6.66999 162.47 6.63199C162.743 6.20591 162.84 5.69021 162.74 5.194C163.721 4.73943 164.658 4.19547 165.54 3.569C165.221 4.60711 164.972 5.6655 164.795 6.737C164.292 6.79013 163.824 7.0197 163.475 7.38498C163.447 7.41298 163.004 7.99099 162.293 8.93399C164.383 11.949 166.793 18.094 166.693 29.066C166.707 29.943 167.123 39.699 164.004 46.149M139.373 8.52899C139.573 8.61599 139.72 8.68499 139.935 8.77499C140.087 8.59099 140.153 8.508 140.327 8.314C140.112 8.22 139.97 8.151 139.745 8.064C139.613 8.21 139.471 8.40399 139.378 8.52798M150.129 6.483C150.02 6.54986 149.932 6.64445 149.873 6.75699C149.949 6.87499 150.102 6.923 150.334 6.957L150.459 6.96698C150.567 6.71698 150.338 6.40599 150.13 6.48199M154.888 7.76401C154.777 8.0336 154.612 8.27759 154.403 8.48099C153.232 8.06891 152.024 7.77643 150.795 7.608C150.51 7.96634 150.132 8.23958 149.703 8.39798C149.204 8.33181 148.718 8.19161 148.261 7.98199C148.42 7.9933 148.579 7.99664 148.739 7.992C149.284 7.97888 149.816 7.82228 150.281 7.53799C149.418 7.40599 149.217 7.171 149.633 6.62C149.823 6.374 150.139 5.91999 150.596 6.03799C150.953 6.12799 151.043 6.638 151.002 7.026C152.116 7.18877 153.213 7.45662 154.277 7.82599C154.343 7.54499 154.163 7.407 154.045 7.202C154.209 7.03288 154.391 6.88077 154.586 6.74799C154.721 6.87402 154.821 7.0341 154.873 7.21155C154.926 7.389 154.93 7.57734 154.886 7.75699M150.935 8.22098C151.081 8.36698 151.188 8.478 151.347 8.633C151.565 8.515 151.666 8.45598 151.908 8.33298C151.749 8.17698 151.648 8.063 151.475 7.91C151.291 8 151.075 8.13499 150.934 8.21799M155.36 8.00699C155.169 8.45399 155.003 8.90101 154.781 9.30701C154.912 9.35901 155.093 9.248 155.218 9.172C155.802 8.65472 156.23 7.98504 156.455 7.23801C156.274 7.26333 156.098 7.31346 155.932 7.38699C155.589 7.54299 155.526 7.63299 155.367 8.00699M155.634 7.13C156.109 7.092 156.542 7.20601 156.746 6.98801C156.489 6.94862 156.247 6.84085 156.046 6.67599C156.174 6.57599 156.346 6.71398 156.446 6.78998C156.512 6.72798 156.546 6.69998 156.623 6.63098C156.556 6.578 156.478 6.53979 156.395 6.51883C156.313 6.49787 156.226 6.49464 156.142 6.50937C156.058 6.5241 155.978 6.55643 155.907 6.60428C155.836 6.65212 155.777 6.71439 155.732 6.78699C155.828 6.82385 155.918 6.87511 155.999 6.939C155.869 6.98725 155.746 7.05142 155.632 7.13M137.991 8.90799C137.852 8.86299 137.728 8.825 137.565 8.78C137.455 8.94081 137.355 9.10775 137.265 9.28C137.473 9.346 137.629 9.39798 137.858 9.46698C137.945 9.32798 138 9.238 138.076 9.12C138.211 9.16199 138.336 9.20298 138.495 9.25198C138.62 9.05798 138.675 8.96098 138.817 8.75198C138.588 8.68298 138.439 8.627 138.204 8.565C138.131 8.665 138.058 8.79399 137.993 8.90799M147.943 6.323C147.643 5.834 146.543 6.27498 145.836 6.56598C146.245 6.56598 146.592 6.54899 147.025 6.55899C147.198 6.55899 147.659 6.56599 147.964 6.57599C147.982 6.53586 147.989 6.49165 147.985 6.44778C147.981 6.40392 147.965 6.36192 147.94 6.32599M148.44 7.22598C145.305 7.09217 142.166 7.34374 139.093 7.97501C138.979 7.68658 138.829 7.414 138.646 7.164C138.036 6.509 137.787 7.21898 137.783 7.30298C138.552 7.34498 138.683 7.74298 138.683 7.74298C138.513 8.05553 138.255 8.31118 137.941 8.478C137.55 8.73781 137.101 8.89499 136.634 8.935C135.189 9.004 135.584 7.50399 136.457 6.88699C136.342 7.02199 135.826 7.809 136.149 8.211C136.509 8.662 137.844 8.29401 138.166 7.88901C138.023 7.796 137.862 7.73273 137.694 7.703C137.526 7.67328 137.354 7.67771 137.188 7.716C137.222 7.43378 137.313 7.16135 137.455 6.91486C137.596 6.66837 137.786 6.45284 138.013 6.28101C138.272 6.36614 138.511 6.50191 138.717 6.68045C138.923 6.85899 139.092 7.07673 139.213 7.32098C141.241 6.90455 143.301 6.6587 145.371 6.586C145.326 6.222 145.198 4.83898 145.191 4.75598C145.17 4.52698 145.323 4.42698 145.468 4.33298C145.535 4.46442 145.629 4.58043 145.743 4.67358C145.858 4.76673 145.99 4.83498 146.133 4.87399C146.004 5.01092 145.86 5.13179 145.703 5.23398C145.727 5.51098 145.752 6.01399 145.759 6.21799C146.212 6.01311 146.683 5.84946 147.166 5.729C147.374 5.67682 147.589 5.6569 147.804 5.66998C148.008 5.69778 148.202 5.77923 148.365 5.90601C148.431 5.96037 148.486 6.02781 148.525 6.10419C148.565 6.18057 148.588 6.26426 148.594 6.35001C148.593 6.6479 148.54 6.94339 148.438 7.22299M144.4 14.342C144.362 14.321 144.092 14.321 144.06 14.38C144.028 14.439 144.223 14.522 144.289 14.543C144.313 14.5489 144.339 14.5459 144.362 14.5346C144.385 14.5233 144.403 14.5043 144.414 14.481C144.442 14.426 144.438 14.363 144.4 14.342ZM144.556 14.335C144.6 14.4351 144.613 14.5463 144.594 14.654C144.587 14.7662 144.542 14.8728 144.466 14.956C144.391 15.0391 144.289 15.0938 144.178 15.111C144.104 15.1322 144.027 15.1367 143.951 15.1242C143.876 15.1117 143.804 15.0824 143.741 15.0386C143.678 14.9948 143.626 14.9376 143.588 14.871C143.551 14.8045 143.528 14.7303 143.523 14.654C143.523 14.5608 143.543 14.4688 143.582 14.384C143.475 14.394 143.471 14.467 143.371 14.599C143.309 14.675 143.208 14.668 143.063 14.765C143.085 14.6364 143.137 14.515 143.216 14.4106C143.294 14.3063 143.396 14.2221 143.514 14.165C144.329 13.9585 145.19 14.0431 145.95 14.404C145.666 14.3677 145.38 14.3516 145.094 14.356C144.744 14.335 144.553 14.339 144.553 14.339M147.658 4.83899C147.474 4.70399 147.353 4.60701 147.158 4.47501C146.988 4.58901 146.798 4.749 146.673 4.849C146.843 4.977 146.968 5.07399 147.151 5.20599C147.351 5.05999 147.44 4.99099 147.658 4.83899ZM142.59 14.768C142.538 14.799 142.49 14.968 142.677 14.968C142.836 14.975 142.864 14.798 142.864 14.798C142.864 14.798 142.664 14.718 142.587 14.767M147.824 16.205C147.735 16.0397 147.609 15.8977 147.456 15.7904C147.302 15.6832 147.125 15.6138 146.94 15.588C147.07 15.7426 147.175 15.9167 147.252 16.104C147.082 16.1585 146.906 16.1944 146.729 16.211C146.899 16.297 147.088 16.3412 147.279 16.34C147.471 16.3387 147.659 16.2921 147.829 16.204M146.629 15.189C146.365 14.8815 146.002 14.6756 145.603 14.607C145.709 14.7841 145.859 14.9308 146.039 15.0327C146.219 15.1347 146.422 15.1885 146.629 15.189ZM146.329 14.614C146.509 14.798 147.088 15.044 147.414 15.342C147.369 14.842 146.936 14.58 146.329 14.614ZM146.1 21.714C145.914 22.0189 145.816 22.369 145.816 22.726C145.816 23.083 145.914 23.4331 146.1 23.738C146.1 23.731 146.558 22.355 146.1 21.714ZM147.209 25.665C147.735 25.0783 148.026 24.3181 148.027 23.53C147.789 23.9411 147.491 24.314 147.143 24.636C146.871 24.445 146.627 24.219 146.415 23.964C146.48 24.6052 146.762 25.2049 147.215 25.664M146.321 19.516C146.152 19.6549 146.037 19.8481 145.995 20.0624C145.954 20.2768 145.988 20.4989 146.092 20.691C146.092 20.681 146.816 19.911 146.321 19.516ZM147.167 17.116C147.358 17.31 147.978 17.456 148.321 17.778C148.305 17.6496 148.26 17.5266 148.189 17.4188C148.118 17.311 148.022 17.2214 147.91 17.157C147.798 17.0927 147.672 17.0555 147.543 17.0484C147.414 17.0412 147.285 17.0644 147.167 17.116ZM148.089 18.693C148.112 18.4147 148.025 18.1384 147.845 17.9242C147.666 17.71 147.41 17.5751 147.132 17.549C147.076 17.986 147.818 18.249 148.089 18.693ZM147.753 19.878C147.361 20.301 147.729 21.143 147.953 21.899C148.161 21.528 148.411 20.281 147.753 19.878ZM149.829 21.805C149.753 22.3364 149.519 22.8327 149.157 23.229C148.912 23.0236 148.69 22.7922 148.495 22.539C148.547 23.1428 148.786 23.7153 149.178 24.178C149.474 23.8668 149.688 23.4872 149.802 23.0729C149.915 22.6586 149.925 22.2227 149.829 21.804M148.729 18.231C148.642 18.699 149.398 19.406 149.394 19.409C149.424 19.1673 149.375 18.9224 149.255 18.7103C149.136 18.4983 148.951 18.3302 148.729 18.231ZM150.042 20.407C150.126 21.0672 150.325 21.7076 150.631 22.299C150.734 21.961 150.734 21.5995 150.629 21.262C150.523 20.9244 150.319 20.6264 150.042 20.407ZM145.089 26.843C145.499 26.1826 145.642 25.3903 145.489 24.628C145.473 24.8694 145.408 25.1052 145.298 25.3209C145.189 25.5366 145.036 25.7278 144.851 25.883C144.6 25.7087 144.405 25.4656 144.29 25.183C144.283 25.5027 144.352 25.8194 144.491 26.1073C144.63 26.3953 144.835 26.6463 145.09 26.84M144.522 20.286C144.373 20.3729 144.244 20.4908 144.144 20.6316C144.045 20.7725 143.977 20.9331 143.944 21.1025C143.912 21.272 143.917 21.4464 143.958 21.614C143.998 21.7816 144.075 21.9385 144.182 22.074C144.377 21.4967 144.492 20.8949 144.522 20.286ZM144.037 22.514C143.378 23.328 144.391 24.347 144.387 24.361C144.387 24.351 144.47 22.815 144.037 22.514ZM141.607 25.727C141.588 25.0018 141.424 24.2878 141.125 23.627C141.09 24.3579 141.257 25.0844 141.607 25.727ZM142.442 21.464C142.729 20.7456 143.065 20.0474 143.447 19.374C143.091 19.5839 142.806 19.8945 142.627 20.2665C142.448 20.6386 142.384 21.0553 142.442 21.464ZM142.868 23.973C142.873 24.3902 142.837 24.8069 142.761 25.217C142.525 25.1292 142.317 24.9826 142.155 24.791C142.395 25.2891 142.717 25.7437 143.108 26.136C143.275 25.4083 143.189 24.6455 142.865 23.973M142.179 25.799C142.155 26.1538 142.21 26.5094 142.339 26.8405C142.469 27.1717 142.67 27.4703 142.928 27.715C142.907 27.0089 142.642 26.3318 142.179 25.799ZM142.47 28.399C142.702 28.7981 142.99 29.1621 143.326 29.48C142.91 28.853 142.581 27.68 142.168 27.369C142.18 27.7307 142.283 28.0836 142.468 28.395M141.276 22.729C141.2 22.251 141.792 21.811 141.591 21.041C141.374 21.2577 141.228 21.5349 141.172 21.8362C141.115 22.1375 141.152 22.4487 141.276 22.729ZM144.756 29.307C144.399 29.067 144.098 28.7541 143.872 28.389C144.094 29.1005 144.509 29.7364 145.072 30.226C145.262 29.8509 145.375 29.4414 145.405 29.0218C145.434 28.6021 145.378 28.1808 145.242 27.783C145.165 28.3132 145.001 28.8271 144.757 29.304M147.339 26.861C147.191 27.3981 146.895 27.8831 146.486 28.261C146.226 28.0162 146.019 27.7217 145.876 27.395C145.832 27.727 145.881 28.0646 146.017 28.3707C146.153 28.6769 146.37 28.9399 146.645 29.131C146.914 28.8234 147.114 28.4625 147.234 28.0717C147.353 27.681 147.389 27.2694 147.338 26.864M148.62 29.411C148.921 29.0926 149.138 28.7038 149.251 28.2801C149.363 27.8563 149.368 27.4111 149.265 26.985C148.861 27.7314 148.64 28.5627 148.62 29.411ZM147.185 30.69C147.539 30.0804 147.719 29.385 147.705 28.68C147.32 29.2766 147.137 29.9815 147.185 30.69ZM150.285 25.99C150.552 25.567 150.919 24.957 150.618 24.566C150.476 25.033 150.365 25.5087 150.285 25.99ZM148.327 27.359C148.904 26.7845 149.247 26.0163 149.291 25.203C149.118 25.6884 148.776 26.0948 148.327 26.347C148.067 26.161 147.875 25.8957 147.779 25.591C147.723 25.908 147.744 26.2338 147.839 26.5412C147.934 26.8487 148.101 27.129 148.327 27.359ZM150.164 24.659C150.157 24.642 150.802 23.536 150.438 22.923C150.018 23.017 150.174 24.663 150.164 24.659ZM150.133 26.541C149.824 27.1986 149.618 27.8998 149.523 28.62C149.662 28.495 150.362 26.832 150.133 26.541ZM145.7 32.204C145.806 31.9223 145.851 31.6211 145.832 31.3205C145.813 31.02 145.73 30.7269 145.589 30.461C145.49 30.7443 145.449 31.0444 145.468 31.3437C145.487 31.6431 145.566 31.9355 145.7 32.204ZM146.32 33.864C146.427 33.6187 146.479 33.3531 146.473 33.0856C146.467 32.8181 146.403 32.5552 146.285 32.315C146.186 32.5623 146.138 32.8269 146.144 33.093C146.15 33.3592 146.21 33.6214 146.32 33.864ZM147.131 33.33C147.528 32.6545 147.718 31.8775 147.678 31.095C147.274 31.7677 147.083 32.5468 147.131 33.33ZM144.587 32.308C144.478 31.6669 144.252 31.0514 143.921 30.492C143.881 30.8258 143.921 31.1641 144.036 31.4796C144.152 31.7952 144.341 32.079 144.587 32.308ZM149.574 33.226C149.576 33.0793 149.539 32.9347 149.467 32.807C149.158 33.468 148.997 34.1884 148.996 34.918C149.225 34.086 149.866 33.918 150.032 33.147C150.151 33.2307 150.291 33.281 150.437 33.293C150.261 32.891 150.133 32.4698 150.056 32.038C149.986 32.4658 149.82 32.8723 149.571 33.227M142.833 34.863C142.833 34.1333 142.672 33.4125 142.362 32.752C142.293 32.8807 142.258 33.025 142.262 33.171C142.012 32.8155 141.846 32.4079 141.777 31.979C141.698 32.4111 141.571 32.8331 141.399 33.237C141.544 33.223 141.684 33.1728 141.805 33.091C141.971 33.864 142.612 34.034 142.841 34.862M137.781 26.184C137.593 26.1332 137.425 26.029 137.296 25.884C137.35 26.0817 137.444 26.2664 137.572 26.4272C137.699 26.588 137.858 26.7216 138.038 26.82C138.168 26.3236 138.179 25.8033 138.069 25.3019C137.958 24.8006 137.731 24.3327 137.404 23.937C138.021 25.725 137.782 26.186 137.782 26.186M137.113 27.964C136.939 27.8867 136.787 27.7662 136.673 27.614C136.706 27.8208 136.786 28.0171 136.908 28.1877C137.029 28.3584 137.188 28.4988 137.373 28.598C137.595 27.884 137.73 27.319 136.725 25.226C137.415 27.281 137.117 27.964 137.117 27.964M132.996 26.969C132.754 26.4558 132.635 25.8932 132.649 25.326C132.477 26.0091 132.561 26.7314 132.885 27.357C132.98 27.2912 133.059 27.204 133.115 27.1022C133.171 27.0004 133.202 26.887 133.207 26.771C133.15 26.8505 133.078 26.9183 132.996 26.971M133.616 26.358C133.347 25.786 133.203 25.1637 133.193 24.532C133.03 25.3166 133.157 26.1337 133.55 26.832C133.655 26.753 133.74 26.6504 133.798 26.5325C133.857 26.4145 133.887 26.2846 133.886 26.153C133.848 26.253 133.612 26.361 133.612 26.361M136.343 22.746C135.748 22.0663 135.352 21.2359 135.199 20.346C135.232 21.5089 135.681 22.6214 136.464 23.482C136.602 23.1391 136.669 22.7715 136.659 22.4018C136.65 22.0321 136.565 21.6683 136.409 21.333C136.449 21.805 136.428 22.2802 136.347 22.747M135.623 23.894C135.066 23.0935 134.724 22.1641 134.628 21.194C134.576 22.407 134.947 23.6003 135.678 24.57C135.837 24.3062 135.929 24.007 135.944 23.6993C135.96 23.3915 135.899 23.0847 135.768 22.806C135.787 23.1756 135.739 23.5457 135.626 23.898M134.936 24.764C134.425 23.9102 134.14 22.9404 134.108 21.946C133.963 23.1571 134.268 24.3792 134.964 25.381C135.099 25.2092 135.195 25.0094 135.245 24.796C135.294 24.5825 135.295 24.3609 135.248 24.147C135.187 24.3718 135.081 24.5818 134.936 24.764ZM134.271 25.634C133.91 24.856 133.731 24.0063 133.747 23.149C133.552 24.2089 133.733 25.3037 134.26 26.244C134.388 26.0957 134.481 25.9207 134.533 25.7318C134.585 25.5429 134.594 25.3449 134.56 25.152C134.499 25.3313 134.398 25.4946 134.266 25.63M158.848 26.718C158.852 26.8341 158.883 26.9477 158.938 27.0499C158.993 27.152 159.072 27.24 159.167 27.307C159.49 26.6803 159.574 25.9571 159.403 25.273C159.415 25.84 159.296 26.4023 159.056 26.916C158.973 26.8633 158.902 26.7955 158.845 26.716M158.162 26.092C158.161 26.2236 158.191 26.3535 158.249 26.4715C158.307 26.5894 158.392 26.692 158.498 26.771C158.893 26.0736 159.02 25.2555 158.855 24.471C158.844 25.1027 158.7 25.725 158.432 26.297C158.432 26.297 158.196 26.186 158.158 26.089M155.708 22.682C155.626 22.2154 155.604 21.7402 155.642 21.268C155.485 21.6024 155.399 21.9655 155.39 22.3347C155.38 22.7038 155.447 23.0709 155.586 23.413C156.366 22.5509 156.813 21.439 156.847 20.277C156.691 21.1663 156.296 21.9962 155.703 22.677M156.431 23.828C156.315 23.4776 156.265 23.1086 156.285 22.74C156.152 23.0184 156.091 23.3254 156.107 23.6334C156.122 23.9413 156.215 24.2405 156.375 24.504C157.105 23.5343 157.476 22.341 157.425 21.128C157.328 22.0979 156.986 23.0271 156.431 23.828ZM157.944 21.877C157.909 22.8723 157.623 23.8427 157.113 24.698C156.968 24.5144 156.862 24.3035 156.801 24.078C156.754 24.2919 156.755 24.5135 156.804 24.7268C156.854 24.9402 156.949 25.14 157.085 25.312C157.78 24.3102 158.085 23.0881 157.941 21.877M158.298 23.083C158.314 23.9402 158.135 24.7899 157.775 25.568C157.643 25.4317 157.542 25.2687 157.48 25.09C157.445 25.2829 157.453 25.4811 157.505 25.6701C157.557 25.8591 157.651 26.0341 157.78 26.182C158.308 25.2405 158.49 24.1435 158.293 23.082M154.262 26.121C154.262 26.121 154.023 25.66 154.64 23.872C154.313 24.2685 154.085 24.737 153.974 25.239C153.864 25.741 153.875 26.262 154.006 26.759C154.186 26.6608 154.345 26.5274 154.473 26.3666C154.601 26.2058 154.695 26.021 154.751 25.823C154.62 25.9682 154.45 26.0724 154.262 26.123M155.371 27.558C155.338 27.764 155.258 27.9598 155.138 28.1303C155.018 28.3009 154.861 28.4417 154.678 28.542C154.456 27.828 154.321 27.263 155.326 25.17C154.636 27.225 154.934 27.908 154.934 27.908C155.107 27.831 155.258 27.7104 155.371 27.558Z" fill="#0A0203"/>
<path d="M4.09363 38.8089C4.09363 40.6809 3.57064 41.2139 2.14264 41.2139H1.17267V34.9509H2.52063C3.59163 34.9509 4.09363 35.5509 4.09363 37.1789V38.8089ZM2.62067 34.0609H0.14563V42.1049H1.99664C3.39664 42.1049 4.21464 41.7579 4.64764 41.0689C5.07695 40.0448 5.245 38.9301 5.13666 37.8249C5.15138 36.9648 5.03092 36.1076 4.77966 35.2849C4.59091 34.8813 4.28134 34.5464 3.8938 34.3266C3.50626 34.1067 3.0599 34.0128 2.61664 34.0579" fill="#0A0203"/>
<path d="M7.96167 38.427H10.8617V37.536H7.96167V34.951H11.0807V34.0601H6.93567V42.1071H11.1467V41.213H7.96167V38.427Z" fill="#0A0203"/>
<path d="M14.7917 37.671H13.6657V34.954H15.0797C15.2464 34.9579 15.4103 34.9972 15.5606 35.0692C15.711 35.1412 15.8444 35.2444 15.9519 35.3718C16.0594 35.4993 16.1386 35.6481 16.1842 35.8085C16.2299 35.9688 16.2409 36.137 16.2166 36.302C16.2279 36.4896 16.1985 36.6775 16.1302 36.8526C16.0619 37.0277 15.9564 37.1859 15.821 37.3163C15.6857 37.4468 15.5236 37.5463 15.3461 37.608C15.1686 37.6698 14.9797 37.6923 14.7926 37.674M15.0246 34.059H12.6397V42.103H13.6657V38.561H15.0136C15.3118 38.5861 15.6119 38.5466 15.8934 38.4451C16.1749 38.3436 16.4311 38.1825 16.6446 37.9729C16.8581 37.7633 17.0239 37.51 17.1306 37.2305C17.2372 36.9509 17.2823 36.6516 17.2627 36.353C17.3034 36.0469 17.2741 35.7356 17.1768 35.4425C17.0795 35.1494 16.9169 34.8823 16.7012 34.6613C16.4855 34.4403 16.2224 34.2713 15.9318 34.1669C15.6412 34.0626 15.3316 34.0257 15.0246 34.059Z" fill="#0A0203"/>
<path d="M19.3047 39.2971L20.5627 35.006H20.5867L21.8797 39.2971H19.3047ZM19.9627 34.0601L17.4117 42.104H18.4477L19.0477 40.187H22.1567L22.7357 42.104H23.8827L21.2657 34.0601H19.9657H19.9627Z" fill="#0A0203"/>
<path d="M27.4977 37.516H25.9587V34.955H27.5077C27.6622 34.9557 27.8147 34.989 27.9554 35.0529C28.096 35.1169 28.2215 35.2099 28.3237 35.3258C28.4258 35.4417 28.5022 35.5779 28.5479 35.7255C28.5936 35.8731 28.6075 36.0286 28.5887 36.182C28.5887 36.882 28.2317 37.5199 27.4967 37.5199M28.1617 37.929V37.9049C28.5935 37.8394 28.9848 37.6137 29.2578 37.2728C29.5307 36.9318 29.6653 36.5006 29.6347 36.065C29.663 35.8014 29.6333 35.5347 29.5476 35.2838C29.4619 35.0329 29.3224 34.8038 29.1387 34.6125C28.9551 34.4213 28.7318 34.2725 28.4846 34.1767C28.2374 34.0809 27.9723 34.0404 27.7077 34.0579H24.9327V42.102H25.9587V38.4019H27.1587C27.3074 38.3801 27.459 38.3901 27.6035 38.4313C27.748 38.4725 27.8821 38.5441 27.9968 38.6411C28.1116 38.7382 28.2043 38.8585 28.2689 38.9942C28.3336 39.1298 28.3686 39.2777 28.3717 39.4279C28.3457 40.3303 28.4509 41.2318 28.6837 42.104H29.7547C29.6008 41.4111 29.5081 40.7061 29.4777 39.997C29.4227 38.382 29.0857 38.07 28.1637 37.924" fill="#0A0203"/>
<path d="M30.4056 34.951H32.5237V42.108H33.5497V34.951H35.6677V34.0601H30.4056V34.951Z" fill="#0A0203"/>
<path d="M40.4457 40.815H40.4217L38.3947 34.0601H36.7347V42.1071H37.6946V34.95H37.7156L39.9236 42.1071H40.8907L43.1437 34.95H43.1647V42.1071H44.1907V34.0601H42.4937L40.4457 40.815Z" fill="#0A0203"/>
<path d="M47.0306 38.427H49.9307V37.536H47.0306V34.951H50.1497V34.0601H46.0046V42.1071H50.2186V41.213H47.0306V38.427Z" fill="#0A0203"/>
<path d="M56.2347 40.946H56.2137L53.0807 34.0601H51.6326V42.1071H52.5477V35.131H52.5687L55.7437 42.1071H57.1506V34.0601H56.2357L56.2347 40.946Z" fill="#0A0203"/>
<path d="M58.2626 34.951H60.3796V42.108H61.4056V34.951H63.5237V34.0601H58.2626V34.951Z" fill="#0A0203"/>
<path d="M71.0336 39.2069C71.0336 40.9679 70.5207 41.4149 69.5537 41.4149C68.5867 41.4149 68.0706 40.9679 68.0706 39.2069V36.494C68.0706 34.81 69.2287 34.7539 69.5537 34.7539C69.8787 34.7539 71.0336 34.809 71.0336 36.494V39.2069ZM69.5507 33.894C69.2016 33.8617 68.8497 33.9084 68.5212 34.0307C68.1927 34.1529 67.8959 34.3476 67.6529 34.6003C67.4099 34.8529 67.2268 35.157 67.1174 35.49C67.0079 35.823 66.9749 36.1764 67.0206 36.524V39.1649C67.0206 41.3929 67.8457 42.274 69.5507 42.274C71.2557 42.274 72.0806 41.3939 72.0806 39.1649V36.524C72.1264 36.1764 72.0933 35.823 71.9839 35.49C71.8744 35.157 71.6915 34.8529 71.4484 34.6003C71.2054 34.3476 70.9086 34.1529 70.5801 34.0307C70.2516 33.9084 69.8997 33.8617 69.5507 33.894Z" fill="#0A0203"/>
<path d="M73.7857 42.1071H74.8117V38.4261H77.6187V37.5351H74.8117V34.9501H77.7747V34.0591H73.7857V42.1071Z" fill="#0A0203"/>
<path d="M82.3117 38.427H85.2117V37.536H82.3117V34.951H85.4307V34.0601H81.2857V42.1071H85.4967V41.213H82.3117V38.427Z" fill="#0A0203"/>
<path d="M91.5127 40.946H91.4917L88.3627 34.0601H86.9137V42.1071H87.8247V35.131H87.8487L91.0237 42.1071H92.4237V34.0601H91.5087L91.5127 40.946Z" fill="#0A0203"/>
<path d="M95.3147 38.427H98.2147V37.536H95.3147V34.951H98.4337V34.0601H94.2887V42.1071H98.5027V41.213H95.3147V38.427Z" fill="#0A0203"/>
<path d="M102.403 37.516H100.864V34.955H102.413C102.567 34.9557 102.72 34.989 102.86 35.0529C103.001 35.1169 103.126 35.2099 103.229 35.3258C103.331 35.4417 103.407 35.5779 103.453 35.7255C103.499 35.8731 103.512 36.0286 103.494 36.182C103.494 36.882 103.137 37.5199 102.402 37.5199M103.071 37.929V37.9049C103.502 37.8392 103.893 37.6133 104.165 37.2724C104.438 36.9314 104.572 36.5003 104.541 36.065C104.569 35.8014 104.539 35.5347 104.454 35.2838C104.368 35.0329 104.228 34.8038 104.045 34.6125C103.861 34.4213 103.638 34.2725 103.391 34.1767C103.143 34.0809 102.878 34.0404 102.614 34.0579H99.8377V42.102H100.864V38.4019H102.064C102.212 38.3803 102.364 38.3904 102.509 38.4317C102.653 38.4729 102.788 38.5444 102.902 38.6414C103.017 38.7384 103.11 38.8586 103.176 38.9942C103.241 39.1298 103.276 39.2776 103.28 39.4279C103.252 40.3304 103.357 41.2321 103.592 42.104H104.663C104.509 41.4109 104.415 40.706 104.382 39.997C104.327 38.382 103.99 38.07 103.068 37.924" fill="#0A0203"/>
<path d="M108.485 33.894C108.136 33.8617 107.784 33.9084 107.455 34.0307C107.127 34.1529 106.83 34.3476 106.587 34.6003C106.344 34.8529 106.161 35.1569 106.051 35.49C105.942 35.823 105.909 36.1764 105.955 36.524V39.1649C105.955 41.3929 106.78 42.274 108.485 42.274C109.344 42.2907 110.193 42.0839 110.949 41.6739V37.761H108.44V38.6519H109.923V41.0609C109.489 41.3198 108.989 41.4441 108.485 41.4179C107.515 41.4179 107.002 40.9709 107.002 39.2099V36.493C107.002 34.809 108.16 34.753 108.485 34.753C109.521 34.753 109.913 35.2659 109.913 36.2119H110.984C111.05 34.5309 110.225 33.893 108.484 33.893" fill="#0A0203"/>
<path d="M114.772 37.949L113.202 34.061H112.051L114.214 39.041V42.105H115.24V39.04L117.434 34.0601H116.398L114.772 37.949Z" fill="#0A0203"/>
<path d="M3.92267 18.263C4.00704 18.264 4.09074 18.248 4.16876 18.2158C4.24678 18.1837 4.31754 18.1361 4.37671 18.076C4.43778 18.0175 4.48592 17.9469 4.51813 17.8687C4.55033 17.7905 4.56589 17.7065 4.56372 17.6219C4.56264 17.5172 4.53586 17.4142 4.48578 17.3222C4.4357 17.2302 4.36381 17.1518 4.27643 17.094C4.18904 17.0362 4.08879 17.0006 3.98449 16.9905C3.8802 16.9804 3.77502 16.9961 3.67816 17.036C3.5813 17.076 3.4957 17.1391 3.42889 17.2198C3.36208 17.3006 3.31609 17.3965 3.29492 17.4991C3.27375 17.6017 3.27807 17.708 3.30749 17.8085C3.33691 17.9091 3.39054 18.0009 3.46368 18.076C3.52216 18.137 3.59278 18.1852 3.67096 18.2174C3.74914 18.2496 3.83314 18.2651 3.91766 18.263" fill="#0A0203"/>
<path d="M1.79267 18.2629C1.94042 18.2623 2.08343 18.2106 2.19734 18.1165C2.31125 18.0224 2.38901 17.8918 2.41743 17.7468C2.44585 17.6018 2.42318 17.4514 2.35322 17.3213C2.28326 17.1912 2.17037 17.0893 2.03376 17.033C1.89715 16.9768 1.74521 16.9696 1.60389 17.0127C1.46258 17.0558 1.34062 17.1465 1.25868 17.2695C1.17674 17.3924 1.1399 17.54 1.15449 17.687C1.16908 17.834 1.23419 17.9714 1.33869 18.0759C1.39717 18.1369 1.46773 18.1851 1.54591 18.2173C1.62409 18.2495 1.70815 18.2651 1.79267 18.2629Z" fill="#0A0203"/>
<path d="M21.9147 17.996C22.0624 17.9955 22.2054 17.9438 22.3193 17.8497C22.4333 17.7556 22.511 17.6249 22.5394 17.4799C22.5679 17.3349 22.5452 17.1846 22.4752 17.0544C22.4053 16.9243 22.2924 16.8224 22.1558 16.7662C22.0192 16.7099 21.8672 16.7027 21.7259 16.7458C21.5846 16.7889 21.4626 16.8797 21.3807 17.0026C21.2987 17.1256 21.2619 17.2731 21.2765 17.4201C21.2911 17.5672 21.3562 17.7046 21.4607 17.809C21.5199 17.8692 21.5906 17.9168 21.6686 17.9489C21.7466 17.981 21.8303 17.997 21.9147 17.996Z" fill="#0A0203"/>
<path d="M24.0627 16.7139C23.915 16.7145 23.772 16.7662 23.658 16.8603C23.5441 16.9543 23.4664 17.085 23.438 17.23C23.4095 17.375 23.4323 17.5253 23.5022 17.6555C23.5722 17.7856 23.6851 17.8875 23.8217 17.9437C23.9583 18 24.1102 18.0072 24.2515 17.9641C24.3928 17.921 24.5148 17.8302 24.5968 17.7073C24.6787 17.5844 24.7155 17.4368 24.7009 17.2898C24.6863 17.1428 24.6212 17.0053 24.5167 16.9009C24.4576 16.8407 24.3869 16.7931 24.3089 16.7609C24.2308 16.7288 24.1471 16.7128 24.0627 16.7139Z" fill="#0A0203"/>
<path d="M23.6857 25.049C22.867 24.9889 22.08 24.7076 21.4087 24.235C21.1747 24.0543 20.9862 23.8214 20.8581 23.5549C20.7299 23.2884 20.6658 22.9957 20.6707 22.7C20.6535 22.3362 20.7387 21.9748 20.9167 21.657C21.0734 21.3962 21.2958 21.181 21.5617 21.0331C21.844 20.8748 22.1526 20.7691 22.4727 20.721C22.8118 20.6646 23.1549 20.6355 23.4987 20.634C23.5189 20.6309 23.5396 20.6344 23.5577 20.644C23.575 20.6516 23.5938 20.655 23.6127 20.6541H23.6887V25.049H23.6857ZM23.4987 19.677C22.9766 19.6721 22.4564 19.7394 21.9527 19.877C21.516 19.9941 21.1053 20.1929 20.7427 20.463C20.4111 20.7114 20.1428 21.0345 19.9597 21.406C19.7707 21.803 19.6768 22.2385 19.6857 22.678C19.6671 23.1438 19.7706 23.6063 19.9859 24.0197C20.2011 24.4331 20.5205 24.7831 20.9127 25.035H4.8287C4.6757 25.035 4.60372 24.948 4.60372 24.772V19.2061C4.18137 19.3316 3.76608 19.4798 3.35971 19.6501C2.82289 19.8699 2.31346 20.1515 1.8417 20.489C1.34143 20.8463 0.904433 21.2847 0.548731 21.786C0.178918 22.3123 -0.0131177 22.943 0.000696335 23.586C0.00322998 23.8633 0.0405439 24.1391 0.111719 24.407C0.190633 24.7013 0.339124 24.9722 0.544703 25.1971C0.799682 25.472 1.11206 25.6874 1.45968 25.828C1.95501 26.0268 2.48211 26.1349 3.01571 26.147L3.0917 25.166C2.53279 25.151 1.98507 25.0061 1.49172 24.743C1.31317 24.6113 1.17221 24.435 1.08291 24.2319C0.993612 24.0287 0.959054 23.8057 0.982691 23.5851C0.975334 23.2076 1.0737 22.8356 1.26669 22.511C1.4537 22.2039 1.68374 21.9251 1.94973 21.683C2.21131 21.4474 2.49838 21.2418 2.80569 21.07C3.10569 20.9 3.37368 20.758 3.60568 20.644L3.62271 24.7751C3.60156 25.1095 3.70683 25.4396 3.91769 25.7C4.01675 25.8068 4.13778 25.8909 4.27242 25.9465C4.40707 26.0021 4.55217 26.0278 4.69772 26.022H24.6667V19.78C24.4277 19.742 24.2267 19.718 24.0667 19.704C23.9067 19.69 23.7167 19.683 23.5017 19.683" fill="#0A0203"/>
<path d="M49.5637 25.0319H43.5637C43.683 24.6608 43.8277 24.2983 43.9967 23.9469C44.2462 23.4372 44.5813 22.9741 44.9876 22.5779C45.5073 22.0739 46.1068 21.6593 46.7617 21.3509C47.6441 20.9476 48.5933 20.7103 49.5617 20.6509V25.0259L49.5637 25.0319ZM65.8177 25.0319H50.5377V19.6189H50.0277C49.2137 19.6068 48.4019 19.7078 47.6157 19.9189C46.9694 20.0966 46.3476 20.3539 45.7647 20.6849C45.2709 20.9697 44.8178 21.3199 44.4177 21.7259C44.075 22.0741 43.7684 22.456 43.5027 22.8659V16.0559H42.5216V25.0319H27.1547V16.1109H26.1737V26.0109H66.7917V16.0559H65.8106V25.0319H65.8177Z" fill="#0A0203"/>
<path d="M69.2837 16.115H68.3027V26.017H69.2837V16.115Z" fill="#0A0203"/>
<path d="M75.5427 18.2629C75.6904 18.2623 75.8334 18.2106 75.9473 18.1165C76.0612 18.0224 76.139 17.8918 76.1674 17.7468C76.1958 17.6018 76.1732 17.4514 76.1032 17.3213C76.0333 17.1912 75.9204 17.0893 75.7838 17.033C75.6472 16.9768 75.4953 16.9696 75.354 17.0127C75.2126 17.0558 75.0906 17.1465 75.0087 17.2695C74.9267 17.3924 74.8899 17.54 74.9045 17.687C74.9191 17.834 74.9842 17.9714 75.0887 18.0759C75.1472 18.1369 75.2178 18.1851 75.296 18.2173C75.3742 18.2495 75.4581 18.2651 75.5427 18.2629Z" fill="#0A0203"/>
<path d="M77.6727 18.2629C77.8205 18.2623 77.9634 18.2106 78.0773 18.1165C78.1912 18.0224 78.2691 17.8918 78.2975 17.7468C78.3259 17.6018 78.3032 17.4514 78.2332 17.3213C78.1632 17.1912 78.0504 17.0893 77.9137 17.033C77.7771 16.9768 77.6252 16.9696 77.4839 17.0127C77.3426 17.0558 77.2206 17.1465 77.1387 17.2695C77.0567 17.3924 77.0199 17.54 77.0345 17.687C77.0491 17.834 77.1142 17.9714 77.2187 18.0759C77.2771 18.1369 77.3478 18.1851 77.4259 18.2173C77.5041 18.2495 77.5882 18.2651 77.6727 18.2629Z" fill="#0A0203"/>
<path d="M77.2037 24.994H77.0897C76.8176 24.9926 76.5462 24.9672 76.2786 24.9181C75.997 24.8698 75.7239 24.7813 75.4676 24.6551C75.2278 24.5392 75.0162 24.3723 74.8477 24.166C74.6818 23.9576 74.5947 23.6974 74.6017 23.4311C74.5961 23.0711 74.6947 22.7172 74.8857 22.412C75.0716 22.1136 75.3003 21.844 75.5646 21.6121C75.8242 21.3828 76.109 21.1838 76.4136 21.019C76.715 20.8564 76.9783 20.723 77.2037 20.619V24.993V24.994ZM76.5247 19.816C76.1682 19.9825 75.8243 20.1747 75.4957 20.3911C75.1555 20.6148 74.8427 20.8776 74.5637 21.174C74.2865 21.4699 74.0574 21.8073 73.8846 22.174C73.7053 22.5604 73.6154 22.9822 73.6216 23.4081C73.6072 23.8483 73.736 24.2813 73.9886 24.6421C74.2275 24.9704 74.5346 25.2433 74.8887 25.442C75.248 25.6442 75.6362 25.7902 76.0397 25.8751C76.4008 25.9568 76.7694 26.001 77.1396 26.007H78.1757V19.2371C77.999 19.2751 77.7633 19.3417 77.4686 19.437C77.143 19.5421 76.8248 19.6684 76.5157 19.8151" fill="#0A0203"/>
<path d="M108.637 18.808H108.166C107.922 18.8164 107.681 18.7601 107.466 18.645C107.374 18.5937 107.298 18.5173 107.248 18.4247C107.197 18.3321 107.175 18.2271 107.182 18.122C107.174 18.0564 107.183 17.9899 107.21 17.9295C107.237 17.8691 107.28 17.8171 107.334 17.779C107.455 17.7105 107.594 17.678 107.734 17.685C108.014 17.6912 108.291 17.7563 108.545 17.876L108.732 17.398C108.409 17.2628 108.063 17.1921 107.713 17.19C107.463 17.1873 107.219 17.2609 107.013 17.401C106.901 17.4837 106.813 17.5939 106.757 17.7208C106.701 17.8477 106.68 17.987 106.694 18.125C106.693 18.275 106.718 18.424 106.77 18.565C106.822 18.704 106.87 18.787 106.922 18.811H106.111V19.3H108.637V18.811V18.808Z" fill="#0A0203"/>
<path d="M108.336 20.2039H107.355V25.0319H80.8547V20.2039H79.8737V26.4459C79.8737 26.7859 79.8596 27.1109 79.8356 27.4269C79.815 27.7156 79.7475 27.9989 79.6357 28.2659C79.5344 28.5052 79.3672 28.7108 79.1536 28.8589C78.8959 29.0236 78.5931 29.1037 78.2877 29.0879V30.0688C78.7683 30.093 79.2459 29.9788 79.6636 29.7399C79.9942 29.5287 80.2614 29.2318 80.4366 28.8809C80.6169 28.5142 80.732 28.119 80.7767 27.7129C80.8259 27.293 80.8512 26.8706 80.8527 26.4479V26.0149H108.329V20.2039H108.336Z" fill="#0A0203"/>
<path d="M110.845 16.115H109.864V26.017H110.845V16.115Z" fill="#0A0203"/>
<path d="M116.945 25.6069C117.043 25.3955 117.126 25.1776 117.195 24.9549C117.28 24.6766 117.347 24.393 117.395 24.1059C117.451 23.782 117.479 23.4537 117.478 23.1249C117.479 22.6761 117.417 22.2294 117.294 21.7979C117.178 21.3815 116.99 20.9885 116.739 20.6369C116.49 20.2975 116.169 20.0172 115.8 19.8159C115.394 19.6014 114.941 19.494 114.483 19.5039C114 19.4904 113.522 19.5876 113.083 19.7879C112.738 19.9463 112.416 20.1479 112.123 20.3879L112.705 21.1439C112.992 20.9253 113.31 20.7501 113.648 20.6239C113.908 20.5327 114.182 20.4847 114.459 20.4819C114.759 20.4783 115.055 20.5535 115.318 20.6999C115.572 20.8407 115.791 21.0373 115.959 21.2749C116.138 21.5302 116.273 21.8139 116.359 22.1139C116.454 22.4418 116.501 22.7815 116.501 23.1229C116.508 23.5107 116.464 23.8977 116.37 24.2739C116.302 24.5289 116.219 24.78 116.124 25.0259H112.069V26.0069H116.741C116.79 25.9199 116.859 25.7819 116.941 25.6019" fill="#0A0203"/>
</svg>
