<svg xmlns="http://www.w3.org/2000/svg" id="Layer_2" viewBox="0 0 135.36 129.44">
  <defs>
    <style>
      .cls-1 {
        fill: #0a0203;
      }

      .cls-2 {
        fill: #ea0029;
      }

      .cls-3 {
        fill: #fff;
      }
    </style>
  </defs>
  <g id="Layer_1-2" data-name="Layer_1">
    <g>
      <g>
        <g>
          <path class="cls-1" d="M0,105.08h2.76c1.15,0,1.97.41,2.41,1.37.36.76.4,2.55.4,2.84,0,1.92-.17,3.02-.55,3.62-.49.77-1.39,1.16-2.96,1.16H0s0-8.98,0-8.98ZM1.15,113.06h1.08c1.59,0,2.18-.6,2.18-2.69v-1.82c0-1.82-.56-2.49-1.75-2.49h-1.51s0,6.99,0,6.99Z"/>
          <path class="cls-1" d="M7.58,114.06v-8.98s4.63,0,4.63,0v1s-3.48,0-3.48,0v2.89s3.24,0,3.24,0v1s-3.24,0-3.24,0v3.11s3.56,0,3.56,0v1s-4.7,0-4.7,0Z"/>
          <path class="cls-1" d="M13.95,114.06v-8.98s2.66,0,2.66,0c1.21,0,2.5.45,2.5,2.56,0,2.04-1.59,2.46-2.51,2.46h-1.51s0,3.96,0,3.96h-1.15ZM15.1,109.11h1.26c.47,0,1.59-.12,1.59-1.53,0-1.37-1.02-1.5-1.27-1.5h-1.58s0,3.04,0,3.04Z"/>
          <path class="cls-1" d="M22.13,105.08h1.46s2.92,8.98,2.92,8.98h-1.28s-.65-2.14-.65-2.14h-3.47s-.67,2.14-.67,2.14h-1.16s2.85-8.98,2.85-8.98ZM22.83,106.13h-.03s-1.41,4.79-1.41,4.79h2.87s-1.44-4.79-1.44-4.79Z"/>
          <path class="cls-1" d="M28.83,109.93v4.13s-1.15,0-1.15,0v-8.98s3.1,0,3.1,0c1.59,0,2.15,1.12,2.15,2.24,0,1.06-.59,1.87-1.64,2.05v.03c1.03.16,1.41.51,1.47,2.31.01.39.14,1.79.31,2.35h-1.19c-.32-.62-.25-1.79-.35-2.99-.09-1.09-.97-1.14-1.36-1.14h-1.34ZM28.83,108.93h1.72c.82,0,1.22-.71,1.22-1.49,0-.65-.32-1.37-1.21-1.37h-1.73s0,2.86,0,2.86Z"/>
          <path class="cls-1" d="M39.66,105.08v1s-2.36,0-2.36,0v7.99s-1.14,0-1.14,0v-7.99s-2.36,0-2.36,0v-1s5.87,0,5.87,0Z"/>
          <path class="cls-1" d="M41.93,114.06h-1.07s0-8.98,0-8.98h1.85s2.26,7.54,2.26,7.54h.02s2.29-7.54,2.29-7.54h1.89s0,8.98,0,8.98h-1.14s0-7.99,0-7.99h-.03s-2.51,7.99-2.51,7.99h-1.08s-2.46-7.99-2.46-7.99h-.03s0,7.99,0,7.99Z"/>
          <path class="cls-1" d="M51.21,114.06v-8.98s4.63,0,4.63,0v1s-3.48,0-3.48,0v2.89s3.24,0,3.24,0v1s-3.24,0-3.24,0v3.11s3.56,0,3.56,0v1s-4.7,0-4.7,0Z"/>
          <path class="cls-1" d="M63.65,105.08v8.98s-1.57,0-1.57,0l-3.55-7.79h-.03s0,7.79,0,7.79h-1.02s0-8.98,0-8.98h1.62s3.5,7.69,3.5,7.69h.03s0-7.69,0-7.69h1.02Z"/>
          <path class="cls-1" d="M70.77,105.08v1s-2.36,0-2.36,0v7.99s-1.14,0-1.14,0v-7.99s-2.36,0-2.36,0v-1s5.87,0,5.87,0Z"/>
          <path class="cls-1" d="M74.68,110.77v-2.95c0-1.79.92-2.94,2.82-2.94s2.82,1.15,2.82,2.94v2.95c0,2.49-.92,3.47-2.82,3.47-1.9,0-2.82-.98-2.82-3.47ZM79.16,110.82v-3.04c0-1.88-1.29-1.94-1.66-1.94s-1.65.06-1.65,1.94v3.04c0,1.97.57,2.46,1.65,2.46,1.08,0,1.66-.5,1.66-2.46Z"/>
          <path class="cls-1" d="M82.23,114.06v-8.98s4.45,0,4.45,0v1s-3.31,0-3.31,0v2.89s3.14,0,3.14,0v1s-3.14,0-3.14,0v4.11s-1.15,0-1.15,0Z"/>
          <path class="cls-1" d="M94.56,107.55c.01-.51-.02-1.02-.26-1.31s-.77-.39-1.01-.39c-.95,0-1.32.57-1.36.7-.04.1-.26.32-.26,1.87v2.4c0,2.2.72,2.46,1.6,2.46.35,0,1.41-.12,1.42-1.88h1.18c.05,2.84-1.95,2.84-2.54,2.84-1.12,0-2.84-.07-2.84-3.56v-2.54c0-2.54,1.12-3.26,2.89-3.26,1.78,0,2.46.92,2.35,2.66h-1.18Z"/>
          <path class="cls-1" d="M97.49,105.08h1.15s0,5.75,0,5.75c0,1.97.6,2.46,1.68,2.46,1.08,0,1.68-.5,1.68-2.46v-5.75s1.15,0,1.15,0v5.7c0,2.49-.92,3.47-2.82,3.47-1.9,0-2.82-.98-2.82-3.47v-5.7Z"/>
          <path class="cls-1" d="M105.13,114.06v-8.98s1.15,0,1.15,0v7.99s3.3,0,3.3,0v1s-4.44,0-4.44,0Z"/>
          <path class="cls-1" d="M114.95,105.08v1s-2.36,0-2.36,0v7.99s-1.14,0-1.14,0v-7.99s-2.36,0-2.36,0v-1s5.87,0,5.87,0Z"/>
          <path class="cls-1" d="M116.09,105.08h1.15s0,5.75,0,5.75c0,1.97.6,2.46,1.68,2.46,1.08,0,1.68-.5,1.68-2.46v-5.75s1.15,0,1.15,0v5.7c0,2.49-.92,3.47-2.82,3.47s-2.82-.98-2.82-3.47v-5.7Z"/>
          <path class="cls-1" d="M124.85,109.93v4.13s-1.15,0-1.15,0v-8.98s3.1,0,3.1,0c1.59,0,2.15,1.12,2.15,2.24,0,1.06-.59,1.87-1.64,2.05v.03c1.03.16,1.41.51,1.47,2.31.01.39.14,1.79.31,2.35h-1.19c-.32-.62-.25-1.79-.35-2.99-.09-1.09-.97-1.14-1.36-1.14h-1.34ZM124.85,108.93h1.72c.82,0,1.22-.71,1.22-1.49,0-.65-.32-1.37-1.21-1.37h-1.73s0,2.86,0,2.86Z"/>
          <path class="cls-1" d="M130.65,114.06v-8.98s4.63,0,4.63,0v1s-3.48,0-3.48,0v2.89s3.24,0,3.24,0v1s-3.24,0-3.24,0v3.11s3.56,0,3.56,0v1s-4.7,0-4.7,0Z"/>
        </g>
        <g>
          <path class="cls-1" d="M33.45,120.27h1.46s2.92,8.98,2.92,8.98h-1.28s-.65-2.14-.65-2.14h-3.47s-.67,2.14-.67,2.14h-1.16s2.85-8.98,2.85-8.98ZM34.15,121.33h-.03s-1.41,4.79-1.41,4.79h2.87s-1.44-4.79-1.44-4.79Z"/>
          <path class="cls-1" d="M45.25,120.27v8.98s-1.57,0-1.57,0l-3.55-7.79h-.03s0,7.79,0,7.79h-1.02s0-8.98,0-8.98h1.62s3.5,7.69,3.5,7.69h.03s0-7.69,0-7.69h1.02Z"/>
          <path class="cls-1" d="M47.35,120.27h2.76c1.15,0,1.97.41,2.41,1.37.36.76.4,2.55.4,2.84,0,1.92-.17,3.02-.55,3.62-.49.77-1.39,1.16-2.96,1.16h-2.07s0-8.98,0-8.98ZM48.5,128.26h1.08c1.59,0,2.18-.6,2.18-2.69v-1.82c0-1.82-.56-2.49-1.75-2.49h-1.51s0,6.99,0,6.99Z"/>
          <path class="cls-1" d="M62.73,120.27v1s-2.36,0-2.36,0v7.99s-1.15,0-1.15,0v-7.99s-2.36,0-2.36,0v-1s5.87,0,5.87,0Z"/>
          <path class="cls-1" d="M63.88,125.97v-2.95c0-1.79.92-2.94,2.82-2.94,1.9,0,2.82,1.15,2.82,2.94v2.95c0,2.49-.92,3.47-2.82,3.47-1.9,0-2.82-.98-2.82-3.47ZM68.36,126.02v-3.04c0-1.88-1.29-1.94-1.65-1.94s-1.66.06-1.66,1.94v3.04c0,1.97.57,2.46,1.66,2.46s1.65-.5,1.65-2.46Z"/>
          <path class="cls-1" d="M71.48,120.27h1.15s0,5.75,0,5.75c0,1.97.6,2.46,1.68,2.46s1.68-.5,1.68-2.46v-5.75s1.15,0,1.15,0v5.7c0,2.49-.92,3.47-2.82,3.47-1.9,0-2.82-.98-2.82-3.47v-5.7Z"/>
          <path class="cls-1" d="M80.24,125.12v4.13s-1.15,0-1.15,0v-8.98s3.1,0,3.1,0c1.59,0,2.15,1.12,2.15,2.24,0,1.06-.59,1.87-1.64,2.05v.03c1.03.16,1.41.51,1.47,2.31.01.39.14,1.79.31,2.35h-1.19c-.32-.62-.25-1.79-.35-2.99-.09-1.1-.97-1.15-1.36-1.15h-1.34ZM80.24,124.13h1.72c.82,0,1.22-.71,1.22-1.49,0-.65-.32-1.37-1.21-1.37h-1.73s0,2.86,0,2.86Z"/>
          <path class="cls-1" d="M87.33,129.25h-1.15s0-8.98,0-8.98h1.15s0,8.98,0,8.98Z"/>
          <path class="cls-1" d="M90.38,126.58v.26c0,1.22.77,1.6,1.51,1.6.91,0,1.6-.39,1.6-1.46,0-1.99-4.03-1.77-4.03-4.47,0-1.59,1.13-2.44,2.64-2.44,1.64,0,2.56.8,2.49,2.63h-1.19c.01-.98-.3-1.63-1.38-1.63-.68,0-1.38.35-1.38,1.32,0,1.98,4.03,1.69,4.03,4.54,0,1.89-1.31,2.5-2.79,2.5-2.65.03-2.65-2-2.63-2.86h1.13Z"/>
          <path class="cls-1" d="M97.5,129.26h-1.07s0-8.98,0-8.98h1.85s2.26,7.54,2.26,7.54h.03s2.29-7.54,2.29-7.54h1.89s0,8.98,0,8.98h-1.15s0-7.99,0-7.99h-.02s-2.51,7.99-2.51,7.99h-1.08s-2.46-7.99-2.46-7.99h-.02s0,7.99,0,7.99Z"/>
        </g>
        <g>
          <path class="cls-1" d="M5.14,94.71c0,.2.08.3.25.3h.69v1.09s-.84,0-.84,0c-.36,0-.65-.12-.87-.36-.22-.24-.33-.58-.33-1.03l-.02-4.61c-.25.13-.55.28-.89.47-.34.19-.66.42-.95.69-.3.27-.55.58-.76.93-.21.35-.32.75-.32,1.2,0,.62.19,1.05.57,1.29.38.25.98.4,1.79.47l-.08,1.1c-.72-.04-1.29-.16-1.74-.36-.44-.2-.78-.43-1.02-.71s-.4-.57-.49-.88c-.08-.32-.12-.62-.12-.92,0-.77.2-1.44.61-2.01.41-.57.89-1.05,1.44-1.44.55-.39,1.12-.7,1.7-.94s1.04-.4,1.39-.5v6.21ZM2.72,86.73c0,.2-.07.37-.21.51-.14.14-.31.21-.51.21s-.37-.07-.51-.21-.21-.31-.21-.51.07-.36.21-.51c.14-.14.31-.21.51-.21s.36.07.51.21c.14.14.21.31.21.51ZM5.1,86.73c0,.2-.07.37-.21.51s-.31.21-.51.21-.37-.07-.51-.21c-.14-.14-.21-.31-.21-.51s.07-.36.21-.51c.14-.14.31-.21.51-.21s.37.07.51.21c.14.14.21.31.21.51Z"/>
          <path class="cls-1" d="M8.92,96.1h-2.83c-.21,0-.39-.06-.53-.19s-.21-.24-.21-.36.07-.23.21-.36.32-.19.53-.19h2.83s0,1.09,0,1.09Z"/>
          <path class="cls-1" d="M8.92,96.1c-.21,0-.39-.06-.53-.19s-.21-.24-.21-.36.07-.23.21-.36.32-.19.53-.19h5.52c-.14-.28-.25-.65-.33-1.11s-.14-1.04-.18-1.76c-.04-.52-.13-.93-.25-1.22-.13-.29-.28-.52-.46-.66-.18-.15-.38-.24-.59-.28-.21-.04-.42-.06-.63-.06-.49,0-1,.17-1.52.5l-.67-.86c.27-.2.59-.37.97-.52s.79-.22,1.24-.22c.93,0,1.64.27,2.13.81.49.54.79,1.35.88,2.43.08.95.17,1.64.25,2.06.08.42.27.67.55.76l.59.17-.04,1.05h-7.45Z"/>
          <path class="cls-1" d="M17.91,96.1v-11.06s1.1,0,1.1,0v9.96s.95,0,.95,0v1.09s-2.04,0-2.04,0Z"/>
          <path class="cls-1" d="M21.83,96.1h-1.88c-.21,0-.39-.06-.53-.19s-.21-.24-.21-.36.07-.23.21-.36.32-.19.53-.19h1.88s0,1.09,0,1.09Z"/>
          <path class="cls-1" d="M21.83,96.1c-.21,0-.39-.06-.53-.19s-.21-.24-.21-.36.07-.23.21-.36.32-.19.53-.19h2.84s0-5.37,0-5.37h1.09s0,5.37,0,5.37h.95v1.09s-4.89,0-4.89,0ZM23.05,99.09c-.2,0-.37-.07-.51-.21-.14-.14-.21-.31-.21-.51s.07-.37.21-.51c.14-.14.31-.21.51-.21s.37.07.51.21c.14.14.21.31.21.51s-.07.36-.21.51c-.14.14-.31.21-.51.21ZM25.2,99.09c-.2,0-.37-.07-.51-.21-.14-.14-.21-.31-.21-.51s.07-.37.21-.51c.14-.14.31-.21.51-.21s.37.07.51.21.21.31.21.51-.07.36-.21.51c-.14.14-.31.21-.51.21Z"/>
          <path class="cls-1" d="M29.04,96.1h-2.3c-.21,0-.39-.06-.53-.19s-.21-.24-.21-.36.07-.23.21-.36.32-.19.53-.19h2.3s0,1.09,0,1.09Z"/>
          <path class="cls-1" d="M37.9,95v1.09s-8.87,0-8.87,0c-.21,0-.39-.06-.53-.19s-.21-.24-.21-.36.07-.23.21-.36.32-.19.53-.19h.29c.46,0,.74-.05.83-.16.09-.11.14-.28.14-.52v-4.78s1.1,0,1.1,0v5.45s1.75,0,1.75,0v-5.45s1.1,0,1.1,0v5.45s1.58,0,1.58,0v-5.45s1.14,0,1.14,0v5.45s.95,0,.95,0Z"/>
          <path class="cls-1" d="M41.69,96.1h-3.79c-.21,0-.39-.06-.53-.19s-.21-.24-.21-.36.07-.23.21-.36.32-.19.53-.19h3.79s0,1.09,0,1.09Z"/>
          <path class="cls-1" d="M42.64,84.98h1.09s0,11.12,0,11.12h-2.04c-.21,0-.39-.06-.53-.19s-.21-.24-.21-.36.07-.23.21-.36.32-.19.53-.19h.95s0-10.02,0-10.02Z"/>
          <path class="cls-1" d="M45.42,85.04h1.1s0,11.06,0,11.06h-1.1s0-11.06,0-11.06Z"/>
          <path class="cls-1" d="M53.21,96.65c0,.5-.03,1-.1,1.47-.07.48-.2.9-.4,1.27-.2.37-.48.67-.85.9-.37.23-.86.35-1.48.35v-1.09c.44,0,.77-.09,1.01-.27.24-.18.41-.41.53-.71.11-.3.18-.64.2-1.03.02-.39.03-.79.03-1.22v-.23h-.59c-1.14,0-2.02-.25-2.65-.76s-.95-1.18-.95-2.02c0-.59.13-1.14.39-1.66.26-.52.62-.98,1.09-1.38s1.02-.73,1.67-.98c.64-.25,1.35-.41,2.12-.48v7.83ZM52.11,95v-4.89c-.93.25-1.68.66-2.24,1.21-.56.56-.84,1.2-.84,1.95,0,.53.21.96.64,1.26.42.31,1.1.46,2.01.46h.42Z"/>
          <path class="cls-1" d="M63.19,94.71c0,.2.08.3.25.3h.69v1.09s-.84,0-.84,0c-.36,0-.65-.12-.87-.36-.22-.24-.33-.58-.33-1.03l-.02-4.61c-.25.13-.55.28-.89.47-.34.19-.66.42-.95.69-.3.27-.55.58-.76.93-.21.35-.32.75-.32,1.2,0,.62.19,1.05.57,1.29.38.25.98.4,1.79.47l-.08,1.1c-.72-.04-1.29-.16-1.74-.36-.44-.2-.78-.43-1.02-.71s-.4-.57-.49-.88c-.08-.32-.12-.62-.12-.92,0-.77.2-1.44.61-2.01.41-.57.89-1.05,1.44-1.44.55-.39,1.12-.7,1.7-.94.58-.23,1.04-.4,1.39-.5v6.21ZM60.77,86.73c0,.2-.07.37-.21.51-.14.14-.31.21-.51.21s-.37-.07-.51-.21-.21-.31-.21-.51.07-.36.21-.51c.14-.14.31-.21.51-.21s.36.07.51.21c.14.14.21.31.21.51ZM63.15,86.73c0,.2-.07.37-.21.51s-.31.21-.51.21-.37-.07-.51-.21c-.14-.14-.21-.31-.21-.51s.07-.36.21-.51c.14-.14.31-.21.51-.21.2,0,.37.07.51.21.14.14.21.31.21.51Z"/>
          <path class="cls-1" d="M66.97,96.1h-2.83c-.21,0-.39-.06-.53-.19s-.21-.24-.21-.36.07-.23.21-.36.32-.19.53-.19h2.83s0,1.09,0,1.09Z"/>
          <path class="cls-1" d="M66.97,96.1c-.21,0-.39-.06-.53-.19s-.21-.24-.21-.36.07-.23.21-.36.32-.19.53-.19h2.11c-.91-.62-1.37-1.5-1.37-2.63,0-.53.1-1.01.31-1.42.2-.41.49-.76.87-1.05.38-.29.83-.51,1.35-.65.52-.15,1.1-.22,1.73-.22.24,0,.45,0,.63.02.18.01.41.04.67.08v6.97s-6.3,0-6.3,0ZM68.8,92.4c0,.69.28,1.26.83,1.71.55.45,1.4.75,2.54.91v-4.91h-.08s-.05,0-.06-.01-.04-.01-.06-.01c-.38,0-.76.03-1.14.09-.38.06-.72.18-1.02.35s-.54.4-.72.7c-.18.3-.28.68-.28,1.16ZM72.23,86.43c0,.2-.07.36-.21.5-.14.14-.31.21-.51.21s-.37-.07-.51-.21c-.14-.14-.21-.31-.21-.5s.07-.37.21-.51c.14-.14.31-.21.51-.21s.37.07.51.21.21.31.21.51Z"/>
          <path class="cls-1" d="M74.95,96.1v-11.06s1.1,0,1.1,0v9.96s.95,0,.95,0v1.09s-2.04,0-2.04,0Z"/>
          <path class="cls-1" d="M80.78,96.1h-3.79c-.21,0-.39-.06-.53-.19s-.21-.24-.21-.36.07-.23.21-.36.32-.19.53-.19h3.79s0,1.09,0,1.09Z"/>
          <path class="cls-1" d="M80.78,96.1c-.21,0-.39-.06-.53-.19s-.21-.24-.21-.36.07-.23.21-.36.32-.19.53-.19h1.52c-.24-.32-.43-.7-.57-1.12-.14-.42-.21-.87-.21-1.35,0-.49.07-.95.22-1.39.15-.43.35-.82.61-1.15.26-.33.56-.59.92-.78.35-.19.72-.29,1.12-.29.39,0,.76.1,1.11.29.34.19.65.45.91.78.26.33.46.71.61,1.15.15.44.22.9.22,1.39s-.07.93-.21,1.35c-.14.42-.33.79-.57,1.12h1.52s0,1.09,0,1.09h-7.18ZM83.9,86.95c0,.2-.07.37-.21.5-.14.14-.31.2-.51.2s-.37-.07-.51-.2c-.14-.14-.21-.3-.21-.5s.07-.37.21-.51c.14-.14.31-.21.51-.21s.37.07.51.21c.14.14.21.31.21.51ZM82.62,92.53c0,.63.15,1.18.44,1.65.29.47.66.74,1.1.83h.44c.44-.09.8-.36,1.1-.83s.44-1.02.44-1.65c0-.34-.05-.66-.14-.96-.09-.3-.22-.57-.38-.79-.16-.23-.35-.41-.56-.54-.21-.13-.44-.2-.67-.2s-.47.07-.68.2-.41.31-.57.54c-.16.23-.29.49-.38.79-.09.3-.14.62-.14.96ZM86.28,86.95c0,.2-.07.37-.21.5-.14.14-.31.2-.51.2s-.37-.07-.51-.2-.21-.3-.21-.5.07-.37.21-.51c.14-.14.31-.21.51-.21s.36.07.51.21c.14.14.21.31.21.51Z"/>
          <path class="cls-1" d="M89.84,96.1h-1.88c-.21,0-.39-.06-.53-.19s-.21-.24-.21-.36.07-.23.21-.36.32-.19.53-.19h1.88s0,1.09,0,1.09Z"/>
          <path class="cls-1" d="M89.84,96.1c-.21,0-.39-.06-.53-.19s-.21-.24-.21-.36.07-.23.21-.36.32-.19.53-.19h2.84s0-5.37,0-5.37h1.09s0,5.37,0,5.37h.95v1.09s-4.89,0-4.89,0ZM91.06,88.45c-.2,0-.37-.07-.51-.21-.14-.14-.21-.31-.21-.51s.07-.36.21-.5c.14-.14.31-.21.51-.21s.37.07.51.21c.14.14.21.31.21.5s-.07.37-.21.51c-.14.14-.31.21-.51.21ZM92.85,86.01c0,.2-.07.37-.21.52s-.31.22-.51.22-.37-.07-.51-.22c-.14-.15-.21-.32-.21-.52s.07-.36.21-.49c.14-.13.31-.2.51-.2s.37.07.51.2.21.3.21.49ZM93.21,88.45c-.2,0-.37-.07-.51-.21-.14-.14-.21-.31-.21-.51s.07-.36.21-.5c.14-.14.31-.21.51-.21s.37.07.51.21.21.31.21.5-.07.37-.21.51-.31.21-.51.21Z"/>
          <path class="cls-1" d="M98.54,96.1h-3.79c-.21,0-.39-.06-.53-.19s-.21-.24-.21-.36.07-.23.21-.36.32-.19.53-.19h3.79s0,1.09,0,1.09Z"/>
          <path class="cls-1" d="M99.48,84.98h1.09s0,11.12,0,11.12h-2.04c-.21,0-.39-.06-.53-.19s-.21-.24-.21-.36.07-.23.21-.36.32-.19.53-.19h.95s0-10.02,0-10.02Z"/>
          <path class="cls-1" d="M102.26,85.04h1.1s0,11.06,0,11.06h-1.1s0-11.06,0-11.06Z"/>
          <path class="cls-1" d="M113.3,96.1h-1.16c-.37,0-.78-.05-1.23-.15-.46-.1-.88-.26-1.28-.48-.4-.22-.74-.52-1.01-.89s-.41-.83-.41-1.38c0-.51.1-.96.29-1.38.2-.41.45-.79.76-1.12s.66-.62,1.04-.87c.39-.25.77-.47,1.15-.64s.73-.32,1.06-.42.59-.18.79-.22v7.56ZM112.2,94.96v-4.88c-.25.11-.55.26-.88.44-.34.18-.65.4-.95.66-.29.26-.55.56-.76.89-.21.34-.32.72-.32,1.14,0,.32.09.6.27.82.18.23.41.41.69.55.28.14.58.24.91.29.32.06.62.08.91.08h.13ZM111.07,86.73c0,.2-.07.37-.21.51s-.31.21-.51.21-.37-.07-.51-.21c-.14-.14-.21-.31-.21-.51s.07-.36.21-.51c.14-.14.31-.21.51-.21s.37.07.51.21c.14.14.21.31.21.51ZM113.44,86.73c0,.2-.07.37-.21.51-.14.14-.31.21-.51.21s-.37-.07-.51-.21c-.14-.14-.21-.31-.21-.51s.07-.36.21-.51c.14-.14.31-.21.51-.21.2,0,.37.07.51.21.14.14.21.31.21.51Z"/>
          <path class="cls-1" d="M116.29,96.58c0,.46-.03.93-.08,1.41-.06.48-.18.91-.38,1.3-.2.39-.48.71-.86.96s-.89.37-1.54.37v-1.1c.41,0,.73-.08.97-.25.24-.17.42-.39.54-.66.12-.27.19-.59.22-.94.03-.35.04-.72.04-1.1v-6.97s1.1,0,1.1,0v5.39s.95,0,.95,0v1.09s-.95,0-.95,0v.48Z"/>
          <path class="cls-1" d="M119.11,96.1h-1.88c-.21,0-.39-.06-.53-.19s-.21-.24-.21-.36.07-.23.21-.36.32-.19.53-.19h1.88s0,1.09,0,1.09Z"/>
          <path class="cls-1" d="M121.94,96.1h-2.83c-.21,0-.39-.06-.53-.19s-.21-.24-.21-.36.07-.23.21-.36.32-.19.53-.19h2.83s0,1.09,0,1.09Z"/>
          <path class="cls-1" d="M124.05,89.61h1.1s0,6.49,0,6.49h-3.2c-.21,0-.39-.06-.53-.19s-.21-.24-.21-.36.07-.23.21-.36.32-.19.53-.19h2.11s0-5.39,0-5.39ZM125.38,87.01c-.32-.14-.62-.21-.91-.21-.18,0-.33.04-.44.11-.11.07-.17.2-.17.38,0,.27.11.47.32.59.21.12.47.18.78.18h.53v.55s-2.82,0-2.82,0v-.55s.91,0,.91,0c-.06-.03-.11-.12-.17-.28-.06-.16-.08-.32-.08-.49,0-.38.12-.65.36-.81.24-.16.5-.23.78-.23.38,0,.76.08,1.14.23l-.21.53Z"/>
          <path class="cls-1" d="M126.85,85.04h1.1s0,11.06,0,11.06h-1.1s0-11.06,0-11.06Z"/>
          <path class="cls-1" d="M129.38,89.82c.28-.24.64-.46,1.07-.67.44-.21.95-.32,1.56-.32.56,0,1.05.12,1.47.35.42.23.77.54,1.05.92.28.38.48.81.62,1.29s.21.98.21,1.48c0,.38-.03.74-.09,1.1-.06.35-.14.67-.23.95-.09.28-.18.52-.28.73-.1.2-.17.35-.23.45h-5.22s0-1.09,0-1.09h4.53c.08-.21.18-.49.27-.84.1-.35.15-.78.15-1.28,0-.39-.05-.77-.16-1.13-.11-.36-.25-.67-.44-.94-.19-.27-.43-.48-.72-.64-.29-.16-.61-.24-.96-.24-.29,0-.6.05-.91.16-.31.11-.66.3-1.05.58l-.65-.84Z"/>
        </g>
      </g>
      <g>
        <path class="cls-3" d="M91.12,60.11c-1.71,3.38-3.85,5.48-6.78,7.34-4.27,2.71-8.72,2.06-10.17,1.22,0,0,.12.28.16.38.05.1.11.26.14.35.57,1.54.19,3.14-1.91,3.38-.55.06-1.17.09-1.89.43-.5.24-1.07.62-1.69,1.27-.26.27-.8.96-1.07,1.51h0s0,0,0,0h0s0,0,0,0c-.27-.54-.81-1.24-1.07-1.51-.62-.64-1.18-1.03-1.69-1.27-.72-.34-1.34-.36-1.89-.43-2.09-.24-2.47-1.84-1.9-3.38.03-.09.09-.24.14-.34l.15-.38c-1.05.61-3.68,1.09-6.74.26-.07-.02-.22-.06-.3-.08-2.46-.65-4.63-1.87-6.47-3.61-2.22-2.08-3.44-4.34-3.9-5.2-4.06-8.4-3.49-20.86-3.51-22.19-.14-14.39,3.05-22.46,5.79-26.36-.82-1.09-1.33-1.75-1.36-1.78-.28-.27-.75-.7-1.72-.84-.27-1.89-.97-4.13-.97-4.13,0,0,1.89,1.36,3.64,2.12-.13.95.11,1.53.35,1.87.03.05.43.57,1.09,1.44,1.21-1.51,2.5-2.61,4.53-3.78.49-.28,1.01-.54,1.57-.8-.04-.77.23-1.49.73-2.01.02-.44.39-1,.84-1.17h0c.47-.13,1.16.09,1.51.41.76.11,1.49.51,2.03,1.11,1.67-.35,3.56-.62,5.74-.75.26-1.06.94-1.82,1.79-2.24.22-.46.85-.92,1.4-.95h0s0,0,0,0h0c.54.03,1.18.49,1.4.95.84.42,1.53,1.19,1.79,2.24,2.17.13,4.07.4,5.73.75.54-.6,1.27-1,2.03-1.11.35-.32,1.05-.54,1.51-.42h0c.45.17.82.72.84,1.17.5.52.77,1.24.73,2.01.56.25,1.09.52,1.57.8,2.03,1.17,3.44,2.45,4.62,3.83.72-.96,1.16-1.54,1.2-1.59.24-.35.48-.92.35-1.87,1.76-.76,3.64-2.12,3.64-2.12,0,0-.7,2.24-.97,4.12-.97.14-1.44.57-1.72.84-.04.04-.62.79-1.54,2.02,2.72,3.93,5.86,11.93,5.73,26.23.02,1.14.56,13.85-3.5,22.26M82.13,17.9c-4.27-4.21-10.38-4.5-11.97-4.38-.37.03-.8.32-.33.94-.34.16-1.65.04-2.13-.42-.49.46-1.79.57-2.14.42.47-.62.05-.92-.33-.94-1.6-.12-8.03.51-11.91,4.29,2.14,2.83,6.61,8.73,6.7,8.85.08.11.31.26.58.26.03,0,.07,0,.11,0,.23-.01.45-.17.69-.43.46-.5.69-.79,1.15-1.25.88-.9,1.71-1.58,1.85-1.71.37-.34.49-.62.5-.9-.02-.32-.28-.45-.44-.65,0,.03-.05.08-.08.11-.14-.11-.31-.61-.31-.61l-.09.23s-.33-.79-.85-.72c-.72.1-1.18-.21-1.23-.23-.04-.01-.07.23-.06.5,0,0-.02,0-.03-.01-.49-.42-.64-1.49.3-2.18.58-.43.69-.41,1.14-.62.19-.09.34-.27.38-.32.3-.37.91-.58,1.25-.67.44-.12,1.47-.26,2.5-.2.58.03,1.13.16,1.52.32.31.12,1.19.78,1.68,1.42.32.42.88,1.62,1.19,2.38.65,1.59.57,1.42,1.02,2.48.5,1.21.81,1.88,1.3,2.56.17.23.35.32.67.34.24.01.49-.03.7-.16.2-.12.24-.19.29-.28,1.5-2.18,4.29-5.67,6.38-8.42"/>
        <g>
          <path class="cls-2" d="M71.68,64.78s-.05.07-.08.09c-.01,0-.02.01-.02.01,0,0-.01,0-.02,0-.09-.04-.35-.2-.67-.49.34,1.29.64,3.38.72,5.09.92-.38,1.65-.1,2.12.3-.01-.03-1.84-4.51-2.03-5,0,0,0,0,0,0"/>
          <path class="cls-2" d="M80.22,23.12s.02,0,.04.01c.05.01.1.03.15.05.3.12.55.29.77.52.86.9,2.27,3.07,3.09,5.32.44,1.41.79,3.34.7,4.99h0s-.51,9.31-1.51,18.24c-.91,8.11-1.41,9.17-1.41,9.17-.58-.75-.82-1.7-.96-2.24l-.09.08s-.53-.81-.85-2.41c-.36-1.82-.43-5.07-.39-6.64h0s.02-.45-.33-1.24c-.17-.37-.3-.74-.39-1.13,0,0,0-.01,0-.02-.55-2.49-1.62-3.2-2.21-3.97-.74-.97-1.2-1.55-1.46-2.12-.43.41-.77.84-.79,1.07.15,1.5.29,2.57.06,3.34-.09-.05-.23-.2-.32-.26.1,1-.37,2.15-.07,3.06l-.59-.08c.03.07.05.12.07.14.08.11.16.18.3.26.03.01.15.07.19.09.05.03.2.08.6.21.34-.75.08-1.47-.26-1.87-.28-.34.06-.84.64-.58.75.33,1.56.8,2.42,1.62,1.23,1.17,1.59,2.29,1.33,2.51-.2.17-.35.14-.6.05,0,.04,0,.09-.02.13-.07.22-.25.38-.53.46l-.02.04c-.13.18-.35.25-.72.24-.32,0-.67-.19-.72-.22-.06-.03-.14-.08-.24-.18-.11.08-.23.18-.35.28,0,.01.13.15.13.15.08.08.48.52.57,1.04,0,0,.03.16.03.24,1.02,1.21,2.21,2.68,3.07,4.14.91,1.54,1.32,2.83,1.32,2.83,0,0-.48.15-1.12.01.23.62.34,1.16.3,1.58-.49.02-1.13-.04-1.8-.4.04.21.08.42.1.63.91.59,1.58,1.13,1.94,1.39-2.92,1.37-7.14.74-7.23.73-.24-.03-.46-.07-.65-.09,0,0-.13-.03-.13-.03,0,0,1.04,2.47,1.23,2.88,1.85.85,3.58,1.4,6.23.96,0,0,.45-.04,1.58-.43,1.16-.39,3.34-1.67,5.01-3.24,2.08-1.95,3.35-4.01,3.76-4.81,3.23-6.31,3.76-15.66,3.76-19.44,0-1.24,0-1.91,0-1.96-.02-1.27-.1-3.17-.14-4.13-1.13.98-2.54,2.02-6.95,4.44l-.78.45-.04-.92c0-.08-.05-7.75-3.94-17.4-.6.8-1.22,1.61-1.83,2.43"/>
          <path class="cls-2" d="M64.21,69.48c.08-1.49.32-3.53.62-4.97-.08.07-.24.18-.3.23-.06.05-.19.13-.24.15-.01,0-.02,0-.02,0,0,0,0,0-.02-.01-.02-.01-.09-.1-.1-.12-.32.78-2.04,4.98-2.05,5.01.47-.39,1.2-.68,2.11-.3"/>
          <path class="cls-2" d="M71.05,70.59c.06-1.32-.56-5.18-.83-6.76h0c-.09-.03-.18-.07-.28-.1-.08.21-.16.43-.27.65-.19.4-.49.82-.55.82-.05,0-.86-.55-1.37-1.61-.51,1.05-1.31,1.58-1.36,1.59-.06,0-.36-.42-.55-.82-.11-.23-.2-.45-.27-.68-.01.01-.02.03-.03.04-.25,1.62-.83,5.56-.77,6.87-1.75-1.15-2.8,0-2.45.8.04.07.08.13.12.19.21.28.48.43.87.46.56.04,1.31.09,2.15.49.77.36,1.61.96,2.45,2.02.84-1.06,1.68-1.66,2.45-2.02.84-.4,1.59-.45,2.16-.49.38-.03.65-.21.86-.46.05-.05.08-.12.12-.19.36-.81-.7-1.96-2.45-.8"/>
        </g>
        <g>
          <path class="cls-2" d="M45.22,59.58c.43.79,1.58,2.93,3.66,4.88,1.58,1.49,3.42,2.55,5.47,3.2.12.04.35.12.47.16,2.36.75,4.92.59,7.44-.67l.03-.07c.17-.47,1.19-2.87,1.19-2.87-.04,0-.08.02-.12.02-.45.08-.92.15-1.38.19-.27.03-4.29.65-7.2-.72.43-.3,1.31-1.04,2.52-1.74.02-.12.04-.25.06-.37-.67.36-1.31.42-1.8.4-.04-.42.08-.96.3-1.58-.64.14-1.12-.01-1.12-.01,0,0,.42-1.29,1.32-2.83.71-1.21,1.65-2.43,2.54-3.5-.05-.12-.09-.25-.09-.4,0-.17.03-.31.05-.41.1-.54.53-1,.57-1.05.03-.03.15-.16.17-.19-.12-.11-.24-.2-.35-.28-.12.12-.21.19-.29.22-.34.15-.54.21-.72.22-.37.01-.58-.06-.71-.24l-.02-.04c-.27-.08-.46-.24-.53-.46-.01-.05-.02-.09-.02-.14-.2.07-.35.08-.53-.07-.26-.22.1-1.35,1.33-2.51.86-.82,1.67-1.29,2.42-1.62.58-.25.92.24.64.58-.34.41-.6,1.12-.26,1.88.35-.12.49-.17.54-.2.14-.05.3-.1.48-.34.02-.02.04-.07.06-.13l-.51.06c.26-.64-.14-2.22.12-3.24-.07.05-.25.17-.35.2-.19-.93-.16-2.41-.09-3.13-.02-.2-.3-.55-.69-.93-.27.52-.71,1.07-1.38,1.95-.59.78-1.66,1.48-2.21,3.97,0,0,0,.01,0,.02-.03.1-.05.2-.08.29h0c-.03.11-.07.21-.1.32-.02.07-.05.13-.08.2-.04.11-.09.21-.14.32-.36.79-.33,1.25-.33,1.25h0c.04,1.56-.03,4.81-.39,6.63-.32,1.6-.85,2.41-.85,2.41l-.08-.08c-.14.54-.38,1.49-.96,2.24,0,0-.5-1.06-1.41-9.17-1-8.92-1.5-18.24-1.5-18.24h0c-.09-1.65.23-3.58.7-4.98.77-2.27,2.22-4.42,3.09-5.32.23-.24.51-.44.84-.54,0,0,.19-.05.29-.06h0c-.63-.84-1.26-1.68-1.89-2.51-3.93,9.7-3.98,17.42-3.98,17.49l-.04.92-.78-.45c-4.41-2.43-5.82-3.46-6.95-4.45-.05.96-.14,4.11-.14,4.11,0,.05,0,.74,0,1.98,0,3.78.68,13.06,3.76,19.44"/>
          <path class="cls-1" d="M73.67,32.01c.4.51-.08,1.31-.43,1.86.16-.75.25-1.35.43-1.86M63.03,27.97c.35-1.26,1.06-1.99,1.31-2.72-1.27.9-1.53,2.28-1.31,2.72M71.07,38.32c.77-.95,1.17-2.04.84-3.16-.69,1.07-.7,2.16-.84,3.16M73.44,29.87c-.54.12-.34,2.27-.36,2.26,0-.02.83-1.46.36-2.26M62.69,33.62c-.3,1.26.96,2.48.97,2.5,0,.02,0-1.5-.97-2.5M62.67,35.67c-.05.22.14.92.39,1.33.44.73.77,1.07,1.12,1.41-.54-.82-.97-2.34-1.51-2.75M73.03,26.6c-.08.65.67,2.13.7,2.24.02-.11.43-1.34-.7-2.24M61.51,29.62c-.1-.62.67-1.2.41-2.2-.77.87-.62,1.69-.41,2.2M63.59,31.24c-.02.53-.01,1.03-.14,1.62-.36-.09-.53-.33-.79-.55.21.72,1.1,1.54,1.24,1.75.12-.97.16-2.16-.31-2.81M68.09,19.04c.24.24.99.56,1.41.95-.06-.65-.62-1-1.41-.95M70.38,24.36c0-.48-.15-1.32-1.25-1.49-.07.57.89.91,1.25,1.49M65.79,18.68s.09.15.05.41c-.04.26-.16.51-.54.6-.41.1-.84-.16-.85-.59,0-.11.03-.26.08-.36-.14.02-.14.11-.28.28-.08.1-.21.09-.4.22,0-.25.28-.65.59-.79.46-.21,2.05-.28,3.17.31-.39-.07-.74-.05-1.11-.07-.46-.02-.7-.02-.7-.02M65.58,18.69s-.41-.02-.44.05c-.04.07.22.19.3.22.05.02.12-.01.16-.08.04-.07.03-.15-.02-.18M67.15,19.03c.35.43.72.8,1.33.76-.44-.52-1.04-.71-1.33-.76M73.04,34.58c-.5.67-.64,2.2-.8,2.71.18-.16,1.09-2.33.8-2.71M70.05,21.12c-.03-.14-.39-.64-1.15-.8.21.19.33.54.41.67-.15.08-.55.12-.69.14.28.19.79.24,1.42-.01M69.95,25.9c-.51.55-.03,1.65.26,2.63.27-.48.59-2.11-.26-2.63M72.65,28.41c-.29,1.34-.87,1.86-.87,1.85,0,0-.47-.38-.86-.9-.02,1.09.91,2.14.89,2.13,0,0,1.14-.92.85-3.09M71.21,23.76c-.11.61.87,1.53.87,1.54,0,0,.13-1.17-.87-1.54M69.18,22.3c.25.25,1.06.44,1.51.86-.06-.69-.77-1.12-1.51-.86M82.8,29.9c-.22,2.27-.39,2.74-.62,3.14-.19-.14-.35-.61-.35-.61-.07.41.03,1.04.36,1.38.45-.59.76-1.85.61-3.91M61.94,33.52c-.17-1.07-.1-1.79-.63-2.74-.17,1.13.51,2.57.63,2.74M78.81,35.98s-.35-.86.46-3.46c-1.19,2.64-1.03,3.36-.77,4.26.51-.38.71-.64.82-1.24-.19.3-.52.44-.52.44M78.02,33.73s-.28-.58.44-2.84c-1.33,2.14-.75,3.64-.75,3.64,0,0,.7-.37.88-1.18-.2.27-.58.38-.58.38M83.82,35.21s.58-.96.28-2.56c-.07,1.51-.41,2.07-.41,2.07,0,0-.21-.14-.25-.25-.01.46.38.74.38.74M82.64,33.69c-.04.53.4.86.4.86,0,0,.69-1.06.42-2.9-.14,1.71-.5,2.3-.5,2.3,0,0-.28-.14-.32-.26M82.38,28.38c-.34,2.54-.72,3.12-.98,3.56-.19-.16-.37-.78-.37-.78-.09.46-.02,1.17.34,1.56.52-.65,1.09-2.02,1.01-4.34M72.32,43.29s0-.4-.14-.55c-.11.49-.76,1.54-.62,2.75.3-1.08,1.13-1.3,1.35-2.31.18.12.34.17.53.19-.1-.4-.39-.81-.49-1.64-.09.28-.2,1.09-.63,1.55M81.76,27.43c-.33,2.11-.89,2.99-1.18,3.41-.23-.7-.17-1.38-.17-1.38-.32.99-.23,1.81.11,2.23.55-.61,1.35-2.5,1.24-4.26M79.73,29.39c-.16-.71-.07-1.79-.07-1.79-.41.96-.36,2.27-.07,2.71.6-.56,1.44-2.2,1.49-3.96-.52,2.07-1.03,2.65-1.36,3.03M69.24,33.44s.98-.91,1.06-2.78c-.54.92-1.15,1.44-1.15,1.44,0,0-.52-.35-.95-.88,0,1.19,1.05,2.22,1.04,2.22M54.69,30.84c-.29-.41-.84-1.3-1.18-3.41-.1,1.76.69,3.65,1.25,4.26.33-.42.43-1.24.1-2.23,0,0,.05.68-.17,1.38M56.46,35.98s-.33-.15-.52-.44c.11.6.32.86.82,1.24.26-.9.42-1.61-.77-4.26.81,2.59.46,3.46.46,3.46M55.55,29.39c-.32-.38-.84-.96-1.36-3.03.06,1.76.89,3.4,1.5,3.96.29-.44.35-1.75-.07-2.71,0,0,.08,1.07-.08,1.79M63.23,19.24c-.07.04-.13.26.12.27.2,0,.25-.22.25-.22,0,0-.26-.11-.36-.04M53.09,33.03c-.23-.4-.4-.86-.62-3.14-.15,2.05.16,3.32.61,3.91.33-.33.42-.96.35-1.38,0,0-.16.47-.35.61M51.58,34.72s-.34-.56-.41-2.07c-.3,1.61.28,2.56.28,2.56,0,0,.39-.28.38-.74-.04.11-.25.25-.25.25M52.31,33.95s-.36-.59-.5-2.3c-.27,1.84.42,2.9.42,2.9,0,0,.43-.33.4-.86-.04.12-.32.26-.32.26M53.88,31.93c-.27-.43-.64-1.01-.98-3.56-.08,2.31.49,3.69,1.01,4.34.35-.39.43-1.1.34-1.56,0,0-.18.63-.37.78M63.53,45.42c.15-1.21-.51-2.25-.61-2.75-.13.15-.14.55-.14.55-.44-.46-.54-1.27-.63-1.55-.1.83-.39,1.24-.49,1.64.18-.02.35-.07.53-.19.22,1.01,1.05,1.23,1.35,2.31M57.25,33.73s-.38-.1-.58-.38c.18.81.88,1.18.88,1.18,0,0,.58-1.5-.75-3.64.73,2.25.45,2.84.45,2.84M69.2,39.98c.23-.52.8-1.49.68-2.62-.5.43-.73,1.95-.68,2.62M69.13,43.42c.24-.56.73-1.11.72-2.91-.54.54-.77,2.23-.72,2.91M69.4,34.99c-.21.76-.55,1.25-1.11,1.82-.24-.22-.48-.48-.8-1.13-.13,1.26.59,1.99,1,2.26.26-.21,1.09-1.4.9-2.96M68.07,44.12c.28-.72.26-1.63-.05-2.02-.24.77-.26,1.46.05,2.02M67.27,41.96c.27-.83.21-1.83-.15-2.27-.23.84-.22,1.62.15,2.27M91.12,60.11c-1.71,3.38-3.85,5.48-6.78,7.34-4.27,2.71-8.72,2.06-10.17,1.22,0,0,.12.28.15.38.05.1.11.26.14.35.57,1.54.19,3.14-1.91,3.38-.55.06-1.17.09-1.89.43-.5.24-1.07.62-1.69,1.26-.26.27-.8.97-1.07,1.51h0s0,0,0,0c-.27-.54-.81-1.24-1.07-1.51-.62-.64-1.18-1.02-1.69-1.26-.72-.34-1.34-.36-1.89-.43-2.09-.24-2.47-1.84-1.9-3.38.03-.08.09-.24.14-.34l.15-.38c-1.06.61-3.68,1.09-6.74.26-.08-.02-.23-.06-.3-.08-2.46-.65-4.63-1.87-6.47-3.61-2.22-2.09-3.44-4.35-3.9-5.2-4.06-8.4-3.49-20.86-3.51-22.19-.14-14.39,3.05-22.46,5.79-26.36-.82-1.09-1.33-1.74-1.36-1.78-.28-.28-.75-.71-1.72-.84-.27-1.89-.97-4.13-.97-4.13,0,0,1.89,1.36,3.64,2.12-.13.95.11,1.53.35,1.87.03.05.43.57,1.09,1.44,1.21-1.51,2.5-2.61,4.53-3.78.49-.28,1.01-.54,1.57-.8-.04-.77.23-1.49.73-2.01.02-.44.39-1,.84-1.16h0c.47-.13,1.17.09,1.51.41.77.11,1.5.51,2.03,1.11,1.67-.36,3.56-.62,5.74-.75.26-1.06.94-1.82,1.79-2.24.22-.46.85-.92,1.4-.95h0s0,0,0,0h0c.54.03,1.18.49,1.4.95.84.42,1.53,1.19,1.79,2.24,2.17.13,4.07.4,5.74.75.54-.6,1.27-1,2.03-1.11.34-.33,1.04-.54,1.51-.42h0c.45.17.82.73.85,1.17.5.52.77,1.24.73,2.01.56.25,1.08.52,1.57.8,2.03,1.17,3.44,2.45,4.62,3.84.72-.96,1.16-1.54,1.2-1.59.24-.35.48-.92.35-1.87,1.76-.76,3.64-2.12,3.64-2.12,0,0-.7,2.24-.97,4.13-.97.14-1.44.57-1.72.84-.04.04-.62.79-1.54,2.02,2.72,3.93,5.86,11.93,5.73,26.23.02,1.14.56,13.85-3.5,22.26M89.82,14.91c-1.63.37-2.78.36-3.41.34-.44.94-.79,1.81-.76,3.41-.65-.19-1.1-.46-1.46-.81-.52.69-1.05,1.39-1.59,2.11,3.56,8.5,4.11,15.6,4.19,17.69,5.78-3.3,6.62-4.24,6.9-4.66-.42-7.47-1.48-13.21-3.86-18.08M81.95,36.97c-.1.83-.1,1.54.1,2.3.37-.52.62-1,.89-1.9,0,.72.2,1.53.35,1.85.49-.76.77-3.82.77-3.82,0,0,.02.08.27.17.26-1.09.12-3.33-.1-4.39-.38-1.86-1.07-4.11-3.2-6.78-1.1-1.38-2.03-.76-2.95.32-1.49,1.73-1.81,2.5-3.61,2.85-.18.03-.04.13.31.12,2.15-.04,2.83-1.56,3.47-2.32.43-.51.98-.96,1.44-.68.17.11.76.84.15,2.63,0-.41-.15-.76-.23-.86-.28,1.19-.66,2.15-1.1,2.96-.06-.2-.1-.38-.14-.63-.21,1.45-1.43,2.96-1.61,5.03-.13-.22-.24-.37-.25-.9-.92,1.81-1.88,5.06-1.28,6.69-.02-1.66.93-4.04,1.43-4.79-.63,2.13-1.37,4.76-.73,6.34.05-1.36.78-3.57,1.3-4.49-.87,3.5-1.23,5.28-.26,6.63-.17-1.31.33-3.3,1.01-4.92-.45,2.73-1.1,5.11.1,6.31-.18-1.79.46-4.16.81-5-.38,2.58-.72,5.07.01,6.37.02-.42.06-.88.13-1.4.29-2.17.72-3.5.72-3.5,0,0-.25,1.84-.38,4.08-.13,2.18.23,3.2.48,3.63.22-2.97.54-5.54.91-6.73,0,0-.32,2.78-.53,7.04-.32,6.48.49,8.52.74,9.12,0,0-.05-.12-.08-.9-.02-.66-.02-.61.05-1.37.02-.22-.51-1.34-.44-2.86.21-4.26.73-8.44,1.18-10.39-.05.78-.79,9.91-.74,11.07.06,1.23.39,1.77.38,1.95-.06,2.39.16,3.35.55,4.25,0,0,.23-.85.41-1.92-.04.06-.11.18-.22.22-.28-.78-.43-2.13-.24-3.53.03-.25-.31-.57-.29-1.69.07-2.82.83-8.28,1.17-9.88.04.21-.73,9.2-.74,9.79-.02,1.18.28,1.53.26,1.75-.07.85-.04,2.42.07,2.81.11-.35.17-.99.17-.99,0,0,.71-5.49,1.22-11.73.25-3.08.58-6.92.67-8.61-.04-.03-.07-.06-.07-.06,0,0-.28,3.27-1.1,4.42-.22-.22-.49-1.44-.47-1.85-.18.65-.93,1.52-.93,1.52,0,0-.26-.64-.22-1.72-.25.39-.47.68-.84.9-.15-.37-.34-.8-.32-1.87-.13.19-.37.47-.75.72-.1-.25-.65-1.17.34-4.59-.4,3.15-.16,3.52-.08,3.78.2-.09.39-.26.51-.37.04-.57.13-1.29.3-2.22-.14,2.51.04,3.3.22,3.78.23-.18.56-.64.99-1.73M73.96,41.93s0-.06.02-.08c0,0,.01-.01.02-.02.01,0,.03,0,.03,0,.05,0,.11.03.22.1.06.04.14.09.23.14-.13-.29-.16-.73-.19-1.23-.03-.5-.06-1.06-.22-1.57,0,0,0,.01,0,.02,0-.01,0-.03-.01-.04-.08.25-.26.48-.44.71-.26.34-.52.69-.6,1.16v.09s-.09-.07-.09-.07c-.09-.08-.2-.19-.28-.32-.03-.04-.05-.08-.07-.12h0s-.01-.02-.02-.03c-.2.74-1.46,2.33-1.75,2.66h0c-.04.06-.52.77-.71,2.55-.18,1.68,0,2.72,0,2.72l.45-.49s.02.47-.04,1.01c-.04.42-.18.75-.18.75,0,0,.88.15,1.57-.68l.12.33c.11.32.2.7-.06.9-.04.03-.47.41-.41.77.02.13.09.25.25.36h.02s0,.03,0,.03c.02.2.17.32.27.37-.04-.17-.01-.28,0-.35.09-.24.26-.3.39-.31.1,0,.18.02.18.02h.03s0,.03,0,.03c0,0,.1,1,.19,1.42.08.37.17.85.23,1.38.01.12.02.24.04.36.04.35.24.38.42.41.09.02.33,0,.43,0h.02s-.02.02-.02.02c-.27.07-.25.18-.24.21.03.16.12.35.03.67l.04.04c.4-.22.4-.59.36-.92v-.03s.02-.01.02-.01c.3-.18.23-.79-.21-1.72-.2-.43-.29-1.16-.16-1.23,0,0,.02,0,.02,0,.07-.01.15,0,.36.3.14.21.29.39.47.61.17.21.29.41.29.59,0,.07-.02.12-.05.14-.03.02-.07.03-.13.04-.09,0-.2,0-.28-.02.1.1.47.52.58.39.28-.32.02.2.51.25.31.02.54-.2.55-.58,0-.14-.02-.22-.04-.34-.06-.36-.34-.72-.48-.86l-.11-.12c-.81-.9-.75-1.1-.7-1.18.08-.14.15-.18.37-.19.32,0,.66.04.68.05.33.06.87.15.85.32,0,.03-.04.08-.08.09-.11.05-.3.11-.33.07.03.05.15.14.31.21.14.07.7.22.87-.04l.05-.12c.1,0,.37-.04.43-.23.05-.17-.17-.42-.41-.54-.19-.1-.75-.32-1.21-.46-.18-.05-.41-.1-.59-.15l-.98-.26s-.54-.17-.73-.26c-.1-.04-.17-.08-.21-.1-.17-.09-.29-.19-.41-.36-.11-.15-.21-.55-.33-.99.12.07.41.27.78.32-.03-.15-.05-.63-.03-.88.15-1.62.19-2.55.19-2.55,0,0,.28.29.33.34.05-.28-.05-.96-.1-1.64-.04-.46-.17-1.23-.32-1.89M75.12,49.65l.76.2c.11.03.23.06.36.09.13-.37.2-.74.18-1.11-.02-.42.95.47,1.59,1.11.27.27.32.15.17-.06-.64-.88-1.91-1.71-2.27-1.93-.61-.38-.92-.29-.71.05.24.38.19,1-.08,1.65M75.96,55.96c.69.82,1.78,2.37,2.2,2.79.9.9,1.28,1,1.97,1.04-.22-.61-.47-1.2-1.52-2.79-.54-.82-1.45-2.01-2.17-2.94h0s-.03.07-.05.11c-.07.11-.15.21-.26.29-.16.11-.36.16-.56.14-.2-.02-.37-.1-.48-.22-.12.01-.23-.02-.35-.09.04.34-.02.61-.19.78,0,.21-.04.64-.38.96.03.05.05.07.05.07.24.42.14.63.02.77-.1.12-1.25,1.39-1.5,1.62-.3.27-.63-.04-.63-.04l-.19-.16s-.29.3-.53.53c.02.02.04.04.06.06h0c.37.34.82.6,1.29.79.48.2,1.37.52,2.31.91h0c-.21-.5-.5-1.25-.75-2.16.26.38,1,1.65,1.47,2.47h0c.07.03.73.35.99.48.18.09.81.42.94.5-.05-.41-.14-.71-.14-.71,0,0-.58-.57-.97-1.11-.8-1.1-1.31-2.23-1.56-3,.9,1.3,1.13,1.67,1.49,2.12,1.13,1.46,2.34,2.1,2.81,2.11-.16-.81-.46-.99-.46-.99,0,0-.58-.46-1.19-1.27-.53-.69-1.16-1.72-1.74-3.09M72.99,63.82c1.62.2,5.08.16,6.32-.32-.47-.38-2.45-1.64-5.46-2.86-.63-.27-1.43-.56-1.97-.95-.34-.24-.57-.42-.9-.72-.99-.92-3.61-3.64-4.07-4.15l-1.74,1.6s4.6,4.49,5.76,5.12c1.48.8,5.72,1.76,5.72,1.76,0,0-3.26-.25-5.73-1.24-1.49-.6-6.2-5.25-6.2-5.25l-1.14,1.05c.58.64,1.85,2.06,3.9,3.73,1.43,1.16,3.16,1.93,5.5,2.22M68.98,63.3c-.29-.14-.58-.32-.87-.5h0s.26.53.26.53c.19.4.43.71.63.93.02-.04.05-.08.07-.13.1-.2.18-.42.26-.66-.09-.04-.24-.12-.35-.17M60.61,57.01c-.25.76-.76,1.9-1.57,3-.39.54-.97,1.11-.97,1.11,0,0-.06.19-.11.47.11-.06.22-.12.34-.17.53-.29,1.12-.55,1.7-.79.5-.84,1.19-1.99,1.43-2.33-.23.83-.51,1.54-.74,2.06.78-.31,1.46-.55,1.79-.71.54-.24.79-.45,1-.61.04-.03.12-.1.22-.2.01.01-.56-.56-.56-.56l-.19.16s-.32.31-.63.04c-.26-.23-1.4-1.51-1.5-1.62-.11-.13-.24-.36.02-.77,0,0,0,0,.02-.02-.36-.33-.41-.78-.41-.99-.16-.18-.23-.44-.19-.78-.11.07-.23.1-.35.09-.12.13-.28.2-.48.22-.04,0-.05,0-.07,0-.2,0-.37-.06-.51-.16-.65.85-1.37,1.8-1.83,2.5-1.05,1.6-1.3,2.18-1.52,2.79.69-.04,1.08-.14,1.98-1.04.41-.42,1.51-1.97,2.2-2.79-.58,1.37-1.21,2.4-1.74,3.09-.62.8-1.2,1.27-1.2,1.27,0,0-.3.18-.46.99.47,0,1.68-.64,2.81-2.1.36-.46.59-.82,1.49-2.12M59.49,52.35l-.11.12c-.14.14-.41.5-.48.86-.02.12-.04.2-.04.34.01.38.24.59.56.58.48-.05.23-.57.51-.25.11.13.48-.29.58-.39-.09.01-.2.03-.28.02-.06,0-.1-.02-.13-.04-.03-.03-.06-.08-.06-.14,0-.18.11-.37.29-.59.18-.23.33-.4.47-.61.21-.3.29-.31.35-.3h.01s.02,0,.02,0c.12.09.05.8-.16,1.23-.44.93-.51,1.54-.21,1.72h.02s0,.04,0,.04c-.04.32-.05.69.36.92l.04-.04c-.1-.32,0-.52.02-.67,0-.03.03-.14-.24-.21h-.02s.02-.02.02-.02c.1,0,.34.02.43,0,.18-.03.38-.06.42-.41.01-.12.02-.24.04-.36.06-.53.15-1.01.23-1.38.09-.42.19-1.41.19-1.42v-.02s.03,0,.03,0c0,0,.08-.02.18-.02.12,0,.3.07.39.31.03.07.05.18.01.35.1-.05.26-.16.27-.37v-.02s.01-.01.01-.01c.16-.11.23-.23.25-.36.05-.37-.37-.74-.41-.77-.26-.2-.17-.58-.06-.9l.15-.39c.13.15.3.31.5.43.59.42,1.18.32,1.18.32,0,0-.14-.33-.18-.75-.06-.54-.04-1.01-.04-1.01l.45.49s.27-.89.09-2.57c-.2-1.94-.61-2.7-.7-2.98-.14-.44-.38-.87-.38-.87,0,0-.04.23-.35.51-.38-.47-1.04-1.39-1.21-2.02-.1.18-.25.35-.37.46l-.07.07v-.09c-.09-.47-.35-.82-.61-1.16-.18-.24-.36-.46-.44-.71-.16.5-.19,1.06-.22,1.57-.03.5-.06.94-.19,1.23.09-.05.17-.1.23-.14.11-.07.17-.11.22-.1h.04s.01.02.01.02c.02.02.02.05.02.08-.15.66-.28,1.43-.32,1.89-.05.68,0,1.27.05,1.55.04-.05.5-.29.5-.29,0,0-.3.97-.14,2.59.02.26,0,.74-.03.88.31-.04.57-.19.71-.28-.12.43-.22.83-.33.97-.12.17-.25.26-.41.36-.04.02-.12.06-.21.1-.19.09-.7.25-.73.26l-.98.26c-.17.05-.36.09-.55.13-.35.08-1.05.38-1.25.47-.24.12-.47.36-.41.54.06.18.33.23.43.23l.06.12c.17.26.73.1.87.04.16-.08.28-.17.31-.21-.03.04-.21-.02-.33-.07-.04-.02-.08-.07-.08-.09-.02-.18.52-.26.85-.32.02,0,.37-.05.68-.05.21,0,.29.05.37.19.05.09.12.29-.7,1.18M59.89,47.97c.21-.34-.1-.43-.71-.05-.36.22-1.63,1.05-2.27,1.94-.15.21-.11.33.17.06.64-.64,1.6-1.53,1.59-1.11-.02.38.05.75.19,1.12.1-.02.2-.05.29-.07l.84-.22c-.26-.65-.32-1.27-.08-1.66M58.61,34.81c.5.75,1.45,3.14,1.43,4.79.6-1.63-.36-4.88-1.28-6.69,0,.53-.12.68-.25.9-.17-2.07-1.4-3.58-1.61-5.03-.04.25-.08.43-.14.63-.45-.81-.83-1.77-1.11-2.96-.08.09-.22.45-.22.86-.61-1.79-.02-2.52.15-2.63.46-.29,1.01.17,1.44.68.64.76,1.32,2.28,3.47,2.32.35,0,.49-.09.31-.12-1.8-.35-2.11-1.11-3.61-2.85-.93-1.08-1.85-1.7-2.95-.32-2.14,2.68-2.82,4.93-3.2,6.78-.22,1.06-.36,3.3-.1,4.39.25-.09.27-.17.27-.17,0,0,.28,3.05.77,3.82.14-.33.35-1.13.35-1.85.27.9.52,1.39.89,1.9.2-.77.2-1.47.1-2.3.43,1.09.76,1.56.99,1.73.18-.49.37-1.27.22-3.78.17.93.26,1.65.3,2.22.12.11.32.28.51.37.08-.26.31-.62-.08-3.78.99,3.42.44,4.34.34,4.59-.39-.24-.62-.52-.75-.72.02,1.06-.16,1.49-.32,1.87-.38-.21-.59-.51-.84-.9.03,1.07-.23,1.72-.23,1.72,0,0-.75-.87-.93-1.52.02.41-.25,1.63-.47,1.85-.82-1.15-1.1-4.42-1.1-4.42,0,0-.03.02-.07.06.09,1.69.42,5.53.67,8.61.51,6.25,1.22,11.73,1.22,11.73,0,0,.06.65.17.99.11-.39.14-1.97.07-2.81-.02-.21.28-.57.26-1.75,0-.59-.78-9.58-.74-9.79.33,1.6,1.1,7.07,1.17,9.88.02,1.12-.32,1.44-.29,1.69.19,1.4.05,2.75-.24,3.53-.11-.04-.19-.15-.22-.22.18,1.07.41,1.92.41,1.92.39-.9.62-1.86.55-4.25,0-.19.32-.73.38-1.95.05-1.17-.69-10.3-.74-11.07.45,1.95.98,6.13,1.18,10.39.08,1.51-.46,2.64-.44,2.86.07.76.07.71.05,1.37-.02.79-.08.9-.08.9.25-.6,1.06-2.64.74-9.12-.21-4.26-.53-7.04-.53-7.04.37,1.19.69,3.76.91,6.73.25-.43.61-1.45.48-3.63-.13-2.24-.38-4.08-.38-4.08,0,0,.43,1.33.73,3.5.07.52.11.98.13,1.4.73-1.3.4-3.79.01-6.37.35.84.99,3.22.81,5,1.2-1.2.55-3.58.09-6.31.68,1.62,1.18,3.61,1.02,4.92.97-1.35.61-3.13-.26-6.63.53.92,1.26,3.13,1.3,4.49.64-1.58-.1-4.22-.73-6.34M82.12,17.9c-4.27-4.21-10.38-4.5-11.97-4.39-.38.03-.8.33-.33.94-.35.16-1.65.04-2.14-.42-.49.46-1.79.57-2.14.42.47-.62.05-.91-.33-.94-1.61-.12-8.03.51-11.91,4.29,2.14,2.83,6.61,8.73,6.7,8.85.09.11.31.26.58.26.04,0,.07,0,.11,0,.23-.01.45-.17.69-.43.46-.5.69-.79,1.15-1.25.88-.9,1.7-1.58,1.85-1.71.37-.34.49-.62.5-.9-.02-.32-.28-.45-.43-.65,0,.03-.06.08-.08.11-.14-.11-.31-.61-.31-.61l-.08.23s-.33-.79-.85-.72c-.72.1-1.18-.21-1.23-.23-.04-.01-.07.23-.06.51,0,0-.02,0-.03-.01-.49-.41-.64-1.49.3-2.18.58-.43.69-.41,1.14-.62.19-.09.33-.27.38-.32.3-.37.91-.57,1.25-.67.44-.12,1.47-.26,2.5-.2.58.03,1.13.17,1.52.33.31.12,1.19.78,1.68,1.42.32.42.88,1.62,1.19,2.38.65,1.59.58,1.42,1.02,2.48.5,1.21.81,1.88,1.3,2.56.17.23.35.32.67.34.25.01.49-.03.7-.17.19-.12.24-.19.29-.28,1.5-2.17,4.29-5.67,6.38-8.42M70.36,43.24s.57-.54.78-2.32c.11.14.31.26.37.52.36-.44,1.07-2.82,1.15-3.64.24.1.03.05.3.19.2-.35.6-1.71.78-3.59.09.03.24.03.31.1.13-.86.25-2.24.29-3.21.03-.83,0-2.54-.34-3.52-.36-.98-.52-1.5-1.09-2.4,0,0-.2.1-.3.24-.16-.48-.59-1.62-.8-2.04-.54-1.05-.8-1.73-1.36-2.08.26.01.35.07.68.06-.37-.35-.5-.58-.92-.9.14-.09.37-.08.76-.01-.55-.51-.74-1.28-2.17-1.82.25-.05.45.04.79.03-.18-.28-.61-.74-1.33-.95-1.46-.29-3.47-.33-4.42.78-.06.08-.32.13-.55.21-.16.06-.23.11-.27.14-.16.12-.19.28.12.73-.41-.06-.51-.45-.59-.41-.15.09-.28.22-.43.44-.14.2-.26.64-.23.82.05.04.39.2.46-.21.03-.14.66-.2.89-.2.32,0,.62.08,1.02.06-.14.05-.59.18-.76.23-.18.05-.2.24-.03.26.19.02.27-.06.45-.1.08.05,0,.25.07.37,1.18-.27,1.27.99,2.52.75-.59-.46-1.09-1.23-1.56-1.47,1.24.19,1.91,1.31,3.25,1.36q-.05-.13-.16-.36c.46,0,.78.35.92.34-.17.18-.56.33-1.07.4.09.17.59.2.76.23-.27.24-.58.36-1.18.24-.2.18-.47.6-1.34,1.13q.01-.21.05-.41c-.57.33-.95.94-1.38,1.11.13-.21.23-.58.33-.77-1.51,1.36-2.95,2.68-3.49,3.66-.61,1.1-.8,2.24-.72,4.12.06,1,.49,3.85.56,4.41.12-.05.21-.1.31-.14.36,2.09,1.45,5.02,2.01,5.98.1-.23.17-.33.33-.44.09.56.38,1.19.84,1.6-.01-.38.15-.6.19-.73.13.4.05,1.66.77,2.36-.04-.35.08-.64.19-1.1.12.4.15.91.34,1.32.23.48.51.95.77,1.08-.03-.99.12-.94.16-1.35.01.09.39.44.57,1.69.73-.56,1.01-2.41,1.01-2.4,0,0,.21.18.37.69.64-.67.83-1.55,1.02-2.21.07.47.08.92.03,1.15M71.1,53c.88-.01,1.11,0,1.45-.06-.02-.1-.04-.2-.06-.28-.01-.07-.02-.14-.03-.21,0,0-.01,0-.02,0-.31.07-.88.24-1.67.11-.38-.08-.39-.09-.68-.17-.26-.08-.69.36-1.02.71-.28.3-.65.72-.82.9-.03.03-.02.06,0,.09.3.27,3.93,3.59,4.16,3.8.06.05.1.06.17-.02.16-.17.4-.42.63-.66,0,0-3.59-3.38-3.64-3.43-.06-.05-.07-.12-.04-.15.02-.03.18-.19.21-.22.03-.03.11-.04.16.02.05.06,1.18,1.11,1.18,1.11l1.55,1.38.97.86c.14-.14.12-.11.16-.16.14-.16.11-.27-.38-.74-.14-.14-2.52-2.51-2.52-2.51-.24-.28-.06-.37.22-.37M65.5,53.77c-.05.05-3.64,3.43-3.64,3.43.23.23.47.49.63.66.07.07.11.07.17.01.23-.2,3.86-3.52,4.16-3.8.03-.03.04-.06,0-.09-.17-.17-.54-.6-.82-.9-.33-.35-.75-.79-1.02-.71-.29.09-.31.09-.69.17-.78.14-1.36-.04-1.67-.11-.03,0-.05-.02-.08-.02,0,.09-.02.17-.03.25-.01.07-.03.15-.05.24.38.08.58.06,1.51.07.28,0,.46.09.22.37,0,0-2.38,2.37-2.51,2.51-.5.47-.53.58-.38.74.04.04.02.01.16.15l.97-.86,1.55-1.38s1.13-1.05,1.18-1.1c.05-.06.14-.05.17-.02.03.03.18.19.21.22.03.03.02.1-.04.15M65.85,45.29s0-.21-.13-.49c-.07-.15-.31-.33-.42-.47-.1-.12-.11-.18-.11-.18-.03.14.03.46.08.59.04.15.14.3.31.41.18.12.28.14.28.14M65.82,52.19s.27.26.32.31c.06-.37.24-1.6.17-1.72-.42.8-.47,1.34-.48,1.41M64.37,52.1c.14-.05.48-.2.66-.25.04-.01.12-.03.14-.03h0c.11-.37.28-.94.4-1.2-.11-.03-1.02,1.23-1.2,1.48M67.04,53.43c-.02-.49-.04-1.02-.07-1.26-.15.22-.26.55-.32.85.04.04.35.37.39.41M67.28,50.18s-.09-.62-.55-.83c.02.45.55.83.55.83M67.65,49.14s0,0,0-.02c0,0,0,.01,0,.02,0,0,.07-.17.33-.36.17-.13,1.19-.73,1.38-1,.2-.27.28-.64.28-.64,0,0-.18.29-.59.52-.34.2-1.14.69-1.28.94-.07.13-.1.23-.11.31,0-.07-.02-.15-.07-.23-.25-.52-.98-.72-1.42-1.23-.29-.33-.3-.47-.3-.47-.01.34.06.6.2.79.12.17.49.49.98.81.5.33.6.56.6.56M67.17,47.3c0-.81-.88-.9-1.09-1.7-.1,1.13.68,1.14,1.09,1.7M67.58,50.52s.11-.04.37-.2c.23-.14.42-.29.53-.5.12-.23.1-.43.08-.56,0,0-.05.21-.35.48-.13.12-.3.29-.4.41-.16.19-.23.37-.23.37M68.35,50.99c.08.48.14,1.61.16,1.97h0c.13-.14.27-.28.4-.41-.03-.17-.19-1.06-.57-1.56M67.63,53.93s.29-.35.43-.49c0,0,.02-.02.02-.02-.08-.62-.23-1.4-.43-1.69-.04.29-.04,1.38-.02,2.21M67.64,54.27c0,.27,0,.48.01.59.02-.03.28-.3.28-.3,0,0-.22-.2-.29-.28M67.82,55.23c.5.53,1.18,1.24,1.63,1.67.29-.28.47-.46.47-.46l-1.74-1.6c-.07.08-.2.21-.36.38M69.88,57.31c.38.37.79.79,1.13,1.12.2-.21.36-.39.49-.54l-1.14-1.05s-.18.18-.48.47M70.22,51.93c-.18-.24-.66-.88-1.08-1.25.28.67.41,1.1.45,1.26h0s.04-.03.07-.04c.07-.03.14-.05.22-.05.07,0,.15.02.24.05,0,0,.06.02.1.03M69.8,45.38c-.23.36-.41.57-.7.82.09-.27.11-.56.11-.56-.14.28-.46.67-.67.88-.52.52-.62,1.02-.62,1.02,0,0,.14-.18.76-.55.66-.39.9-.98,1.11-1.6M61.68,38.34c0,.63.44,1.51,1.04,1.85-.36-.96-.64-1.28-1.04-1.85M82.44,17.48c.15-.19.29-.38.44-.57-1.95-1.72-4.85-3.47-8.02-4.16-2.15-.46-3.86-.51-4.94-.49-.89.01-1.46.35-1.46.91-.55-.1-.7-.79-.77-.92-.05.29-.32.85-.76.92,0-.55-.57-.89-1.46-.91-1.08-.02-2.79.02-4.94.49-3.24.7-6.03,2.29-7.98,4.04.14.19.29.38.43.57,1.75-1.65,4.08-2.95,6.57-3.68,2.06-.6,4.6-.82,5.77-.77,1.04.05,1.19.64,1.07.96.46.05,1.16-.36,1.3-.63.11.2.74.67,1.31.63-.12-.32.03-.91,1.07-.96,1.17-.05,3.7.16,5.76.77,2.43.71,4.87,2.18,6.62,3.79M83.61,15.37c.22.76.45,1.61,1.09,2.12.09.07.18.13.29.19h.01c-.01-1.44.48-2.23.86-3.09h0c.54.07,1.25.27,2.7.01-1.37-.93-1.08-1.96-2.1-3.1-.11-.12-.23-.24-.38-.37-.36-.26-.63-.35-.83-.36-.25,0-.39.12-.47.21-.13.15-1.56,1.68-2.5,2.74.84-.02,1.06.75,1.31,1.64M84.55,10.29c-.96-.94-2.48-1.99-4.31-2.79-4.77-2.09-10.82-2.1-12.55-2.1h0s0,0,0,0c-1.73,0-7.78.01-12.55,2.1-1.83.8-3.35,1.85-4.31,2.79,0,0,2.16,2.42,2.72,3.08.29.35.39.63.22,1.15,3.31-2.22,7.08-3.33,13.79-3.37h.3c6.6.06,10.47,1.17,13.75,3.37-.17-.52-.08-.8.22-1.15.56-.66,2.72-3.08,2.72-3.08M50.59,11h0c-.13-.15-.47-.45-1.3.14-1.48,1.28-1,2.44-2.52,3.46.54.1.98.13,1.35.13.24,0,.46-.02.64-.04.28-.03.51-.08.71-.11h0c.38.85.87,1.64.85,3.09,1.78-.94,1.05-3.98,2.71-3.95-.93-1.05-2.28-2.57-2.44-2.74M51.74,17.13c1.3,1.73,2.29,3.04,2.48,3.31.45.62,2.02,2.5,2,2.25,0-.14-.96-1.47-1.57-2.29-.88-1.19-1.8-2.42-2.7-3.62-.08.13-.16.24-.23.34M58.39,28.64c0,1.23.23,2.13.63,3.63.04-1.58-.26-3.2-.63-3.63M57.57,27.25c-.08.57-.07,1.28.05,1.81.09.37.25.72.38,1.04.06-1.1-.22-2.3-.44-2.86M60.62,38c.2-.68.44-5.01-1.18-6.88.42,1.68.94,3.64,1.18,6.88M55.77,63.52c1.24.48,4.7.53,6.32.33,2.06-.26,3.65-.88,4.98-1.82-.35-.29-.77-.69-1.21-1.1-.69.56-1.31,1-1.7,1.16-2.47,1-5.73,1.25-5.73,1.25,0,0,4.24-.96,5.72-1.76.28-.15.76-.53,1.33-1.01-.55-.52-1.09-1.06-1.49-1.46-.27.24-.49.41-.78.62-.54.39-1.35.68-1.97.95-3.02,1.21-5,2.48-5.46,2.86M66.14,63.31s.07.25.16.44c.02.04.19.44.22.48.2-.22.43-.52.63-.9l.44-.89s-.01,0-.01-.01c-.03.02-.26.19-.39.28-.19.13-.38.25-.57.36-.08.04-.36.2-.42.23-.01,0-.02.01-.04.02M74.58,38c.23-3.24.76-5.2,1.18-6.88-1.61,1.87-1.38,6.2-1.18,6.88M74.96,30.78c.51-1.53.08-2.31-.22-2.46,0,.7.18,1.04.22,2.46M76.26,32.33c.4-1.5.63-2.4.63-3.63-.36.43-.67,2.05-.63,3.63M77.27,30.16c.13-.33.3-.67.38-1.04.13-.54.14-1.24.05-1.81-.22.55-.5,1.75-.44,2.86M81.36,20.34c.18-.25,1.09-1.46,2.3-3.07-.09-.1-.17-.22-.24-.32-.84,1.12-1.69,2.26-2.5,3.36-.61.82-1.56,2.15-1.57,2.29-.01.24,1.55-1.63,2-2.26M88.37,12.31c-.14.18-.44.58-.44.58.38.68.78,1.39,1.85,1.96-.43-.87-.9-1.71-1.42-2.54M87.38,11.72s.17.29.2.35c2.47-3.29,4.73-6.29,4.73-6.29,0,0-.95.68-2.33,1.32.14.74-.33,1.67-.51,1.9-.07.09-.89,1.16-2.09,2.73M55.52,3.12h0c-.21.11-.41.41-.41.75-.5.5-.77,1.21-.49,2.05-2.6,1.07-4.9,2.72-6.62,4.86.12.15.24.32.37.49,1.84-2.36,4.3-4.05,7.27-5.16-.23-.35-.57-1.12.3-1.97h0c1.28.16,1.6.93,1.68,1.33,2.31-.63,5.05-1.01,8.11-1.12.11-2.11,1.6-2.62,1.6-2.62,0,0,.03-.4.35-.53h0c.32.14.35.53.35.53,0,0,1.5.51,1.61,2.62,3.06.11,5.8.49,8.11,1.12.08-.4.4-1.18,1.68-1.34,0,0,0,0,0,0,.87.85.53,1.62.3,1.97,2.97,1.12,5.51,2.87,7.35,5.23.13-.17.26-.34.38-.5-1.72-2.13-4.13-3.85-6.71-4.91.28-.84,0-1.54-.49-2.05,0-.34-.2-.63-.41-.74,0,0,0,0,0,0-.25-.03-.62.08-.87.34-.75.11-1.48.5-1.88,1.29-1.91-.46-4.07-.77-6.83-.91-.07-1.27-.8-2.05-1.7-2.5-.19-.44-.57-.69-.9-.77-.33.08-.71.32-.9.77-.9.45-1.64,1.23-1.71,2.5-2.76.14-4.91.45-6.83.91-.4-.79-1.13-1.18-1.88-1.29-.25-.26-.62-.38-.87-.34M47.85,11.95c.08-.14.15-.24.21-.33-1.12-1.47-1.88-2.45-1.95-2.54-.18-.23-.65-1.16-.51-1.9-1.38-.64-2.33-1.32-2.33-1.32,0,0,2.17,2.88,4.58,6.08M45.54,14.88c.21-.12.92-.57,1.36-1.18.22-.31.39-.61.53-.89-.02-.02-.47-.6-.47-.6-.51.87-.98,1.76-1.41,2.68M41.67,32.92c.28.42,1.11,1.36,6.9,4.66.08-2.1.63-9.24,4.23-17.79-.51-.68-1.02-1.36-1.51-2.01-.37.39-.84.66-1.54.87.03-1.6-.32-2.47-.76-3.41-.64.02-1.73.04-3.45-.32-2.28,4.88-3.44,10.54-3.86,18M62.27,67.15l.03-.07c.17-.47,1.18-2.87,1.18-2.87-.04,0-.08.02-.12.02-.45.08-.92.15-1.38.19-.27.03-4.29.65-7.2-.72.43-.3,1.31-1.04,2.52-1.74.02-.12.04-.25.06-.37-.67.36-1.31.42-1.8.4-.04-.42.08-.96.3-1.58-.64.14-1.12-.01-1.12-.01,0,0,.42-1.29,1.33-2.83.71-1.21,1.65-2.43,2.54-3.5-.05-.12-.09-.25-.09-.4,0-.17.03-.31.05-.41.1-.54.52-1,.57-1.05.03-.03.15-.16.17-.19-.12-.11-.24-.2-.35-.28-.12.13-.21.19-.29.22-.34.15-.54.21-.72.22-.37.01-.58-.06-.72-.24l-.02-.04c-.27-.08-.46-.24-.53-.46-.01-.05-.02-.09-.02-.14-.2.07-.35.08-.53-.07-.26-.22.1-1.35,1.33-2.51.86-.82,1.67-1.29,2.42-1.62.58-.25.92.24.64.58-.34.41-.6,1.12-.26,1.88.35-.12.49-.17.54-.2.14-.05.3-.1.48-.34.02-.02.04-.07.06-.13l-.51.06c.26-.64-.14-2.22.12-3.24-.07.05-.25.17-.35.2-.19-.93-.16-2.41-.09-3.13-.01-.2-.3-.55-.69-.93-.28.52-.72,1.07-1.38,1.95-.59.77-1.66,1.48-2.21,3.97,0,0,0,.01,0,.02-.03.1-.05.2-.08.29h0c-.03.11-.07.21-.1.32-.02.07-.05.13-.08.2-.04.11-.09.21-.13.32-.36.79-.33,1.25-.33,1.25h0c.04,1.56-.03,4.81-.39,6.63-.32,1.6-.85,2.41-.85,2.41l-.08-.08c-.14.54-.38,1.49-.96,2.24,0,0-.5-1.06-1.41-9.17-1-8.92-1.5-18.24-1.5-18.24h0c-.09-1.65.23-3.58.7-4.98.77-2.27,2.23-4.42,3.09-5.32.23-.24.51-.44.84-.54,0,0,.19-.05.29-.06h0c-.63-.84-1.27-1.68-1.89-2.51-3.93,9.7-3.98,17.42-3.98,17.5l-.04.92-.78-.45c-4.41-2.43-5.82-3.46-6.95-4.45-.05.96-.14,4.11-.14,4.11,0,.06,0,.74,0,1.98,0,3.78.68,13.06,3.76,19.44.43.79,1.58,2.93,3.66,4.88,1.58,1.49,3.42,2.55,5.46,3.2.12.04.35.12.47.16,2.36.75,4.92.59,7.44-.67M62.09,69.77c.47-.39,1.2-.68,2.11-.3.08-1.48.32-3.52.62-4.97-.08.06-.24.18-.3.23-.06.05-.19.13-.24.15-.01,0-.02,0-.02,0s0,0-.02,0c-.02-.01-.09-.1-.1-.12-.33.78-2.04,4.98-2.05,5.01M71.05,70.59c.06-1.32-.56-5.18-.83-6.76h0c-.09-.03-.19-.07-.28-.1-.08.21-.16.44-.27.65-.19.4-.49.82-.55.82-.05,0-.86-.55-1.37-1.61-.51,1.05-1.31,1.58-1.36,1.59-.06,0-.36-.42-.55-.82-.11-.22-.2-.45-.27-.68-.01.01-.02.03-.03.05-.25,1.62-.83,5.56-.77,6.87-1.75-1.16-2.8,0-2.45.8.04.07.08.13.12.19.21.28.48.43.87.46.56.04,1.31.09,2.15.49.77.36,1.61.96,2.45,2.02.85-1.06,1.68-1.66,2.45-2.02.84-.4,1.59-.45,2.16-.49.38-.03.65-.21.86-.46.05-.05.08-.12.12-.19.36-.81-.7-1.96-2.45-.8M73.72,69.77s-1.84-4.51-2.04-5c0,0,0,0,0,0-.02.03-.05.07-.08.09,0,0-.01.01-.02.01,0,0-.01,0-.02,0-.09-.04-.35-.2-.67-.49.34,1.29.64,3.38.72,5.09.91-.38,1.65-.09,2.12.3M93.89,38.25c-.02-1.27-.1-3.17-.14-4.13-1.13.98-2.54,2.01-6.95,4.45l-.78.45-.04-.92c0-.08-.05-7.74-3.94-17.4-.61.8-1.22,1.61-1.83,2.43.01,0,.02,0,.04,0,.05.01.1.03.15.05.3.11.55.29.77.52.86.9,2.27,3.07,3.09,5.32.44,1.41.79,3.34.7,4.99h0s-.5,9.31-1.51,18.24c-.91,8.11-1.41,9.17-1.41,9.17-.58-.75-.82-1.7-.96-2.24l-.09.08s-.53-.81-.85-2.41c-.36-1.82-.42-5.07-.39-6.64h0s.02-.45-.33-1.24c-.17-.37-.3-.74-.39-1.13,0,0,0-.01,0-.02-.55-2.49-1.62-3.2-2.21-3.97-.74-.97-1.2-1.55-1.46-2.12-.43.41-.77.84-.79,1.07.15,1.5.29,2.57.06,3.34-.09-.05-.23-.2-.32-.26.1,1-.37,2.15-.07,3.06l-.59-.08c.03.07.05.12.07.14.08.11.16.18.3.25.03.01.15.07.19.09.05.03.2.08.6.21.34-.75.08-1.47-.26-1.87-.28-.34.06-.84.64-.58.75.33,1.56.8,2.42,1.62,1.23,1.17,1.59,2.29,1.33,2.51-.2.17-.35.14-.6.05,0,.04,0,.09-.02.13-.07.22-.25.38-.53.46l-.03.04c-.13.18-.34.25-.72.24-.32,0-.67-.19-.72-.22-.06-.03-.14-.08-.24-.18-.11.08-.23.18-.35.28,0,.01.13.15.13.15.08.08.48.52.57,1.04,0,0,.03.16.03.24,1.02,1.21,2.21,2.68,3.07,4.14.9,1.54,1.32,2.83,1.32,2.83,0,0-.48.15-1.12.01.23.62.34,1.16.3,1.58-.49.02-1.13-.04-1.8-.4.04.21.08.42.1.63.91.59,1.58,1.13,1.93,1.39-2.92,1.37-7.14.74-7.23.73-.24-.03-.46-.07-.65-.09,0,0-.13-.03-.13-.03,0,0,1.04,2.47,1.23,2.88,1.85.85,3.58,1.4,6.23.96,0,0,.45-.04,1.58-.43,1.16-.39,3.34-1.67,5.01-3.24,2.08-1.95,3.35-4.01,3.76-4.81,3.23-6.31,3.76-15.66,3.76-19.44,0-1.24,0-1.91,0-1.96M70.69,35.65s1.3-1.25,1.26-2.81c-.37,1.05-1.25,1.49-1.26,1.49,0,0-.49-.3-.71-.98-.17,1.58.72,2.31.71,2.3M68.08,25.43c-.77.84-.3,1.54-.3,1.53,0-.01.94-1.02.3-1.53M67.8,28.3c-.87,1.29,0,2.64,0,2.64,0,0,.6-1.8,0-2.64M65.74,26.43c-1.27.95-.66,1.84-.44,2.33.26-.93.37-1.18.44-2.33M66.04,38.18c-.16-.04-.92-.75-1.15-1.19.12.71,1.09,2.11,1.56,2.4.15-.26.72-1.38.22-3.19-.21,1.09-.43,1.64-.63,1.98M65.1,29.34c-.85,1.06.46,2.39.46,2.41,0,0,.11-2.01-.46-2.41M66.48,34.97c.22-.48.83-1.38.51-2.89-.11,1.13-.84,1.64-.83,1.63,0,0-.41-.22-.73-.91.11,1.38.62,1.78,1.05,2.16M65.82,42.09c-.13-.41-.35-1.78-.87-2.37-.21,1,.44,1.95.87,2.37M81.66,9.11c-.38-.11-.78-.22-.91-.41.17-.14.4.05.52.15.08-.08.13-.12.23-.21-.4-.33-1.02-.13-1.16.2.11.06.29.12.35.2-.13.04-.38.17-.48.24.62-.05,1.18.1,1.45-.18M80.6,9.63c-.45.2-.53.32-.74.81-.25.58-.47,1.17-.75,1.69.17.07.41-.08.57-.18.76-.47,1.31-1.75,1.61-2.52,0-.03-.45.09-.68.2M79.24,10.11c-.13.42-.44.68-.63.94-1.06-.41-3.41-1.01-4.7-1.14-.35.38-.87.9-1.42,1.03-.8-.1-1.32-.31-1.88-.54.31.02.41.02.62.01.79-.02,1.5-.27,2.01-.59-1.12-.17-1.39-.48-.84-1.19.25-.32.66-.91,1.26-.76.47.12.58.78.53,1.28,1.31.16,2.99.61,4.27,1.05.08-.37-.15-.55-.3-.81.2-.2.48-.44.71-.59.32.18.51.91.39,1.32M73.04,8.44s-.22.12-.33.35c.1.16.3.22.6.26.04,0,.12.01.16.01.14-.32-.16-.73-.43-.63M74.8,10.31c-.24.12-.52.29-.71.4.19.19.33.34.54.54.29-.15.41-.23.73-.39-.21-.21-.34-.35-.56-.55M69.83,6.3c-.24-.18-.4-.3-.65-.47-.22.15-.47.35-.63.49.22.17.38.29.62.47.26-.19.37-.28.66-.48M59.03,11.1c.26.11.45.2.73.32.2-.24.29-.35.51-.6-.28-.12-.47-.21-.76-.33-.17.19-.36.44-.48.6M70.85,9.42c-3.11-.17-9.19.15-12.18.97,0,0-.32-.77-.58-1.05-.8-.85-1.12.07-1.13.18,1,.06,1.18.57,1.18.57-.23.44-.42.58-.97.96-.18.12-.82.52-1.7.59-1.88.09-1.37-1.87-.23-2.67-.15.18-.82,1.2-.4,1.73.47.59,2.21.11,2.63-.42-.23-.22-.65-.28-1.27-.22.03-.31.17-1.11,1.07-1.87.33.08,1.24.57,1.56,1.35,2.75-.74,7.78-.95,8.02-.96-.06-.48-.23-2.28-.23-2.38-.03-.3.17-.43.36-.55.21.37.4.53.87.7-.18.22-.35.31-.56.47.03.36.06,1.02.07,1.28.44-.19,1.07-.46,1.83-.64.27-.06.61-.1.83-.08.27.03.58.17.73.31.13.12.29.32.3.58,0,.44-.08.83-.2,1.14M70.2,8.25c-.39-.63-1.83-.06-2.74.32.53,0,.98-.02,1.55-.01.23,0,.83,0,1.23.02.03-.12.05-.2-.03-.33M57.23,11.61c-.18-.06-.34-.11-.56-.17-.14.2-.29.48-.39.65.28.08.48.15.77.24.12-.18.19-.3.29-.45.17.06.34.11.54.17.16-.26.23-.38.42-.65-.29-.09-.49-.16-.8-.24-.1.14-.19.3-.28.44"/>
        </g>
      </g>
    </g>
  </g>
</svg>