<svg width="413" height="140" viewBox="0 0 413 140" fill="none" xmlns="http://www.w3.org/2000/svg">
<path d="M67 0H62.5C62.5 7.58784 67.8333 14.4768 70.5 16.9728C81.7 26.1581 104.5 20.8 114.5 16.9728L102 8.4864C76.4 14.8762 68 5.4912 67 0Z" fill="url(#paint0_linear_52_24974)"/>
<path d="M14 28.4546L6 39.9362C23.5 38.7714 56.991 43.4012 64.5 67.8914C72 92.3522 116.833 78.3746 140 67.8914L138.5 54.9122C130.5 60.4034 77 85.8626 66.5 57.9074C59.6441 39.6542 30.5 29.7858 14 28.4546Z" fill="url(#paint1_linear_52_24974)"/>
<path d="M66.5 81.3696C62.5 53.4144 22.8333 48.0896 3.5 48.9216L0.5 61.4018C19.1667 60.0706 58.1 63.5982 64.5 88.3586C70.3064 110.823 115.833 99.6738 137.5 89.8562L139.5 75.8786C88 98.8418 69.5 89.6897 66.5 81.3696Z" fill="url(#paint2_linear_52_24974)"/>
<path d="M65.5 95.8467C59.1 70.2877 19.1667 67.8915 0 68.8899V81.37C19.8333 79.2068 61.6321 80.7183 64 104.832C66.5 130.291 105.167 122.138 123.5 115.815L134 95.8467C113.833 106.496 71.9 121.406 65.5 95.8467Z" fill="url(#paint3_linear_52_24974)"/>
<path d="M65.5 115.814C61.5 95.4469 21.5 89.3566 2 88.8574L6 101.837C9.33333 101.504 21 101.936 41 106.329C66 111.821 61 132.787 71 138.777C79 143.57 100.667 133.12 110.5 127.296C97.1667 131.955 69.5 136.182 65.5 115.814Z" fill="url(#paint4_linear_52_24974)"/>
<path d="M60 139.277H66C60.4277 114.242 27.6604 109.208 11.7366 109.814L24 123.303C47.2 124.501 57.6667 134.451 60 139.277Z" fill="url(#paint5_linear_52_24974)"/>
<path d="M55 1.99658L42 5.99018C47.5 7.15498 59.1 12.979 65.5 30.9502C71.9 48.9214 110.5 39.4366 128.5 31.9486L121 21.4654C110.5 29.4526 75.5 37.4398 66.5 21.4654C57.5 5.49098 58.1667 3.82698 55 1.99658Z" fill="url(#paint6_linear_52_24974)"/>
<path d="M66.5 38.9378C58.4741 21.7002 41.5 12.813 31.5 11.981L19.5 21.4658C29.0523 21.7685 50.1916 25.652 61.459 38.3783C63.6658 40.8708 64.4303 44.2349 65.2886 47.4515C72.0069 72.6297 116.728 58.3071 137 48.4226L132 37.9394C111.167 46.4258 76.5 60.4152 66.5 38.9378Z" fill="url(#paint7_linear_52_24974)"/>
<path d="M174.531 50L165.79 19.4545H172.845L177.901 40.6783H178.155L183.733 19.4545H189.773L195.337 40.723H195.605L200.661 19.4545H207.716L198.976 50H192.682L186.865 30.0291H186.626L180.825 50H174.531ZM239.199 34.7273C239.199 38.0582 238.568 40.892 237.305 43.2287C236.052 45.5653 234.342 47.3501 232.174 48.5831C230.017 49.8061 227.591 50.4176 224.896 50.4176C222.182 50.4176 219.746 49.8011 217.588 48.5682C215.43 47.3352 213.725 45.5504 212.472 43.2138C211.219 40.8771 210.593 38.0483 210.593 34.7273C210.593 31.3963 211.219 28.5625 212.472 26.2259C213.725 23.8892 215.43 22.1094 217.588 20.8864C219.746 19.6534 222.182 19.0369 224.896 19.0369C227.591 19.0369 230.017 19.6534 232.174 20.8864C234.342 22.1094 236.052 23.8892 237.305 26.2259C238.568 28.5625 239.199 31.3963 239.199 34.7273ZM232.652 34.7273C232.652 32.5696 232.329 30.75 231.682 29.2685C231.046 27.7869 230.146 26.6634 228.983 25.8977C227.819 25.1321 226.457 24.7493 224.896 24.7493C223.335 24.7493 221.973 25.1321 220.809 25.8977C219.646 26.6634 218.741 27.7869 218.095 29.2685C217.459 30.75 217.14 32.5696 217.14 34.7273C217.14 36.8849 217.459 38.7045 218.095 40.1861C218.741 41.6676 219.646 42.7912 220.809 43.5568C221.973 44.3224 223.335 44.7053 224.896 44.7053C226.457 44.7053 227.819 44.3224 228.983 43.5568C230.146 42.7912 231.046 41.6676 231.682 40.1861C232.329 38.7045 232.652 36.8849 232.652 34.7273ZM245.663 50V19.4545H257.714C260.021 19.4545 261.99 19.8672 263.621 20.6925C265.261 21.5078 266.509 22.6662 267.364 24.1676C268.229 25.6591 268.662 27.4141 268.662 29.4325C268.662 31.4609 268.224 33.206 267.349 34.6676C266.474 36.1193 265.207 37.233 263.546 38.0085C261.896 38.7841 259.897 39.1719 257.55 39.1719H249.481V33.9815H256.506C257.739 33.9815 258.763 33.8125 259.579 33.4744C260.394 33.1364 261.001 32.6293 261.398 31.9531C261.806 31.277 262.01 30.4368 262.01 29.4325C262.01 28.4183 261.806 27.5632 261.398 26.8672C261.001 26.1712 260.389 25.6442 259.564 25.2862C258.748 24.9183 257.719 24.7344 256.476 24.7344H252.121V50H245.663ZM262.159 36.0994L269.751 50H262.621L255.194 36.0994H262.159ZM274.906 50V19.4545H281.364V44.6754H294.459V50H274.906ZM311.244 50H300.416V19.4545H311.333C314.406 19.4545 317.051 20.0661 319.268 21.2891C321.485 22.5021 323.191 24.2472 324.384 26.5241C325.587 28.8011 326.189 31.5256 326.189 34.6974C326.189 37.8793 325.587 40.6136 324.384 42.9006C323.191 45.1875 321.476 46.9425 319.238 48.1655C317.011 49.3885 314.346 50 311.244 50ZM306.874 44.4666H310.976C312.885 44.4666 314.49 44.1286 315.793 43.4524C317.105 42.7663 318.09 41.7074 318.746 40.2756C319.412 38.8338 319.745 36.9744 319.745 34.6974C319.745 32.4403 319.412 30.5959 318.746 29.1641C318.09 27.7322 317.11 26.6783 315.808 26.0021C314.505 25.326 312.9 24.9879 310.99 24.9879H306.874V44.4666Z" fill="#021C74"/>
<path d="M186.522 56.4545H192.98V76.2912C192.98 78.5185 192.448 80.4673 191.384 82.1378C190.33 83.8082 188.854 85.1108 186.955 86.0455C185.055 86.9702 182.843 87.4325 180.317 87.4325C177.782 87.4325 175.565 86.9702 173.665 86.0455C171.766 85.1108 170.29 83.8082 169.236 82.1378C168.182 80.4673 167.655 78.5185 167.655 76.2912V56.4545H174.113V75.7393C174.113 76.9027 174.366 77.9368 174.874 78.8416C175.391 79.7464 176.116 80.4574 177.051 80.9744C177.986 81.4915 179.075 81.75 180.317 81.75C181.57 81.75 182.659 81.4915 183.584 80.9744C184.518 80.4574 185.239 79.7464 185.746 78.8416C186.263 77.9368 186.522 76.9027 186.522 75.7393V56.4545ZM198.81 61.7791V56.4545H223.897V61.7791H214.545V87H208.162V61.7791H198.81ZM236.166 56.4545V87H229.708V56.4545H236.166ZM243.16 87V56.4545H249.618V81.6754H262.713V87H243.16ZM275.128 56.4545V87H268.67V56.4545H275.128ZM280.958 61.7791V56.4545H306.045V61.7791H296.693V87H290.309V61.7791H280.958ZM318.314 56.4545V87H311.856V56.4545H318.314ZM325.307 87V56.4545H345.89V61.7791H331.765V69.0575H344.831V74.3821H331.765V81.6754H345.949V87H325.307ZM369.275 65.2393C369.155 64.0362 368.643 63.1016 367.738 62.4354C366.833 61.7692 365.605 61.4361 364.054 61.4361C363 61.4361 362.11 61.5852 361.385 61.8835C360.659 62.1719 360.102 62.5746 359.714 63.0916C359.336 63.6087 359.147 64.1953 359.147 64.8516C359.128 65.3984 359.242 65.8757 359.49 66.2834C359.749 66.6911 360.102 67.044 360.549 67.3423C360.997 67.6307 361.514 67.8842 362.101 68.103C362.687 68.3118 363.314 68.4908 363.98 68.6399L366.724 69.2962C368.056 69.5945 369.279 69.9922 370.393 70.4893C371.507 70.9865 372.471 71.598 373.287 72.3239C374.102 73.0497 374.733 73.9048 375.181 74.8892C375.638 75.8736 375.872 77.0021 375.882 78.2749C375.872 80.1442 375.395 81.7649 374.45 83.1371C373.515 84.4993 372.163 85.5582 370.393 86.3139C368.633 87.0597 366.51 87.4325 364.025 87.4325C361.559 87.4325 359.411 87.0547 357.581 86.299C355.762 85.5433 354.34 84.4247 353.316 82.9432C352.302 81.4517 351.77 79.6072 351.72 77.4098H357.969C358.039 78.4339 358.332 79.2891 358.849 79.9751C359.376 80.6513 360.077 81.1634 360.952 81.5114C361.837 81.8494 362.836 82.0185 363.95 82.0185C365.044 82.0185 365.993 81.8594 366.799 81.5412C367.614 81.223 368.245 80.7805 368.693 80.2138C369.14 79.647 369.364 78.9957 369.364 78.2599C369.364 77.5739 369.16 76.9972 368.753 76.5298C368.355 76.0625 367.768 75.6648 366.993 75.3366C366.227 75.0085 365.287 74.7102 364.174 74.4418L360.848 73.6065C358.272 72.9801 356.239 72.0007 354.748 70.6683C353.256 69.3359 352.515 67.5412 352.525 65.2841C352.515 63.4347 353.007 61.8189 354.002 60.4368C355.006 59.0547 356.383 57.9759 358.133 57.2003C359.883 56.4247 361.872 56.0369 364.099 56.0369C366.366 56.0369 368.345 56.4247 370.035 57.2003C371.735 57.9759 373.058 59.0547 374.003 60.4368C374.947 61.8189 375.434 63.4197 375.464 65.2393H369.275Z" fill="#021C74"/>
<path d="M194.606 104.148H188.073C187.954 103.303 187.71 102.553 187.342 101.896C186.974 101.23 186.502 100.663 185.925 100.196C185.349 99.7287 184.683 99.3707 183.927 99.1222C183.181 98.8736 182.371 98.7493 181.496 98.7493C179.915 98.7493 178.538 99.142 177.364 99.9276C176.191 100.703 175.281 101.837 174.635 103.328C173.989 104.81 173.665 106.609 173.665 108.727C173.665 110.905 173.989 112.734 174.635 114.216C175.291 115.697 176.206 116.816 177.379 117.572C178.553 118.327 179.91 118.705 181.451 118.705C182.316 118.705 183.116 118.591 183.852 118.362C184.598 118.134 185.259 117.8 185.836 117.363C186.413 116.915 186.89 116.374 187.268 115.737C187.656 115.101 187.924 114.375 188.073 113.56L194.606 113.589C194.437 114.991 194.014 116.344 193.338 117.646C192.672 118.939 191.772 120.097 190.638 121.121C189.515 122.136 188.173 122.941 186.612 123.538C185.06 124.124 183.305 124.418 181.347 124.418C178.622 124.418 176.186 123.801 174.038 122.568C171.901 121.335 170.21 119.55 168.967 117.214C167.734 114.877 167.118 112.048 167.118 108.727C167.118 105.396 167.744 102.562 168.997 100.226C170.25 97.8892 171.95 96.1094 174.098 94.8864C176.246 93.6534 178.662 93.0369 181.347 93.0369C183.116 93.0369 184.757 93.2855 186.268 93.7827C187.79 94.2798 189.137 95.0057 190.31 95.9602C191.484 96.9048 192.438 98.0632 193.174 99.4354C193.92 100.808 194.397 102.379 194.606 104.148ZM228.986 108.727C228.986 112.058 228.355 114.892 227.092 117.229C225.839 119.565 224.129 121.35 221.962 122.583C219.804 123.806 217.378 124.418 214.683 124.418C211.969 124.418 209.533 123.801 207.375 122.568C205.217 121.335 203.512 119.55 202.259 117.214C201.006 114.877 200.38 112.048 200.38 108.727C200.38 105.396 201.006 102.562 202.259 100.226C203.512 97.8892 205.217 96.1094 207.375 94.8864C209.533 93.6534 211.969 93.0369 214.683 93.0369C217.378 93.0369 219.804 93.6534 221.962 94.8864C224.129 96.1094 225.839 97.8892 227.092 100.226C228.355 102.562 228.986 105.396 228.986 108.727ZM222.439 108.727C222.439 106.57 222.116 104.75 221.469 103.268C220.833 101.787 219.933 100.663 218.77 99.8977C217.606 99.1321 216.244 98.7493 214.683 98.7493C213.122 98.7493 211.76 99.1321 210.597 99.8977C209.433 100.663 208.528 101.787 207.882 103.268C207.246 104.75 206.928 106.57 206.928 108.727C206.928 110.885 207.246 112.705 207.882 114.186C208.528 115.668 209.433 116.791 210.597 117.557C211.76 118.322 213.122 118.705 214.683 118.705C216.244 118.705 217.606 118.322 218.77 117.557C219.933 116.791 220.833 115.668 221.469 114.186C222.116 112.705 222.439 110.885 222.439 108.727ZM260.999 93.4545V124H255.421L242.132 104.775H241.908V124H235.45V93.4545H241.118L254.303 112.665H254.571V93.4545H260.999ZM288.269 103.328C288.061 102.602 287.767 101.961 287.389 101.404C287.012 100.837 286.549 100.36 286.002 99.9723C285.465 99.5746 284.849 99.2713 284.153 99.0625C283.467 98.8537 282.706 98.7493 281.871 98.7493C280.31 98.7493 278.938 99.1371 277.754 99.9126C276.581 100.688 275.666 101.817 275.01 103.298C274.354 104.77 274.026 106.57 274.026 108.697C274.026 110.825 274.349 112.635 274.995 114.126C275.642 115.618 276.556 116.756 277.74 117.542C278.923 118.317 280.32 118.705 281.931 118.705C283.392 118.705 284.64 118.447 285.674 117.93C286.718 117.403 287.514 116.662 288.061 115.707C288.617 114.753 288.896 113.624 288.896 112.322L290.208 112.516H282.333V107.653H295.115V111.501C295.115 114.186 294.549 116.493 293.415 118.422C292.281 120.341 290.72 121.822 288.732 122.866C286.743 123.901 284.466 124.418 281.901 124.418C279.037 124.418 276.522 123.786 274.354 122.523C272.186 121.251 270.496 119.446 269.283 117.109C268.08 114.763 267.478 111.979 267.478 108.757C267.478 106.281 267.836 104.074 268.552 102.135C269.278 100.186 270.292 98.5355 271.595 97.1832C272.897 95.831 274.414 94.8018 276.144 94.0959C277.874 93.3899 279.748 93.0369 281.767 93.0369C283.497 93.0369 285.107 93.2905 286.599 93.7976C288.09 94.2947 289.413 95.0007 290.566 95.9155C291.73 96.8303 292.679 97.919 293.415 99.1818C294.151 100.435 294.623 101.817 294.832 103.328H288.269ZM301.646 124V93.4545H313.697C316.004 93.4545 317.973 93.8672 319.604 94.6925C321.244 95.5078 322.492 96.6662 323.347 98.1676C324.212 99.6591 324.645 101.414 324.645 103.433C324.645 105.461 324.207 107.206 323.332 108.668C322.457 110.119 321.19 111.233 319.529 112.009C317.879 112.784 315.88 113.172 313.533 113.172H305.464V107.982H312.489C313.722 107.982 314.746 107.812 315.562 107.474C316.377 107.136 316.984 106.629 317.381 105.953C317.789 105.277 317.993 104.437 317.993 103.433C317.993 102.418 317.789 101.563 317.381 100.867C316.984 100.171 316.372 99.6442 315.547 99.2862C314.732 98.9183 313.702 98.7344 312.46 98.7344H308.104V124H301.646ZM318.142 110.099L325.734 124H318.604L311.177 110.099H318.142ZM330.889 124V93.4545H351.471V98.7791H337.347V106.058H350.412V111.382H337.347V118.675H351.531V124H330.889ZM374.856 102.239C374.737 101.036 374.225 100.102 373.32 99.4354C372.415 98.7692 371.187 98.4361 369.636 98.4361C368.582 98.4361 367.692 98.5852 366.966 98.8835C366.24 99.1719 365.683 99.5746 365.296 100.092C364.918 100.609 364.729 101.195 364.729 101.852C364.709 102.398 364.823 102.876 365.072 103.283C365.33 103.691 365.683 104.044 366.131 104.342C366.578 104.631 367.095 104.884 367.682 105.103C368.269 105.312 368.895 105.491 369.561 105.64L372.305 106.296C373.638 106.594 374.861 106.992 375.975 107.489C377.088 107.987 378.053 108.598 378.868 109.324C379.683 110.05 380.315 110.905 380.762 111.889C381.22 112.874 381.453 114.002 381.463 115.275C381.453 117.144 380.976 118.765 380.031 120.137C379.097 121.499 377.744 122.558 375.975 123.314C374.215 124.06 372.092 124.433 369.606 124.433C367.14 124.433 364.992 124.055 363.163 123.299C361.343 122.543 359.921 121.425 358.897 119.943C357.883 118.452 357.351 116.607 357.301 114.41H363.551C363.62 115.434 363.913 116.289 364.43 116.975C364.957 117.651 365.658 118.163 366.533 118.511C367.418 118.849 368.418 119.018 369.531 119.018C370.625 119.018 371.575 118.859 372.38 118.541C373.195 118.223 373.827 117.781 374.274 117.214C374.722 116.647 374.945 115.996 374.945 115.26C374.945 114.574 374.742 113.997 374.334 113.53C373.936 113.062 373.35 112.665 372.574 112.337C371.808 112.009 370.869 111.71 369.755 111.442L366.429 110.607C363.854 109.98 361.82 109.001 360.329 107.668C358.837 106.336 358.097 104.541 358.107 102.284C358.097 100.435 358.589 98.8189 359.583 97.4368C360.587 96.0547 361.965 94.9759 363.715 94.2003C365.465 93.4247 367.453 93.0369 369.68 93.0369C371.948 93.0369 373.926 93.4247 375.617 94.2003C377.317 94.9759 378.639 96.0547 379.584 97.4368C380.529 98.8189 381.016 100.42 381.046 102.239H374.856ZM404.057 102.239C403.938 101.036 403.426 100.102 402.521 99.4354C401.616 98.7692 400.388 98.4361 398.837 98.4361C397.783 98.4361 396.893 98.5852 396.167 98.8835C395.442 99.1719 394.885 99.5746 394.497 100.092C394.119 100.609 393.93 101.195 393.93 101.852C393.91 102.398 394.025 102.876 394.273 103.283C394.532 103.691 394.885 104.044 395.332 104.342C395.78 104.631 396.297 104.884 396.883 105.103C397.47 105.312 398.096 105.491 398.763 105.64L401.507 106.296C402.839 106.594 404.062 106.992 405.176 107.489C406.29 107.987 407.254 108.598 408.069 109.324C408.885 110.05 409.516 110.905 409.964 111.889C410.421 112.874 410.655 114.002 410.665 115.275C410.655 117.144 410.177 118.765 409.233 120.137C408.298 121.499 406.946 122.558 405.176 123.314C403.416 124.06 401.293 124.433 398.807 124.433C396.341 124.433 394.194 124.055 392.364 123.299C390.545 122.543 389.123 121.425 388.099 119.943C387.084 118.452 386.552 116.607 386.503 114.41H392.752C392.822 115.434 393.115 116.289 393.632 116.975C394.159 117.651 394.86 118.163 395.735 118.511C396.62 118.849 397.619 119.018 398.733 119.018C399.827 119.018 400.776 118.859 401.582 118.541C402.397 118.223 403.028 117.781 403.476 117.214C403.923 116.647 404.147 115.996 404.147 115.26C404.147 114.574 403.943 113.997 403.535 113.53C403.138 113.062 402.551 112.665 401.775 112.337C401.01 112.009 400.07 111.71 398.957 111.442L395.631 110.607C393.055 109.98 391.022 109.001 389.53 107.668C388.039 106.336 387.298 104.541 387.308 102.284C387.298 100.435 387.79 98.8189 388.785 97.4368C389.789 96.0547 391.166 94.9759 392.916 94.2003C394.666 93.4247 396.655 93.0369 398.882 93.0369C401.149 93.0369 403.128 93.4247 404.818 94.2003C406.518 94.9759 407.841 96.0547 408.785 97.4368C409.73 98.8189 410.217 100.42 410.247 102.239H404.057Z" fill="#021C74"/>
<defs>
<linearGradient id="paint0_linear_52_24974" x1="62.5" y1="0" x2="114.5" y2="-2.64975e-07" gradientUnits="userSpaceOnUse">
<stop stop-color="#2341C4"/>
<stop offset="0.692309" stop-color="#04E4BB"/>
</linearGradient>
<linearGradient id="paint1_linear_52_24974" x1="6.77457" y1="34.4633" x2="136.248" y2="79.8761" gradientUnits="userSpaceOnUse">
<stop offset="0.124979" stop-color="#04E4BB"/>
<stop offset="0.458719" stop-color="#2341C4"/>
<stop offset="0.74189" stop-color="#04E4BB"/>
<stop offset="1" stop-color="#04E4BB"/>
</linearGradient>
<linearGradient id="paint2_linear_52_24974" x1="1.30347" y1="54.8806" x2="134.654" y2="103.157" gradientUnits="userSpaceOnUse">
<stop offset="0.197267" stop-color="#04E4BB"/>
<stop offset="0.475601" stop-color="#2341C4"/>
<stop offset="0.723996" stop-color="#04E4BB"/>
<stop offset="1" stop-color="#04E4BB"/>
</linearGradient>
<linearGradient id="paint3_linear_52_24974" x1="0.774566" y1="74.7308" x2="130.06" y2="120.378" gradientUnits="userSpaceOnUse">
<stop offset="0.234329" stop-color="#04E4BB"/>
<stop offset="0.512113" stop-color="#2341C4"/>
<stop offset="0.745117" stop-color="#04E4BB"/>
<stop offset="1" stop-color="#04E4BB"/>
</linearGradient>
<linearGradient id="paint4_linear_52_24974" x1="2.62717" y1="94.6198" x2="110.867" y2="126.674" gradientUnits="userSpaceOnUse">
<stop offset="0.249615" stop-color="#04E4BB"/>
<stop offset="0.55246" stop-color="#2341C4"/>
<stop offset="0.839097" stop-color="#04E4BB"/>
<stop offset="1" stop-color="#04E4BB"/>
</linearGradient>
<linearGradient id="paint5_linear_52_24974" x1="11.5" y1="109.768" x2="66" y2="109.768" gradientUnits="userSpaceOnUse">
<stop offset="0.35357" stop-color="#04E4BB"/>
<stop offset="1" stop-color="#2341C4"/>
</linearGradient>
<linearGradient id="paint6_linear_52_24974" x1="42.5" y1="6.48938" x2="128.477" y2="32.5241" gradientUnits="userSpaceOnUse">
<stop stop-color="#04E4BB"/>
<stop offset="0.151342" stop-color="#2341C4"/>
<stop offset="0.678163" stop-color="#04E4BB"/>
<stop offset="1" stop-color="#04E4BB"/>
</linearGradient>
<linearGradient id="paint7_linear_52_24974" x1="20.1792" y1="17.6297" x2="135.35" y2="55.309" gradientUnits="userSpaceOnUse">
<stop offset="0.084996" stop-color="#04E4BB"/>
<stop offset="0.392194" stop-color="#2341C4"/>
<stop offset="0.635284" stop-color="#04E4BB"/>
<stop offset="1" stop-color="#04E4BB"/>
</linearGradient>
</defs>
</svg>
