<svg width="118" height="51" viewBox="0 0 118 51" fill="none" xmlns="http://www.w3.org/2000/svg">
<path d="M9.64703 11.86H16.778V23.54C14.7425 23.9991 12.6645 24.2431 10.578 24.268C2.756 24.268 0 19.788 0 12.41C0 4.483 3.82301 0 11.445 0C13.1405 0.0141782 14.8326 0.152207 16.508 0.412994V7.88998H14.847L13.913 5.03198C13.013 2.31298 11.952 0.964996 10.259 0.964996C7.33303 0.964996 5.77899 4.92699 5.77899 12.339C5.77899 19.751 6.39898 23.3 10.222 23.3C10.8053 23.2993 11.3857 23.2185 11.947 23.06V14.37L9.64099 12.785V11.86H9.64703ZM16.64 43.219C16.64 47.905 13.44 50.594 7.78503 50.594C5.78661 50.5441 3.79454 50.3472 1.82501 50.005V40.842H3.48102L4.172 43.009C5.72 48.004 6.82404 49.659 8.79004 49.659C10.859 49.659 12.336 47.834 12.336 45.423C12.336 43.462 11.408 42.084 9.41003 41.011L5.96301 39.149C4.75043 38.5986 3.72032 37.7132 2.99396 36.5971C2.2676 35.481 1.87525 34.1806 1.86304 32.849C1.86304 28.782 5.20201 26.337 10.687 26.337C12.3593 26.3638 14.028 26.5018 15.682 26.75V34.227H14.026L13.098 31.369C12.164 28.335 11.168 27.231 9.34302 27.231C8.91237 27.1972 8.47951 27.2565 8.07379 27.4048C7.66807 27.5531 7.29898 27.7869 6.99164 28.0905C6.6843 28.394 6.44587 28.7602 6.29254 29.164C6.13921 29.5678 6.07459 30 6.10303 30.431C6.10303 32.118 7.03701 33.331 8.85901 34.359L12.337 36.32C15.263 37.976 16.637 40.18 16.637 43.214L16.64 43.219ZM31.877 48.636L32.568 49.669V50.19H27.299L27.055 48.19C26.7516 48.9503 26.2138 49.5942 25.5198 50.0283C24.8257 50.4624 24.0114 50.664 23.195 50.604C22.5889 50.6497 21.98 50.5627 21.4109 50.3491C20.8419 50.1355 20.3261 49.8005 19.8997 49.3673C19.4733 48.9341 19.1464 48.4132 18.9418 47.8408C18.7372 47.2684 18.6598 46.6584 18.715 46.053C18.715 43.226 20.263 41.471 25.015 39.609L27.047 38.82V36.239C27.047 33.964 26.634 33.039 25.361 33.039C24.328 33.039 23.745 33.591 22.74 36.104L21.605 38.919H20.057V33.298C21.9383 32.6783 23.8984 32.3304 25.878 32.265C29.769 32.265 31.878 34.127 31.878 37.503V48.639L31.877 48.636ZM33.869 15.101C33.869 20.962 30.737 24.27 26.701 24.27C22.665 24.27 19.539 20.962 19.539 15.101C19.539 9.23998 22.671 5.93201 26.707 5.93201C30.743 5.93201 33.868 9.23699 33.868 15.098L33.869 15.101ZM27.052 45.741V39.781L26.401 40.055C24.363 40.881 23.601 42.743 23.601 45.463C23.601 47.501 24.085 48.663 25.217 48.663C26.349 48.663 27.048 47.563 27.048 45.737L27.052 45.741ZM28.806 15.101C28.806 8.48198 28.254 6.72699 26.706 6.72699C25.158 6.72699 24.606 8.48098 24.606 15.101C24.606 21.721 25.158 23.475 26.706 23.475C28.254 23.475 28.806 21.718 28.806 15.098V15.101ZM46.106 45.908L46.726 46.223C45.626 49.396 44.213 50.598 41.488 50.598C37.045 50.598 34.563 47.259 34.563 41.429C34.563 35.599 37.458 32.26 42.178 32.26C43.6844 32.2532 45.1794 32.5205 46.59 33.049V38.91H44.977L44.326 36.703C43.459 33.777 42.985 33.019 42.118 33.019C40.74 33.019 39.636 34.81 39.636 41.636C39.636 47.115 40.462 49.113 42.562 49.113C43.971 49.119 45.176 48.222 46.108 45.913L46.106 45.908ZM42.277 23.854H36.077V23.339L36.768 22.306V3.07098L36.077 2.03799V1.517L41.593 1.104V22.304L42.284 23.337V23.858L42.277 23.854ZM50.756 24.27C46.964 24.27 44.688 20.823 44.688 14.931C44.688 9.039 47.062 5.93701 50.716 5.93701C52.578 5.93701 53.616 6.658 54.055 8.104V3.07199L53.365 2.039V1.51801L58.881 1.10501V22.305L59.572 23.338V23.853H54.672L54.296 21.232C53.75 23.477 52.717 24.272 50.75 24.272L50.756 24.27ZM62.856 48.636L63.547 49.669V50.19H57.347V49.669L58.038 48.636V36.226C58.038 34.746 57.594 33.852 56.521 33.852C55.241 33.852 54.313 34.925 54.313 37.024V48.638L55.004 49.671V50.192H48.804V49.671L49.495 48.638V29.404L48.804 28.371V27.86L54.32 27.447V34.578C54.6684 33.8221 55.2438 33.1938 55.9662 32.7804C56.6886 32.3671 57.5219 32.1894 58.35 32.272C61.177 32.272 62.864 34.063 62.864 37.541V48.641H62.87L62.856 48.636ZM49.762 14.99C49.762 21.19 50.314 23.09 51.831 23.09C53.724 23.09 54.069 20.371 54.069 14.923C54.069 9.475 53.693 7.03299 51.861 7.03299C50.313 7.03299 49.761 8.89499 49.761 14.994L49.762 14.99ZM84.362 22.297L85.053 23.33V23.845H78.853V23.33L79.544 22.297V9.51099C79.544 8.27199 79.131 7.51099 78.166 7.51099C76.966 7.51099 75.999 8.58401 75.999 10.643V22.294L76.69 23.327V23.842H70.49V23.327L71.181 22.294V9.51099C71.181 8.27199 70.768 7.51099 69.803 7.51099C68.603 7.51099 67.636 8.58401 67.636 10.643V22.294L68.327 23.327V23.842H62.127V23.327L62.818 22.294V8.272L62.127 7.44598V6.931L67.091 6.34201H67.504L67.643 8.272C68.226 6.755 69.675 5.92899 71.643 5.92899C72.5557 5.8671 73.4618 6.12174 74.2086 6.64999C74.9555 7.17825 75.4974 7.94783 75.743 8.82901C76.0163 7.94356 76.5798 7.17591 77.3427 6.64981C78.1055 6.12371 79.0232 5.8698 79.948 5.92899C82.667 5.92899 84.391 7.72 84.391 11.198V22.298L84.362 22.297ZM77.921 45.115C77.921 48.115 75.991 50.594 71.342 50.594C69.5482 50.5546 67.7613 50.3575 66.002 50.005V43.605H67.411L67.855 44.983C68.955 48.498 70.023 49.808 71.715 49.808C72.085 49.8134 72.4519 49.7399 72.7911 49.5922C73.1304 49.4445 73.4342 49.2261 73.6823 48.9516C73.9304 48.6771 74.1171 48.3528 74.2298 48.0004C74.3425 47.648 74.3787 47.2755 74.336 46.908C74.336 45.459 73.608 44.463 71.891 43.529L68.928 41.944C68.0511 41.5245 67.3108 40.8652 66.793 40.0425C66.2751 39.2197 66.0009 38.2671 66.002 37.295C66.002 34.163 68.453 32.263 72.514 32.263C73.9755 32.2911 75.4305 32.4636 76.858 32.778V37.81H75.447L74.719 35.979C73.893 33.772 73.103 33.053 71.793 33.053C71.4943 33.0227 71.1926 33.0588 70.9095 33.1585C70.6263 33.2583 70.3687 33.4193 70.1549 33.6301C69.9411 33.8409 69.7765 34.0963 69.6729 34.378C69.5692 34.6598 69.5289 34.9609 69.555 35.26C69.555 36.432 70.246 37.221 71.929 38.186L74.855 39.842C75.8224 40.33 76.6272 41.0887 77.1714 42.0258C77.7155 42.9628 77.9756 44.0378 77.92 45.12L77.921 45.115ZM100.221 22.297L100.911 23.33V23.845H95.642L95.405 21.845C95.1016 22.6053 94.5639 23.2492 93.8698 23.6833C93.1757 24.1174 92.3614 24.319 91.545 24.259C90.9389 24.3047 90.3301 24.2177 89.761 24.0041C89.1919 23.7905 88.6762 23.4555 88.2498 23.0223C87.8233 22.5891 87.4964 22.0682 87.2918 21.4958C87.0872 20.9234 87.0098 20.3134 87.065 19.708C87.065 16.881 88.613 15.126 93.365 13.264L95.397 12.475V9.89401C95.397 7.61901 94.984 6.694 93.71 6.694C92.677 6.694 92.094 7.246 91.089 9.759L89.954 12.586H88.4V6.97198C90.2814 6.3527 92.2414 6.00488 94.221 5.939C98.112 5.939 100.221 7.801 100.221 11.177V22.3V22.297ZM95.396 19.397V13.437L94.745 13.711C92.713 14.537 91.955 16.4 91.955 19.119C91.955 21.157 92.439 22.329 93.571 22.329C94.703 22.329 95.396 21.229 95.396 19.397ZM117.931 23.328V23.843H111.731V23.328L112.422 22.295V9.88501C112.422 8.39901 111.978 7.51099 110.905 7.51099C109.626 7.51099 108.697 8.58399 108.697 10.684V22.298L109.388 23.331V23.846H103.188V23.331L103.879 22.298V8.27798L103.188 7.452V6.93701L108.152 6.34799H108.565L108.704 8.27798C109.287 6.76098 110.704 5.935 112.734 5.935C115.561 5.935 117.248 7.72601 117.248 11.204V22.304L117.948 23.337L117.931 23.328Z" fill="black"/>
</svg>
