<svg width="237" height="50" viewBox="0 0 237 50" fill="none" xmlns="http://www.w3.org/2000/svg">
<path d="M64.084 41.9771H61.359L62.719 37.6531L64.079 41.9771H64.084ZM62.323 35.8921L58.959 45.6661H60.159L61.118 43.0221H64.401L65.284 45.6661H66.484L63.12 35.8921H62.323Z" fill="black"/>
<path d="M69.372 44.622H68.572V41.0949H69.372C69.99 41.0852 70.6073 41.1395 71.2141 41.2569C71.5371 41.348 71.8193 41.5466 72.014 41.82C72.2045 42.1351 72.3144 42.4922 72.334 42.8599C72.35 43.1961 72.2669 43.5295 72.095 43.8189C71.9719 44.0616 71.7747 44.2588 71.532 44.3819C70.8297 44.5815 70.099 44.6623 69.3701 44.6209M68.57 40.0579V36.932H69.291C69.8824 36.9161 70.4735 36.9705 71.0521 37.0939C71.315 37.1798 71.5394 37.3556 71.6857 37.5904C71.832 37.8252 71.8909 38.104 71.8521 38.3779C71.8749 38.6303 71.8272 38.884 71.7142 39.1107C71.6012 39.3375 71.4273 39.5283 71.212 39.6619C70.6608 39.9994 70.0116 40.1404 69.3701 40.062H68.57V40.0579ZM71.77 40.5349C72.1639 40.3513 72.4953 40.0565 72.7235 39.6867C72.9517 39.3169 73.0666 38.8883 73.054 38.4539C73.0552 37.946 72.9168 37.4476 72.6541 37.013C72.3732 36.6168 71.9839 36.3102 71.533 36.13C70.7471 35.9348 69.937 35.8543 69.1281 35.8909H67.528V45.6649H69.1281C70.0698 45.7074 71.013 45.627 71.934 45.4259C72.4308 45.2509 72.8538 44.913 73.134 44.4669C73.4331 43.9893 73.5731 43.4292 73.5341 42.867C73.5398 42.3391 73.3699 41.8244 73.0511 41.4037C72.7323 40.983 72.2827 40.6802 71.773 40.5429" fill="black"/>
<path d="M80.1861 41.658C80.2154 42.1667 80.1883 42.6772 80.1051 43.18C80.0997 43.3784 80.0439 43.5721 79.943 43.743C79.7893 44.0567 79.5358 44.3103 79.2221 44.464C78.8143 44.6286 78.3777 44.7099 77.9381 44.7029C77.5954 44.7446 77.2477 44.7005 76.9262 44.5747C76.6047 44.4489 76.3194 44.2452 76.096 43.982C75.9575 43.7861 75.8496 43.5703 75.776 43.342C75.6882 42.7849 75.661 42.2199 75.695 41.657V35.887H74.5741V42.377C74.5264 43.008 74.6364 43.641 74.8941 44.219C75.1635 44.7312 75.5819 45.1495 76.094 45.4189C76.6728 45.6813 77.3007 45.8176 77.9361 45.819C78.4938 45.8665 79.0542 45.7657 79.5605 45.5269C80.0668 45.288 80.501 44.9196 80.8191 44.459C81.1742 43.8252 81.3414 43.1034 81.3011 42.378V35.8879H80.1801V41.658H80.1861Z" fill="black"/>
<path d="M92.122 40.856C92.1628 41.8893 91.8515 42.9058 91.239 43.739C90.9192 44.0746 90.5384 44.3461 90.117 44.539C89.5752 44.7217 89.0042 44.8027 88.433 44.778H87.474V37.09H87.713C88.3013 37.0604 88.891 37.0875 89.474 37.171C89.794 37.252 90.114 37.333 90.433 37.41C90.9903 37.6855 91.4415 38.1367 91.717 38.694C91.9938 39.3806 92.1299 40.1158 92.117 40.856M91.162 36.532C90.7627 36.3033 90.3292 36.1405 89.878 36.0501C89.1601 35.9723 88.4377 35.9452 87.716 35.9691H86.356V45.662H87.64C88.3347 45.6887 89.0305 45.6617 89.721 45.5811C90.1682 45.5199 90.6022 45.3847 91.005 45.181C91.7584 44.7881 92.373 44.1734 92.766 43.42C93.1838 42.6011 93.4031 41.6953 93.406 40.776C93.4381 39.8878 93.2444 39.006 92.843 38.213C92.4312 37.5198 91.8522 36.9408 91.159 36.5291" fill="black"/>
<path d="M100.215 40.0579H95.885V35.9729H94.765V45.666H95.885V41.0989H100.213V45.666H101.334V35.9729H100.215V40.0579Z" fill="black"/>
<path d="M107.422 41.9771H104.696L106.056 37.6531L107.416 41.9771H107.422ZM105.661 35.8921L102.297 45.6661H103.497L104.456 43.0221H107.82L108.703 45.6661H109.903L106.539 35.8921H105.661Z" fill="black"/>
<path d="M112.709 44.622H111.909V41.0949H112.709C113.327 41.0852 113.944 41.1395 114.551 41.2569C114.874 41.348 115.156 41.5466 115.351 41.82C115.542 42.1351 115.651 42.4922 115.671 42.8599C115.687 43.1961 115.604 43.5295 115.432 43.8189C115.31 44.0626 115.113 44.2601 114.869 44.3819C114.167 44.5814 113.436 44.6622 112.707 44.6209M111.907 40.0579V36.932H112.628C113.219 36.9161 113.811 36.9705 114.389 37.0939C114.652 37.1798 114.876 37.3556 115.023 37.5904C115.169 37.8252 115.228 38.104 115.189 38.3779C115.212 38.6303 115.164 38.884 115.051 39.1107C114.938 39.3375 114.764 39.5283 114.549 39.6619C113.976 39.937 113.339 40.0478 112.707 39.9819H111.907V40.0629V40.0579ZM115.114 40.5349C115.508 40.3513 115.839 40.0565 116.068 39.6867C116.296 39.3169 116.411 38.8883 116.398 38.4539C116.399 37.946 116.261 37.4476 115.998 37.013C115.717 36.6168 115.328 36.3102 114.877 36.13C114.091 35.9348 113.281 35.8543 112.472 35.8909H110.872V45.6649H112.472C113.414 45.7074 114.357 45.627 115.278 45.4259C115.775 45.2509 116.198 44.913 116.478 44.4669C116.777 43.9893 116.917 43.4292 116.878 42.867C116.868 42.3432 116.692 41.8361 116.376 41.4185C116.059 41.001 115.619 40.6944 115.117 40.5429" fill="black"/>
<path d="M119.199 35.9729H118.078V45.7469H119.199V35.9729Z" fill="black"/>
<path d="M125.446 35.9729H124.325V45.7469H125.446V35.9729Z" fill="black"/>
<path d="M132.977 43.7419L128.41 35.9729H127.289V45.666H128.41V37.8919L132.819 45.666H134.019V35.9729H132.979L132.977 43.7419Z" fill="black"/>
<path d="M138.665 44.062L136.021 35.9729H134.821L138.186 45.7419H139.15L142.515 35.9729H141.393L138.665 44.062Z" fill="black"/>
<path d="M144.436 41.1801H148.278V40.1351H144.436V36.9351H148.521V35.9761H143.314V45.6691H148.597V44.623H144.435L144.436 41.1801Z" fill="black"/>
<path d="M153.165 40.059C152.574 39.8252 152.009 39.5292 151.48 39.176C151.317 39.0718 151.181 38.9307 151.084 38.764C150.986 38.5973 150.929 38.4099 150.917 38.217C150.921 38.0197 150.965 37.8252 151.048 37.6461C151.131 37.4671 151.251 37.3073 151.399 37.177C151.744 36.9159 152.166 36.7753 152.599 36.777C153.036 36.7477 153.467 36.8914 153.799 37.177C153.968 37.3295 154.105 37.5142 154.201 37.7202C154.298 37.9263 154.353 38.1496 154.362 38.377V38.539H155.483V38.377C155.453 37.6614 155.169 36.9799 154.683 36.454C154.138 35.9593 153.419 35.7002 152.683 35.733C151.925 35.7124 151.185 35.9687 150.602 36.454C150.341 36.665 150.132 36.934 149.993 37.2398C149.855 37.5455 149.789 37.8794 149.802 38.215C149.802 38.5765 149.889 38.9327 150.056 39.2534C150.223 39.574 150.465 39.8497 150.761 40.057C151.394 40.4649 152.064 40.8131 152.761 41.097C153.257 41.2828 153.718 41.5535 154.121 41.897C154.28 42.0486 154.405 42.2322 154.488 42.4356C154.571 42.639 154.61 42.8576 154.602 43.0772C154.594 43.2967 154.54 43.5122 154.444 43.7093C154.347 43.9065 154.209 44.0809 154.04 44.221C153.668 44.5558 153.179 44.7291 152.679 44.703C152.412 44.7287 152.142 44.6912 151.891 44.5934C151.641 44.4956 151.417 44.3402 151.238 44.14C150.863 43.7229 150.662 43.1786 150.675 42.618V42.456H149.553V42.618C149.532 43.3382 149.758 44.0439 150.193 44.618C150.503 44.9923 150.896 45.2887 151.341 45.4834C151.786 45.6781 152.271 45.7656 152.756 45.739C153.164 45.7615 153.573 45.7023 153.958 45.565C154.343 45.4276 154.697 45.2148 154.999 44.939C155.283 44.6897 155.508 44.3817 155.661 44.0363C155.813 43.691 155.889 43.3165 155.882 42.939C155.9 42.6482 155.859 42.3569 155.762 42.0822C155.665 41.8074 155.515 41.5548 155.319 41.339C154.663 40.8103 153.935 40.378 153.157 40.055" fill="black"/>
<path d="M156.371 36.9319H158.853V45.6649H159.974V36.9319H162.379V35.9729H156.371V36.9319Z" fill="black"/>
<path d="M171.109 35.9731H170.388L167.668 44.1431L164.943 35.9731H164.222L164.141 35.8921V35.9731H163.341V45.6661H164.463V37.8161L167.188 45.6661H168.147L170.872 37.8161V45.6661H171.993V35.9731H171.109Z" fill="black"/>
<path d="M174.955 41.1801H178.801V40.1351H174.955V36.9351H179.121V35.9761H173.833V45.6691H179.121V44.623H174.955V41.1801Z" fill="black"/>
<path d="M186.091 43.7419L181.605 35.9729H180.484V45.666H181.529V37.8919L186.015 45.666H187.215V35.9729H186.091V43.7419Z" fill="black"/>
<path d="M188.174 36.9319H190.574V45.6649H191.696V36.9319H194.101V35.9729H188.174V36.9319Z" fill="black"/>
<path d="M199.871 43.6621C199.323 42.7724 199.045 41.7427 199.071 40.6981C199.028 39.6769 199.308 38.6681 199.871 37.8151C200.067 37.4779 200.347 37.1973 200.685 37.0008C201.022 36.8043 201.404 36.6986 201.794 36.6941C202.188 36.681 202.577 36.7793 202.917 36.9776C203.257 37.1759 203.534 37.4662 203.717 37.8151C204.265 38.6749 204.544 39.6789 204.517 40.6981C204.583 41.7218 204.301 42.7377 203.717 43.5811C203.521 43.9184 203.241 44.1991 202.904 44.3956C202.566 44.5921 202.184 44.6976 201.794 44.7021C201.405 44.7496 201.011 44.6751 200.667 44.4888C200.322 44.3024 200.044 44.0135 199.871 43.6621ZM201.79 35.8121C201.241 35.8078 200.698 35.9365 200.21 36.1875C199.721 36.4384 199.3 36.8041 198.984 37.2531C198.249 38.2774 197.882 39.5206 197.944 40.7801C197.872 42.0895 198.238 43.3858 198.984 44.4641C199.304 44.91 199.725 45.2734 200.213 45.524C200.701 45.7747 201.241 45.9054 201.79 45.9054C202.339 45.9054 202.879 45.7747 203.367 45.524C203.855 45.2734 204.276 44.91 204.596 44.4641C205.275 43.3852 205.636 42.1361 205.636 40.8611C205.636 39.586 205.275 38.337 204.596 37.2581C204.28 36.8087 203.859 36.4428 203.371 36.1918C202.882 35.9408 202.339 35.8122 201.79 35.8171" fill="black"/>
<path d="M207.077 45.6661H208.199V41.1801H212.045V40.1351H208.199V36.9351H212.365V35.9761H207.077V45.6661Z" fill="black"/>
<path d="M213.567 45.6661H214.688V41.1801H218.534V40.1351H214.688V36.9351H218.773V35.9761H213.566L213.567 45.6661Z" fill="black"/>
<path d="M221.098 35.9729H219.977V45.7469H221.098V35.9729Z" fill="black"/>
<path d="M228.787 42.3779C228.763 43.0319 228.508 43.6562 228.066 44.1389C227.866 44.3339 227.627 44.4848 227.365 44.5817C227.103 44.6787 226.823 44.7196 226.544 44.7019C226.148 44.7232 225.754 44.638 225.402 44.4551C225.05 44.2722 224.754 43.9983 224.544 43.6619C224.014 42.7677 223.763 41.7357 223.823 40.698C223.774 39.6612 224.024 38.6321 224.544 37.734C224.754 37.3976 225.05 37.1237 225.402 36.9408C225.754 36.7578 226.148 36.6726 226.544 36.6939C227.059 36.666 227.566 36.831 227.965 37.1566C228.365 37.4822 228.629 37.9451 228.706 38.4549V38.617H229.827V38.4549C229.729 37.6857 229.361 36.9766 228.787 36.4549C228.179 35.9579 227.41 35.7014 226.625 35.734C226.072 35.722 225.524 35.8386 225.023 36.0746C224.523 36.3106 224.084 36.6596 223.742 37.0939C222.985 38.1673 222.618 39.4671 222.701 40.7779C222.617 42.0627 222.985 43.3365 223.742 44.3779C224.084 44.8127 224.523 45.162 225.023 45.398C225.524 45.6341 226.072 45.7504 226.625 45.7379C227.052 45.7529 227.477 45.6825 227.876 45.5309C228.275 45.3793 228.64 45.1494 228.949 44.8549C229.547 44.1566 229.911 43.2887 229.99 42.3729V42.211H228.872L228.791 42.3729L228.787 42.3779Z" fill="black"/>
<path d="M232.311 44.623V41.1821H236.157V40.137H232.311V36.9371H236.477V35.978H231.189V45.671H236.477V44.623H232.311Z" fill="black"/>
<path d="M62.643 20.0291V24.515C62.669 25.5103 62.3276 26.4804 61.684 27.2401C61.38 27.6001 60.9994 27.8876 60.5699 28.0815C60.1405 28.2755 59.6731 28.371 59.202 28.361C59.441 28.843 59.602 29.1611 59.684 29.3201C60.2585 29.2948 60.8208 29.1457 61.3323 28.883C61.8439 28.6203 62.2927 28.2502 62.648 27.798C63.4536 26.8381 63.8554 25.6032 63.769 24.353V20.0291H62.648H62.643Z" fill="black"/>
<path d="M88.118 17.5479H86.915V18.7509H88.118V17.5479Z" fill="black"/>
<path d="M87.1591 15.782H85.9561V17.066H87.1591V15.782Z" fill="black"/>
<path d="M86.195 17.5479H84.992V18.7509H86.195V17.5479Z" fill="black"/>
<path d="M96.45 17.5479H95.247V18.7509H96.45V17.5479Z" fill="black"/>
<path d="M94.527 17.5479H93.324V18.7509H94.527V17.5479Z" fill="black"/>
<path d="M114.47 20.03C114.47 22.354 114.551 23.63 114.551 23.957C114.561 24.1068 114.539 24.2571 114.486 24.3978C114.434 24.5384 114.352 24.6661 114.245 24.7723C114.139 24.8785 114.011 24.9607 113.871 25.0134C113.73 25.0662 113.58 25.0882 113.43 25.078C112.946 25.0918 112.47 24.9517 112.07 24.678C111.871 24.5156 111.715 24.3063 111.617 24.069C111.519 23.8316 111.481 23.5736 111.507 23.318V20.512H110.384C110.384 22.512 110.465 23.638 110.465 23.957C110.475 24.1069 110.453 24.2573 110.4 24.398C110.348 24.5387 110.265 24.6665 110.159 24.7727C110.053 24.8789 109.925 24.9611 109.784 25.0137C109.643 25.0664 109.493 25.0884 109.343 25.078C108.143 25.078 107.501 24.515 107.501 23.317V20.511H106.384V24.835H96.684C96.3491 24.8205 96.0328 24.6772 95.801 24.435C95.4664 24.0635 95.2931 23.5743 95.319 23.075V20.03H94.198C94.279 22.755 94.279 23.957 94.198 23.714C94.2015 23.8904 94.1589 24.0647 94.0743 24.2195C93.9898 24.3744 93.8663 24.5045 93.716 24.597C93.4767 24.7494 93.1997 24.8322 92.916 24.836H88.349C88.0141 24.8215 87.6978 24.6782 87.466 24.436C87.1315 24.0644 86.9582 23.5753 86.984 23.076V20.0309H85.863C85.944 22.7559 85.944 23.958 85.863 23.715C85.8666 23.8914 85.8239 24.0656 85.7394 24.2205C85.6548 24.3754 85.5313 24.5055 85.381 24.598C85.1417 24.7504 84.8647 24.8332 84.581 24.837H81.381V24.274C81.3881 23.5179 81.1334 22.7826 80.66 22.193C80.4264 21.8863 80.1232 21.6394 79.7755 21.4727C79.4278 21.3059 79.0455 21.2241 78.66 21.2339C76.976 21.2339 76.016 22.355 76.016 24.198V24.761H67.603C67.121 24.68 66.882 24.3609 66.882 23.7209L66.801 15.47H65.674L65.755 23.884C65.7293 24.1515 65.7669 24.4213 65.8647 24.6716C65.9625 24.9219 66.1178 25.1457 66.318 25.325C66.4638 25.4755 66.6381 25.5957 66.8307 25.6785C67.0233 25.7612 67.2304 25.8048 67.44 25.8069H76.412C76.6219 26.2608 76.9636 26.6409 77.3925 26.8979C77.8214 27.155 78.3178 27.2769 78.817 27.248C79.3074 27.2868 79.7973 27.1679 80.2154 26.9087C80.6335 26.6495 80.9577 26.2634 81.141 25.8069H84.984C85.4042 25.8016 85.8144 25.6785 86.168 25.4515C86.5216 25.2245 86.8043 24.9028 86.984 24.5229C87.0858 24.7795 87.2202 25.0218 87.384 25.244C87.5206 25.4364 87.7001 25.5944 87.9084 25.7053C88.1168 25.8162 88.3481 25.8771 88.584 25.883H93.309C93.7292 25.8778 94.1394 25.7547 94.493 25.5276C94.8466 25.3006 95.1294 24.9789 95.309 24.599C95.4108 24.8555 95.5452 25.0978 95.709 25.3199C95.8455 25.5126 96.025 25.6708 96.2333 25.7819C96.4417 25.893 96.673 25.9539 96.909 25.96H107.403V25.239C107.469 25.3919 107.568 25.5285 107.692 25.6389C107.817 25.7494 107.964 25.831 108.124 25.878C108.527 26.0583 108.967 26.1402 109.408 26.1169C109.838 26.1664 110.272 26.0656 110.637 25.8316C111.001 25.5976 111.274 25.2448 111.408 24.8329C111.614 25.2462 111.917 25.6034 112.291 25.874C112.694 26.0542 113.134 26.1362 113.575 26.113C113.851 26.1216 114.125 26.0736 114.381 25.9721C114.638 25.8706 114.871 25.7176 115.066 25.5226C115.261 25.3276 115.414 25.0947 115.515 24.8384C115.617 24.582 115.665 24.3076 115.656 24.032V20.105H114.456V20.024L114.47 20.03ZM79.87 25.876C79.7455 26.031 79.5869 26.1552 79.4065 26.2388C79.2261 26.3224 79.0288 26.3632 78.83 26.358C78.6204 26.3559 78.4133 26.3122 78.2207 26.2294C78.0281 26.1467 77.8538 26.0266 77.708 25.876C77.3936 25.4003 77.226 24.8427 77.226 24.2725C77.226 23.7023 77.3936 23.1446 77.708 22.6689C77.8436 22.5057 78.016 22.3769 78.2111 22.2931C78.4061 22.2093 78.6182 22.1729 78.83 22.187C79.0396 22.1891 79.2467 22.2328 79.4393 22.3155C79.6319 22.3982 79.8062 22.5184 79.952 22.6689C80.2882 23.1328 80.458 23.6966 80.434 24.269C80.4096 24.8494 80.2117 25.4091 79.866 25.876H79.87Z" fill="black"/>
<path d="M119.2 23.794L119.119 15.543H117.997C118.078 19.79 118.078 22.673 118.078 24.033C118.56 24.033 118.961 24.033 119.2 23.794Z" fill="black"/>
<path d="M127.933 15.543H126.816V23.713C126.826 23.8628 126.804 24.0131 126.752 24.1537C126.699 24.2944 126.617 24.4221 126.51 24.5283C126.404 24.6345 126.276 24.7167 126.136 24.7695C125.995 24.8222 125.845 24.8442 125.695 24.834H123.695C123.341 24.806 123.005 24.6659 122.736 24.434C122.549 24.2614 122.403 24.0505 122.305 23.8157C122.208 23.5809 122.163 23.3279 122.173 23.074C122.173 19.71 122.092 17.228 122.092 15.543H120.971C121.052 19.943 121.052 22.272 121.052 22.511C121.076 22.8978 120.98 23.2826 120.777 23.6124C120.573 23.9423 120.273 24.201 119.916 24.353C119.321 24.6531 118.658 24.7911 117.993 24.753H117.273V25.793H118.073C118.819 25.846 119.566 25.7041 120.24 25.3811C120.914 25.0581 121.493 24.5653 121.919 23.951C122.017 24.4274 122.238 24.87 122.559 25.235C122.699 25.418 122.882 25.5646 123.091 25.6625C123.299 25.7605 123.529 25.8069 123.759 25.798H125.921C126.207 25.8353 126.497 25.8079 126.771 25.7178C127.045 25.6276 127.295 25.4771 127.502 25.2772C127.71 25.0774 127.87 24.8334 127.971 24.5633C128.071 24.2932 128.11 24.004 128.083 23.717V19.633C127.921 17.633 127.921 16.268 127.921 15.548L127.933 15.543Z" fill="black"/>
<path d="M138.509 30.5239H137.306V31.8079H138.509V30.5239Z" fill="black"/>
<path d="M136.504 30.5239H135.301V31.8079H136.504V30.5239Z" fill="black"/>
<path d="M154.448 26.9971H153.245V28.2001H154.448V26.9971Z" fill="black"/>
<path d="M168.225 20.029C167.435 19.9547 166.643 20.1534 165.982 20.592C164.833 21.2808 163.935 22.3196 163.42 23.556L163.582 16.426H162.461V24.84H155.732C155.397 24.8255 155.081 24.6822 154.849 24.44C154.514 24.0685 154.341 23.5793 154.367 23.08V20.035H153.245C153.326 22.76 153.326 23.962 153.245 23.719C153.249 23.8954 153.206 24.0697 153.121 24.2245C153.037 24.3794 152.913 24.5095 152.763 24.602C152.524 24.7544 152.247 24.8372 151.963 24.841H143.945C143.68 24.8096 143.433 24.6899 143.245 24.5013C143.056 24.3126 142.936 24.066 142.905 23.801C142.864 22.998 142.674 22.2096 142.345 21.476C142.141 20.99 141.795 20.5772 141.352 20.2916C140.909 20.0061 140.39 19.8612 139.863 19.876C137.863 19.876 136.818 21.236 136.818 23.876H139.782V24.759C139.794 25.204 139.715 25.6468 139.55 26.0602C139.385 26.4737 139.138 26.8493 138.823 27.164C138.54 27.4814 138.195 27.7374 137.809 27.9163C137.423 28.0951 137.005 28.1931 136.58 28.204C136.16 28.2084 135.744 28.1254 135.358 27.9603C134.972 27.7952 134.624 27.5516 134.337 27.245C134.022 26.9308 133.774 26.5553 133.609 26.1417C133.444 25.7281 133.365 25.2851 133.378 24.84V22.916H132.495C132.495 23.799 132.576 24.438 132.576 24.839C132.556 25.4323 132.66 26.0234 132.881 26.5743C133.102 27.1253 133.435 27.6241 133.86 28.039C134.229 28.463 134.685 28.8036 135.196 29.0381C135.707 29.2726 136.262 29.3956 136.824 29.399C137.387 29.4029 137.945 29.2831 138.457 29.0482C138.969 28.8132 139.424 28.4687 139.788 28.039C140.613 27.1783 141.074 26.0315 141.072 24.839L140.991 22.916H138.108C138.09 22.6612 138.131 22.4056 138.229 22.1695C138.327 21.9334 138.478 21.7234 138.671 21.556C138.844 21.3695 139.054 21.2225 139.289 21.1253C139.524 21.0281 139.777 20.983 140.031 20.993C140.373 20.9769 140.712 21.0686 140.999 21.2552C141.286 21.4418 141.507 21.7139 141.631 22.033C141.888 22.6689 142.024 23.3472 142.031 24.033C142.058 24.5526 142.288 25.0409 142.671 25.393C142.999 25.7069 143.42 25.9047 143.871 25.956H152.284C152.704 25.9507 153.114 25.8275 153.468 25.6005C153.822 25.3735 154.104 25.0518 154.284 24.672C154.386 24.9286 154.52 25.1709 154.684 25.393C154.82 25.5857 155 25.7438 155.208 25.8549C155.417 25.966 155.648 26.027 155.884 26.033H171.747C171.814 24.7529 171.623 23.4724 171.184 22.268C170.957 21.6491 170.557 21.1085 170.032 20.7108C169.506 20.3131 168.877 20.075 168.22 20.025L168.225 20.029ZM163.577 24.835C164.777 22.191 166.302 20.908 168.225 20.989C169.185 21.07 169.91 21.71 170.225 22.989C170.384 23.5927 170.491 24.209 170.545 24.831H163.577V24.835Z" fill="black"/>
<path d="M168.068 17.5479H166.865V18.7509H168.068V17.5479Z" fill="black"/>
<path d="M185.449 20.0299C185.449 22.6739 185.53 23.8759 185.53 23.7139C185.54 23.8638 185.518 24.0142 185.466 24.155C185.413 24.2957 185.331 24.4235 185.225 24.5298C185.118 24.6362 184.991 24.7185 184.85 24.7713C184.709 24.8241 184.559 24.8461 184.409 24.8359H178.964V22.5119C179.017 22.1739 178.989 21.8281 178.883 21.5028C178.777 21.1775 178.596 20.8818 178.354 20.6399C178.112 20.398 177.816 20.2166 177.491 20.1106C177.166 20.0046 176.82 19.977 176.482 20.0299C175.862 20.0348 175.265 20.2615 174.798 20.6689C174.478 20.9625 174.226 21.3228 174.06 21.7244C173.895 22.1259 173.819 22.559 173.839 22.9929C173.795 23.7161 174.023 24.4296 174.479 24.9929C174.69 25.2541 174.959 25.4624 175.265 25.6013C175.571 25.7402 175.904 25.8058 176.24 25.7929H177.681C177.476 26.4914 177.056 27.1076 176.481 27.5539C175.897 28.0379 175.158 28.2941 174.4 28.2749C174.639 28.7569 174.8 29.0749 174.882 29.2339C175.831 29.1673 176.733 28.7958 177.454 28.1749C178.175 27.5539 178.676 26.7167 178.882 25.7879H184.571C184.857 25.8253 185.147 25.7978 185.421 25.7077C185.695 25.6176 185.945 25.467 186.152 25.2672C186.36 25.0673 186.52 24.8233 186.62 24.5532C186.721 24.2831 186.759 23.9939 186.733 23.7069C186.733 23.7069 186.733 22.5069 186.652 19.9419H185.452L185.449 20.0299ZM177.837 24.8359H176.477C175.518 24.8359 174.955 23.9529 174.955 22.9129C174.931 22.6216 174.968 22.3283 175.065 22.0526C175.162 21.7768 175.316 21.5246 175.518 21.3129C175.642 21.1321 175.81 20.9856 176.006 20.8872C176.202 20.7888 176.42 20.7415 176.639 20.7499C177.439 20.7499 177.923 21.2319 177.923 22.1909V24.8349H177.842L177.837 24.8359Z" fill="black"/>
<path d="M185.693 26.9971H184.49V28.2001H185.693V26.9971Z" fill="black"/>
<path d="M188.732 13.382C188.732 12.9 188.894 12.661 189.214 12.661C189.306 12.667 189.396 12.6913 189.479 12.7323C189.562 12.7733 189.635 12.8303 189.696 12.9L189.935 12.58C189.859 12.4575 189.753 12.3564 189.626 12.2864C189.5 12.2164 189.358 12.1798 189.214 12.1799C189.072 12.1847 188.932 12.2175 188.803 12.2766C188.673 12.3356 188.557 12.4196 188.46 12.5238C188.363 12.628 188.288 12.7503 188.239 12.8837C188.19 13.017 188.167 13.1589 188.173 13.301C188.168 13.586 188.251 13.8656 188.412 14.101H187.691L187.371 14.5829H189.934V14.101H189.371C189.192 14.0857 189.026 14.0023 188.907 13.8682C188.788 13.734 188.725 13.5592 188.731 13.3799L188.732 13.382Z" fill="black"/>
<path d="M188.651 15.543L188.732 25.875H189.854L189.773 15.543H188.651Z" fill="black"/>
<path d="M200.511 26.9971H199.308V28.2001H200.511V26.9971Z" fill="black"/>
<path d="M215.572 17.5479H214.369V18.7509H215.572V17.5479Z" fill="black"/>
<path d="M213.649 17.5479H212.446V18.7509H213.649V17.5479Z" fill="black"/>
<path d="M235.917 20.831C235.667 20.5222 235.349 20.2751 234.988 20.1088C234.627 19.9425 234.233 19.8615 233.836 19.872C232.151 19.872 231.192 20.993 231.192 22.836C231.184 23.5543 231.408 24.2559 231.832 24.836H227.184C227.176 24.4568 227.121 24.08 227.022 23.714C226.459 21.309 225.099 20.03 222.856 20.03C222.507 20.0166 222.158 20.0438 221.815 20.111L224.621 17.386L223.901 16.665L220.055 20.665H219.974L220.456 21.624C221.11 21.2296 221.854 21.0092 222.618 20.984C223.071 20.9683 223.522 21.0535 223.938 21.2334C224.353 21.4133 224.724 21.6833 225.023 22.024C225.718 22.7906 226.091 23.7956 226.064 24.83H215.889C215.554 24.8155 215.238 24.6722 215.006 24.43C214.671 24.0585 214.498 23.5693 214.524 23.07V20.025H213.403C213.484 22.75 213.484 23.952 213.403 23.709C213.406 23.8854 213.364 24.0596 213.279 24.2145C213.195 24.3693 213.071 24.4995 212.921 24.592C212.682 24.7445 212.405 24.8272 212.121 24.831H205.631C205.296 24.8165 204.98 24.6732 204.748 24.431C204.413 24.0595 204.24 23.5703 204.266 23.071L204.185 20.026H203.064C203.145 22.269 203.145 23.553 203.145 23.953C203.145 24.516 202.906 24.836 202.505 24.836H197.938C197.347 24.8157 196.781 24.5898 196.338 24.197C195.954 23.7921 195.657 23.3134 195.464 22.7899C195.271 22.2664 195.187 21.7091 195.217 21.152L195.136 20.193H194.177L194.258 21.152C194.249 22.2801 194.554 23.3884 195.141 24.352C195.437 24.8213 195.853 25.2026 196.347 25.4561C196.841 25.7096 197.393 25.8259 197.947 25.793H202.834C203.16 25.8111 203.481 25.7057 203.733 25.4978C203.985 25.2899 204.15 24.9947 204.194 24.671C204.292 24.9976 204.493 25.2835 204.768 25.4858C205.042 25.6882 205.375 25.796 205.716 25.793H212.364C212.784 25.7878 213.194 25.6647 213.548 25.4377C213.902 25.2107 214.184 24.8889 214.364 24.509C214.466 24.7656 214.6 25.0079 214.764 25.23C214.9 25.4227 215.08 25.5808 215.288 25.6919C215.497 25.803 215.728 25.864 215.964 25.87H233.908C235.592 25.87 236.552 24.749 236.552 22.906C236.601 22.5335 236.569 22.155 236.458 21.796C236.348 21.4369 236.162 21.1058 235.912 20.825L235.917 20.831ZM235.117 24.431C234.992 24.5862 234.834 24.7105 234.653 24.7941C234.472 24.8777 234.275 24.9184 234.076 24.913C233.867 24.9108 233.66 24.867 233.467 24.7843C233.275 24.7016 233.101 24.5815 232.955 24.431C232.641 23.9553 232.473 23.3977 232.473 22.8275C232.473 22.2573 232.641 21.6997 232.955 21.224C233.08 21.0688 233.238 20.9446 233.419 20.861C233.6 20.7773 233.797 20.7366 233.996 20.742C234.205 20.7442 234.412 20.788 234.605 20.8707C234.797 20.9535 234.971 21.0735 235.117 21.224C235.453 21.6879 235.623 22.2517 235.599 22.824C235.561 23.3902 235.395 23.9405 235.115 24.434L235.117 24.431Z" fill="black"/>
<path d="M35.804 21.389C30.679 11.458 34.764 1.68902 35.484 0.0810199C35.4843 0.0703079 35.4824 0.0596605 35.4784 0.0497088C35.4744 0.0397572 35.4685 0.030705 35.4609 0.023128C35.4533 0.015551 35.4443 0.0095843 35.4344 0.00561095C35.4244 0.00163759 35.4138 -0.000248575 35.403 2.62284e-05H35.322C32.5969 2.11662 30.3266 4.76117 28.6472 7.77548C26.9678 10.7898 25.9137 14.1119 25.548 17.543C25.5477 17.5537 25.5496 17.5644 25.5536 17.5743C25.5576 17.5843 25.5636 17.5933 25.5711 17.6009C25.5787 17.6085 25.5877 17.6144 25.5977 17.6184C25.6076 17.6224 25.6183 17.6243 25.6291 17.624C29.0728 18.6098 32.423 19.8968 35.641 21.47C35.749 21.47 35.803 21.443 35.803 21.389" fill="#A57735"/>
<path d="M45.821 25.5561C45.021 25.3171 45.181 24.6731 45.181 24.6731C45.823 24.5859 46.4751 24.7274 47.023 25.073C46.9099 25.2801 46.7284 25.4414 46.5095 25.5293C46.2905 25.6173 46.0479 25.6264 45.823 25.555M47.823 25.4791C48.223 23.6371 46.062 23.1551 46.062 23.1551C42.6028 22.4753 39.0306 22.6406 35.649 23.6371C19.867 14.7461 2.48599 15.8681 0.0809937 16.0251C0.0595111 16.0251 0.0389331 16.0336 0.0237427 16.0488C0.00855223 16.0639 0 16.0846 0 16.1061C0 16.1275 0.00855223 16.1481 0.0237427 16.1633C0.0389331 16.1785 0.0595111 16.1871 0.0809937 16.1871C4.89326 17.9047 9.28347 20.6298 12.9581 24.1803C16.6327 27.7307 19.507 32.0247 21.389 36.7751C19.227 41.9001 20.349 47.9091 20.589 49.0301C20.5889 49.0407 20.5909 49.0513 20.5949 49.0612C20.5989 49.0711 20.6049 49.0801 20.6124 49.0876C20.62 49.0952 20.629 49.1011 20.6389 49.1051C20.6487 49.1092 20.6594 49.1112 20.67 49.1111H20.751C27.318 32.2111 42.699 28.3611 45.987 27.5641C48.392 27.0011 48.793 27.645 48.87 27.964C48.8697 27.9747 48.8716 27.9854 48.8756 27.9953C48.8796 28.0053 48.8856 28.0144 48.8931 28.022C48.9007 28.0295 48.9097 28.0355 48.9197 28.0395C48.9296 28.0434 48.9403 28.0453 48.951 28.045H49.032C49.991 26.122 47.832 25.482 47.832 25.482" fill="#A57735"/>
</svg>
